<svg width="167" height="172" viewBox="0 0 167 172" fill="none" xmlns="http://www.w3.org/2000/svg">
<path d="M58 0H68L48 60H38L58 0Z" fill="#A7A7A7"/>
<rect x="1" y="51" width="83" height="120" rx="6.96875" fill="white" stroke="#333333" stroke-width="2"/>
<rect x="18.5938" y="75.4609" width="47.8125" height="44.5565" fill="#EBEBEB"/>
<rect x="31.5312" y="57.5312" width="20.9375" height="4.9375" rx="2.46875" fill="white" stroke="#333333" stroke-width="1.0625"/>
<path d="M54.6291 111.047H30.7017C32.6312 102.394 38.3801 98.5422 42.6654 98.4883C46.9507 98.5422 52.6996 102.394 54.6291 111.047Z" fill="white" stroke="#333333" stroke-width="1.59375"/>
<path d="M49.5712 92.6368C49.5712 96.4084 46.5087 99.468 42.7283 99.468C38.9479 99.468 35.8854 96.4084 35.8854 92.6368C35.8854 88.8652 38.9479 85.8057 42.7283 85.8057C46.5087 85.8057 49.5712 88.8652 49.5712 92.6368Z" fill="white" stroke="#333333" stroke-width="1.59375"/>
<rect x="44.6835" y="104" width="4.6906" height="1.56113" fill="#939393"/>
<path d="M19.4688 133.543C19.4688 133.376 19.5273 133.237 19.6445 133.125C19.7643 133.013 19.918 132.957 20.1055 132.957C20.2878 132.957 20.4401 133.013 20.5625 133.125C20.6849 133.234 20.7461 133.374 20.7461 133.543C20.7461 133.712 20.6849 133.853 20.5625 133.965C20.4427 134.077 20.2904 134.133 20.1055 134.133C19.9206 134.133 19.7682 134.076 19.6484 133.961C19.5286 133.846 19.4688 133.707 19.4688 133.543ZM19.5547 139V134.895H20.6406V139H19.5547ZM27.6328 139H26.5469V138.395H26.5273C26.2357 138.866 25.7995 139.102 25.2188 139.102C24.7031 139.102 24.2904 138.917 23.9805 138.547C23.6706 138.177 23.5156 137.674 23.5156 137.039C23.5156 136.365 23.6888 135.823 24.0352 135.414C24.3815 135.003 24.832 134.797 25.3867 134.797C25.9258 134.797 26.306 134.996 26.5273 135.395H26.5469V132.926H27.6328V139ZM26.5625 136.652C26.5625 136.363 26.474 136.124 26.2969 135.934C26.1198 135.741 25.8971 135.645 25.6289 135.645C25.3164 135.645 25.069 135.767 24.8867 136.012C24.707 136.257 24.6172 136.589 24.6172 137.008C24.6172 137.401 24.7044 137.707 24.8789 137.926C25.0534 138.142 25.2891 138.25 25.5859 138.25C25.8724 138.25 26.1068 138.137 26.2891 137.91C26.4714 137.684 26.5625 137.395 26.5625 137.043V136.652ZM33.4023 135.43C33.4023 135.255 33.4688 135.113 33.6016 135.004C33.7344 134.892 33.8893 134.836 34.0664 134.836C34.2461 134.836 34.3997 134.892 34.5273 135.004C34.6549 135.116 34.7188 135.258 34.7188 135.43C34.7188 135.609 34.6549 135.755 34.5273 135.867C34.3997 135.977 34.2409 136.031 34.0508 136.031C33.8763 136.031 33.724 135.975 33.5938 135.863C33.4661 135.749 33.4023 135.604 33.4023 135.43ZM33.4023 138.5C33.4023 138.326 33.4674 138.182 33.5977 138.07C33.7305 137.958 33.8867 137.902 34.0664 137.902C34.2461 137.902 34.3997 137.958 34.5273 138.07C34.6549 138.182 34.7188 138.326 34.7188 138.5C34.7188 138.677 34.6549 138.822 34.5273 138.934C34.3997 139.043 34.2409 139.098 34.0508 139.098C33.8711 139.098 33.7174 139.04 33.5898 138.926C33.4648 138.811 33.4023 138.669 33.4023 138.5ZM20.6602 150.488V152.891H19.5703V146.895H20.6602V147.543H20.6719C20.9896 147.046 21.4401 146.797 22.0234 146.797C22.5417 146.797 22.9492 146.978 23.2461 147.34C23.5456 147.702 23.6953 148.199 23.6953 148.832C23.6953 149.514 23.5247 150.064 23.1836 150.48C22.8451 150.895 22.3958 151.102 21.8359 151.102C21.3307 151.102 20.9427 150.897 20.6719 150.488H20.6602ZM20.6445 149.215C20.6445 149.512 20.7305 149.759 20.9023 149.957C21.0742 150.152 21.2943 150.25 21.5625 150.25C21.8802 150.25 22.1289 150.126 22.3086 149.879C22.4883 149.632 22.5781 149.284 22.5781 148.836C22.5781 148.042 22.2643 147.645 21.6367 147.645C21.3398 147.645 21.1003 147.755 20.918 147.977C20.7357 148.198 20.6445 148.477 20.6445 148.812V149.215ZM30.3008 146.895L29.1055 151H27.9648L27.2891 148.438C27.2552 148.312 27.2331 148.152 27.2227 147.957H27.1992C27.1836 148.152 27.1576 148.31 27.1211 148.43L26.3945 151H25.2695L24.0859 146.895H25.2031L25.8477 149.695C25.8815 149.846 25.9023 149.99 25.9102 150.125H25.9336C25.9414 149.992 25.9648 149.844 26.0039 149.68L26.7852 146.895H27.8164L28.5078 149.699C28.526 149.775 28.5456 149.919 28.5664 150.133H28.5938C28.6016 150.021 28.6237 149.876 28.6602 149.699L29.2812 146.895H30.3008ZM33.582 147.43C33.582 147.255 33.6484 147.113 33.7812 147.004C33.9141 146.892 34.069 146.836 34.2461 146.836C34.4258 146.836 34.5794 146.892 34.707 147.004C34.8346 147.116 34.8984 147.258 34.8984 147.43C34.8984 147.609 34.8346 147.755 34.707 147.867C34.5794 147.977 34.4206 148.031 34.2305 148.031C34.056 148.031 33.9036 147.975 33.7734 147.863C33.6458 147.749 33.582 147.604 33.582 147.43ZM33.582 150.5C33.582 150.326 33.6471 150.182 33.7773 150.07C33.9102 149.958 34.0664 149.902 34.2461 149.902C34.4258 149.902 34.5794 149.958 34.707 150.07C34.8346 150.182 34.8984 150.326 34.8984 150.5C34.8984 150.677 34.8346 150.822 34.707 150.934C34.5794 151.043 34.4206 151.098 34.2305 151.098C34.0508 151.098 33.8971 151.04 33.7695 150.926C33.6445 150.811 33.582 150.669 33.582 150.5Z" fill="#767676"/>
<path d="M40.668 135.156C40.8529 135.049 41.0924 134.964 41.3867 134.898C41.681 134.831 41.9453 134.797 42.1797 134.797C43.2891 134.797 43.8438 135.359 43.8438 136.484V139H42.8047V138.395H42.7852C42.5091 138.866 42.099 139.102 41.5547 139.102C41.1589 139.102 40.8451 138.991 40.6133 138.77C40.3815 138.546 40.2656 138.246 40.2656 137.871C40.2656 137.087 40.7318 136.633 41.6641 136.508L42.8086 136.352C42.8086 135.828 42.5534 135.566 42.043 135.566C41.556 135.566 41.0977 135.719 40.668 136.023V135.156ZM41.9922 137.125C41.5234 137.185 41.2891 137.395 41.2891 137.754C41.2891 137.915 41.3451 138.047 41.457 138.148C41.569 138.25 41.7201 138.301 41.9102 138.301C42.1706 138.301 42.3854 138.21 42.5547 138.027C42.724 137.842 42.8086 137.611 42.8086 137.332V137.02L41.9922 137.125ZM48.7812 139H47.6953V138.395H47.6758C47.3841 138.866 46.9479 139.102 46.3672 139.102C45.8516 139.102 45.4388 138.917 45.1289 138.547C44.819 138.177 44.6641 137.674 44.6641 137.039C44.6641 136.365 44.8372 135.823 45.1836 135.414C45.5299 135.003 45.9805 134.797 46.5352 134.797C47.0742 134.797 47.4544 134.996 47.6758 135.395H47.6953V132.926H48.7812V139ZM47.7109 136.652C47.7109 136.363 47.6224 136.124 47.4453 135.934C47.2682 135.741 47.0456 135.645 46.7773 135.645C46.4648 135.645 46.2174 135.767 46.0352 136.012C45.8555 136.257 45.7656 136.589 45.7656 137.008C45.7656 137.401 45.8529 137.707 46.0273 137.926C46.2018 138.142 46.4375 138.25 46.7344 138.25C47.0208 138.25 47.2552 138.137 47.4375 137.91C47.6198 137.684 47.7109 137.395 47.7109 137.043V136.652ZM56.2383 139H55.1523V136.656C55.1523 135.982 54.9076 135.645 54.418 135.645C54.1914 135.645 54.0013 135.747 53.8477 135.953C53.6966 136.156 53.6211 136.401 53.6211 136.688V139H52.5352V136.613C52.5352 135.967 52.2917 135.645 51.8047 135.645C51.5729 135.645 51.3828 135.741 51.2344 135.934C51.0859 136.124 51.0117 136.379 51.0117 136.699V139H49.9219V134.895H51.0117V135.543H51.0234C51.3307 135.046 51.7695 134.797 52.3398 134.797C52.918 134.797 53.3112 135.06 53.5195 135.586C53.832 135.06 54.2891 134.797 54.8906 134.797C55.7891 134.797 56.2383 135.349 56.2383 136.453V139ZM57.2109 133.543C57.2109 133.376 57.2695 133.237 57.3867 133.125C57.5065 133.013 57.6602 132.957 57.8477 132.957C58.0299 132.957 58.1823 133.013 58.3047 133.125C58.4271 133.234 58.4883 133.374 58.4883 133.543C58.4883 133.712 58.4271 133.853 58.3047 133.965C58.1849 134.077 58.0326 134.133 57.8477 134.133C57.6628 134.133 57.5104 134.076 57.3906 133.961C57.2708 133.846 57.2109 133.707 57.2109 133.543ZM57.2969 139V134.895H58.3828V139H57.2969ZM63.3086 139H62.2227V136.699C62.2227 135.996 61.9688 135.645 61.4609 135.645C61.2057 135.645 60.9974 135.741 60.8359 135.934C60.6771 136.124 60.5977 136.366 60.5977 136.66V139H59.5078V134.895H60.5977V135.555H60.6094C60.9115 135.049 61.3555 134.797 61.9414 134.797C62.8529 134.797 63.3086 135.361 63.3086 136.488V139ZM43.3633 146.723L42.2656 146.891L43.0469 147.773L42.3984 148.219L41.8242 147.184L41.2539 148.219L40.6094 147.773L41.3867 146.891L40.2891 146.723L40.543 146L41.5625 146.426L41.4141 145.25H42.2422L42.0898 146.426L43.1055 146L43.3633 146.723ZM47.0117 146.723L45.9141 146.891L46.6953 147.773L46.0469 148.219L45.4727 147.184L44.9023 148.219L44.2578 147.773L45.0352 146.891L43.9375 146.723L44.1914 146L45.2109 146.426L45.0625 145.25H45.8906L45.7383 146.426L46.7539 146L47.0117 146.723ZM50.6602 146.723L49.5625 146.891L50.3438 147.773L49.6953 148.219L49.1211 147.184L48.5508 148.219L47.9062 147.773L48.6836 146.891L47.5859 146.723L47.8398 146L48.8594 146.426L48.7109 145.25H49.5391L49.3867 146.426L50.4023 146L50.6602 146.723ZM54.3086 146.723L53.2109 146.891L53.9922 147.773L53.3438 148.219L52.7695 147.184L52.1992 148.219L51.5547 147.773L52.332 146.891L51.2344 146.723L51.4883 146L52.5078 146.426L52.3594 145.25H53.1875L53.0352 146.426L54.0508 146L54.3086 146.723ZM57.957 146.723L56.8594 146.891L57.6406 147.773L56.9922 148.219L56.418 147.184L55.8477 148.219L55.2031 147.773L55.9805 146.891L54.8828 146.723L55.1367 146L56.1562 146.426L56.0078 145.25H56.8359L56.6836 146.426L57.6992 146L57.957 146.723ZM61.6055 146.723L60.5078 146.891L61.2891 147.773L60.6406 148.219L60.0664 147.184L59.4961 148.219L58.8516 147.773L59.6289 146.891L58.5312 146.723L58.7852 146L59.8047 146.426L59.6562 145.25H60.4844L60.332 146.426L61.3477 146L61.6055 146.723ZM65.2539 146.723L64.1562 146.891L64.9375 147.773L64.2891 148.219L63.7148 147.184L63.1445 148.219L62.5 147.773L63.2773 146.891L62.1797 146.723L62.4336 146L63.4531 146.426L63.3047 145.25H64.1328L63.9805 146.426L64.9961 146L65.2539 146.723Z" fill="#767676"/>
<path d="M27 0H17L37 60H47L27 0Z" fill="#D7D7D7"/>
<g filter="url(#filter0_d)">
<mask id="path-11-inside-1" fill="white">
<path fill-rule="evenodd" clip-rule="evenodd" d="M68 29C61.3726 29 56 34.3726 56 41V77C56 83.6274 61.3726 89 68 89H73.9979L74.0909 104.704L86.4816 89H150C156.627 89 162 83.6274 162 77V41C162 34.3726 156.627 29 150 29H68Z"/>
</mask>
<path fill-rule="evenodd" clip-rule="evenodd" d="M68 29C61.3726 29 56 34.3726 56 41V77C56 83.6274 61.3726 89 68 89H73.9979L74.0909 104.704L86.4816 89H150C156.627 89 162 83.6274 162 77V41C162 34.3726 156.627 29 150 29H68Z" fill="white"/>
<path d="M73.9979 89L75.9979 88.9882L75.9861 87H73.9979V89ZM74.0909 104.704L72.091 104.716L72.1248 110.425L75.6611 105.943L74.0909 104.704ZM86.4816 89V87H85.512L84.9114 87.7612L86.4816 89ZM58 41C58 35.4772 62.4772 31 68 31V27C60.268 27 54 33.268 54 41H58ZM58 77V41H54V77H58ZM68 87C62.4771 87 58 82.5229 58 77H54C54 84.732 60.268 91 68 91V87ZM73.9979 87H68V91H73.9979V87ZM71.998 89.0118L72.091 104.716L76.0909 104.693L75.9979 88.9882L71.998 89.0118ZM75.6611 105.943L88.0517 90.2388L84.9114 87.7612L72.5208 103.466L75.6611 105.943ZM150 87H86.4816V91H150V87ZM160 77C160 82.5229 155.523 87 150 87V91C157.732 91 164 84.732 164 77H160ZM160 41V77H164V41H160ZM150 31C155.523 31 160 35.4772 160 41H164C164 33.268 157.732 27 150 27V31ZM68 31H150V27H68V31Z" fill="black" mask="url(#path-11-inside-1)"/>
</g>
<path d="M69.8188 55.4922V54.1655H74.7065V52.4517H71.4312V48.5098H77.9185V47.2783H71.4565V45.9644H79.5181V49.7856H73.0308V51.1377H79.8418V52.4517H76.2935V54.1655H81.1812V55.4922H69.8188ZM93.2712 55.0479C92.1963 55.0605 91.333 55.0669 90.6813 55.0669H89.1579L81.9088 55.0479V53.7402H89.6022C89.7926 52.513 89.8879 51.0869 89.8879 49.4619V47.3926H83.4323V46.0786H91.4875V49.0176C91.4875 50.4691 91.3838 52.0433 91.1764 53.7402H93.2712V55.0479ZM102.721 53.6196V44.8979H104.282V53.6196H102.721ZM97.6932 51.8677C96.7453 51.8677 95.9603 51.5651 95.3382 50.96C94.7161 50.3506 94.4051 49.5741 94.4051 48.6304C94.4051 47.6782 94.7161 46.8996 95.3382 46.2944C95.9603 45.6851 96.7453 45.3804 97.6932 45.3804C98.6411 45.3804 99.4261 45.6829 100.048 46.2881C100.67 46.8932 100.981 47.674 100.981 48.6304C100.981 49.5783 100.67 50.3548 100.048 50.96C99.4261 51.5651 98.6411 51.8677 97.6932 51.8677ZM97.6932 46.7197C97.1854 46.7197 96.7685 46.8953 96.4427 47.2466C96.1211 47.5978 95.9603 48.0591 95.9603 48.6304C95.9603 49.1974 96.1211 49.6566 96.4427 50.0078C96.7685 50.3548 97.1854 50.5283 97.6932 50.5283C98.2095 50.5283 98.6263 50.3548 98.9437 50.0078C99.2611 49.6566 99.4197 49.1974 99.4197 48.6304C99.4197 48.0718 99.2589 47.6147 98.9373 47.2593C98.6157 46.8996 98.201 46.7197 97.6932 46.7197ZM96.3792 56.7173V52.6738H97.9788V55.3779H104.517V56.7173H96.3792ZM118.655 51.9058V48.9414H116.351V47.6655H118.655V44.8979H120.216V51.9058H118.655ZM116.173 51.709C114.963 51.1081 114.053 50.3633 113.443 49.4746C113.219 49.9401 112.826 50.4395 112.263 50.9727C111.7 51.5016 111.169 51.8867 110.67 52.1279L109.54 51.0107C110.39 50.6891 111.112 50.175 111.704 49.4683C112.301 48.7573 112.599 48.0231 112.599 47.2656V46.7705H110.073V45.4438H116.655V46.7705H114.193V47.2148C114.193 47.9427 114.47 48.6007 115.024 49.189C115.583 49.7772 116.302 50.2152 117.182 50.5029L116.173 51.709ZM116.363 57.0918C115.098 57.0918 114.11 56.8548 113.399 56.3809C112.692 55.9111 112.339 55.2996 112.339 54.5464C112.339 53.7974 112.694 53.1859 113.405 52.7119C114.116 52.2337 115.102 51.9946 116.363 51.9946C117.629 51.9946 118.619 52.2337 119.334 52.7119C120.049 53.1901 120.407 53.8016 120.407 54.5464C120.407 55.2996 120.049 55.9111 119.334 56.3809C118.623 56.8548 117.633 57.0918 116.363 57.0918ZM116.363 53.3086C115.555 53.3086 114.95 53.4229 114.548 53.6514C114.15 53.8799 113.951 54.1782 113.951 54.5464C113.951 54.9146 114.152 55.2129 114.554 55.4414C114.961 55.6657 115.564 55.7778 116.363 55.7778C117.167 55.7778 117.773 55.6657 118.179 55.4414C118.589 55.2171 118.795 54.9188 118.795 54.5464C118.795 54.1825 118.591 53.8862 118.185 53.6577C117.783 53.425 117.176 53.3086 116.363 53.3086ZM121.839 55.4541V54.1274H126.714V51.9058H123.553V45.8184H125.153V47.6655H129.888V45.8184H131.475V51.9058H128.314V54.1274H133.201V55.4541H121.839ZM129.888 49.0049H125.153V50.5791H129.888V49.0049Z" fill="#333333"/>
<path d="M143.717 49.6143H135.776V46.9673H142.511V45.9136H135.776V45.1074H143.444V47.7036H136.709V48.8081H143.717V49.6143ZM145.291 51.4487H133.929V50.6426H145.291V51.4487ZM143.743 57.0156H135.738V54.3369H142.537V53.2832H135.738V52.4771H143.47V55.0923H136.671V56.2095H143.743V57.0156ZM79.0483 69.125V62.8979H80.0005V69.125H79.0483ZM73.8877 68.8013C72.9736 68.8013 72.2267 68.5304 71.647 67.9888C71.0715 67.4471 70.7837 66.7637 70.7837 65.9385C70.7837 65.1175 71.0715 64.4383 71.647 63.9009C72.2225 63.3634 72.9694 63.0947 73.8877 63.0947C74.8018 63.0947 75.5487 63.3634 76.1284 63.9009C76.7082 64.4341 76.998 65.1133 76.998 65.9385C76.998 66.7679 76.7061 67.4535 76.1221 67.9951C75.5423 68.5326 74.7975 68.8013 73.8877 68.8013ZM73.8877 63.9136C73.2318 63.9136 72.707 64.1019 72.3135 64.4785C71.9242 64.8509 71.7295 65.3376 71.7295 65.9385C71.7295 66.5436 71.9242 67.0366 72.3135 67.4175C72.7028 67.7941 73.2275 67.9824 73.8877 67.9824C74.5479 67.9824 75.0726 67.7941 75.4619 67.4175C75.8512 67.0366 76.0459 66.5436 76.0459 65.9385C76.0459 65.3376 75.8491 64.8509 75.4556 64.4785C75.0662 64.1019 74.5436 63.9136 73.8877 63.9136ZM72.4722 74.8062V69.7979H73.4053V71.5562H79.061V69.7979H80.0005V74.8062H72.4722ZM79.061 72.3877H73.4053V73.9746H79.061V72.3877ZM88.8786 67.9189V67.0938H91.1383V65.6147H88.904V64.7959H91.1383V62.8979H92.0905V70.1279H91.1383V67.9189H88.8786ZM88.8659 69.3345C88.2142 69.4403 87.5752 69.5059 86.9489 69.5312C86.3268 69.5566 85.0446 69.5693 83.1022 69.5693V65.9766H87.2028V64.2627H83.1022V63.4312H88.1486V66.7827H84.0544V68.7378H85.5207C86.9087 68.7378 87.9793 68.668 88.7326 68.5283L88.8659 69.3345ZM91.1383 75.1426V71.645H84.1178V70.8008H92.0905V75.1426H91.1383ZM103.577 75.1426V69.3853H102.124V74.7554H101.191V63.1328H102.124V68.541H103.577V62.8979H104.53V75.1426H103.577ZM94.0242 65.9385V65.0942H96.741V63.1963H97.6932V65.0942H100.41V65.9385H94.0242ZM97.2488 72.1782C96.4787 72.1782 95.8312 71.9264 95.3065 71.4229C94.7817 70.915 94.5194 70.2697 94.5194 69.4868C94.5194 68.7124 94.7796 68.0713 95.3001 67.5635C95.8249 67.0514 96.4744 66.7954 97.2488 66.7954C98.019 66.7954 98.6644 67.0493 99.1849 67.5571C99.7054 68.0607 99.9656 68.7039 99.9656 69.4868C99.9656 70.2782 99.7033 70.9256 99.1785 71.4292C98.658 71.9285 98.0148 72.1782 97.2488 72.1782ZM97.2488 67.627C96.7072 67.627 96.2671 67.8026 95.9285 68.1538C95.5942 68.505 95.4271 68.9494 95.4271 69.4868C95.4271 70.0327 95.5963 70.4792 95.9349 70.8262C96.2734 71.1732 96.7114 71.3467 97.2488 71.3467C97.7778 71.3467 98.2137 71.1753 98.5565 70.8325C98.8992 70.4855 99.0706 70.0369 99.0706 69.4868C99.0706 68.9451 98.8992 68.5008 98.5565 68.1538C98.2179 67.8026 97.7821 67.627 97.2488 67.627ZM120.083 67.9697C119.114 67.8343 118.175 67.5 117.265 66.9668C116.359 66.4294 115.748 65.8919 115.43 65.3545C115.134 65.8792 114.535 66.4188 113.634 66.9731C112.737 67.5275 111.793 67.8851 110.803 68.0459L110.219 67.2524C111.34 67.1382 112.367 66.7848 113.298 66.1924C114.233 65.5999 114.774 64.9355 114.923 64.1992H111.012V63.355H119.848V64.1992H115.925C116.069 64.9482 116.598 65.6084 117.512 66.1797C118.426 66.751 119.47 67.0916 120.642 67.2017L120.083 67.9697ZM115.913 70.2168V75.1426H114.948V70.2168H109.749V69.3726H121.111V70.2168H115.913ZM131.253 75.1426V62.8979H132.199V75.1426H131.253ZM129.031 74.7681V67.957H126.898V67.1128H129.031V63.1455H129.964V74.7681H129.031ZM127.349 72.2734C126.253 71.1943 125.487 69.9185 125.051 68.4458C124.911 69.0467 124.603 69.7323 124.124 70.5024C123.65 71.2726 123.14 71.918 122.595 72.4385L121.852 71.8418C122.571 71.334 123.208 70.5321 123.763 69.436C124.317 68.3358 124.594 67.2609 124.594 66.2114V63.793H125.533V66.2241C125.533 67.244 125.781 68.2596 126.276 69.271C126.776 70.2824 127.372 71.078 128.066 71.6577L127.349 72.2734ZM133.929 73.2065V72.3623H136.868V69.2393C135.941 68.7061 135.478 67.9062 135.478 66.8398C135.478 65.8792 135.857 65.1344 136.614 64.6055C137.376 64.0723 138.375 63.8057 139.61 63.8057C140.85 63.8057 141.847 64.0723 142.6 64.6055C143.353 65.1344 143.73 65.8792 143.73 66.8398C143.73 67.9062 143.271 68.7061 142.353 69.2393V72.3623H145.291V73.2065H133.929ZM136.462 66.8398C136.462 67.5212 136.75 68.0565 137.325 68.4458C137.905 68.8309 138.667 69.0234 139.61 69.0234C140.554 69.0234 141.311 68.8288 141.883 68.4395C142.458 68.0501 142.746 67.5169 142.746 66.8398C142.746 66.1585 142.456 65.6211 141.876 65.2275C141.301 64.834 140.546 64.6372 139.61 64.6372C138.671 64.6372 137.911 64.834 137.332 65.2275C136.752 65.6211 136.462 66.1585 136.462 66.8398ZM137.814 69.6328V72.3623H141.407V69.6328C140.899 69.7894 140.3 69.8677 139.61 69.8677C138.98 69.8677 138.381 69.7894 137.814 69.6328ZM147.587 64.6562L147.473 71.3911H146.648L146.533 64.6562H147.587ZM146.381 73.4287C146.381 73.2298 146.451 73.0627 146.59 72.9272C146.73 72.7918 146.891 72.7241 147.073 72.7241C147.255 72.7241 147.416 72.7939 147.555 72.9336C147.699 73.0732 147.771 73.2383 147.771 73.4287C147.771 73.6022 147.703 73.7609 147.568 73.9048C147.437 74.0444 147.282 74.1143 147.105 74.1143C146.893 74.1143 146.72 74.0465 146.584 73.9111C146.449 73.7757 146.381 73.6149 146.381 73.4287Z" fill="#818181"/>
<path d="M69 58.9136H133.11V59.6689H69V58.9136Z" fill="#333333"/>
<defs>
<filter id="filter0_d" x="41" y="29" width="126" height="100.704" filterUnits="userSpaceOnUse" color-interpolation-filters="sRGB">
<feFlood flood-opacity="0" result="BackgroundImageFix"/>
<feColorMatrix in="SourceAlpha" type="matrix" values="0 0 0 0 0 0 0 0 0 0 0 0 0 0 0 0 0 0 127 0"/>
<feOffset dx="-5" dy="15"/>
<feGaussianBlur stdDeviation="5"/>
<feColorMatrix type="matrix" values="0 0 0 0 0 0 0 0 0 0 0 0 0 0 0 0 0 0 0.25 0"/>
<feBlend mode="normal" in2="BackgroundImageFix" result="effect1_dropShadow"/>
<feBlend mode="normal" in="SourceGraphic" in2="effect1_dropShadow" result="shape"/>
</filter>
</defs>
</svg>
