<svg width="7" height="11" viewBox="0 0 7 11" fill="none" xmlns="http://www.w3.org/2000/svg">
<path d="M5.61291 10.7823L0.177429 5.90633C0.112913 5.84828 0.0671066 5.7854 0.0400099 5.71768C0.0129132 5.64996 -0.000420026 5.5774 1.00807e-05 5.5C1.00807e-05 5.4226 0.0133433 5.35004 0.0400099 5.28232C0.0666765 5.2146 0.112483 5.15171 0.177429 5.09367L5.61291 0.203166C5.76344 0.067722 5.95161 0 6.17742 0C6.40323 0 6.59678 0.0725594 6.75807 0.217678C6.91936 0.362797 7 0.532102 7 0.725594C7 0.919085 6.91936 1.08839 6.75807 1.23351L2.01614 5.5L6.75807 9.76649C6.9086 9.90193 6.98387 10.0689 6.98387 10.2674C6.98387 10.466 6.90323 10.6376 6.74194 10.7823C6.58065 10.9274 6.39247 11 6.17742 11C5.96237 11 5.7742 10.9274 5.61291 10.7823Z" fill="#0090FF"/>
</svg>
