<svg width="29" height="42" viewBox="0 0 29 42" fill="none" xmlns="http://www.w3.org/2000/svg">
<ellipse cx="14.5" cy="33" rx="14.5" ry="9" fill="url(#paint0_radial_6694_41200)"/>
<path fill-rule="evenodd" clip-rule="evenodd" d="M19 2.73901H10V32.2607C10 32.2608 10 32.2608 10 32.2608C10 33.7736 12.0147 34.9999 14.5 34.9999C16.9853 34.9999 19 33.7736 19 32.2608C19 32.2608 19 32.2608 19 32.2607V2.73901Z" fill="url(#paint1_linear_6694_41200)"/>
<path fill-rule="evenodd" clip-rule="evenodd" d="M19 2.73901H10V32.2607C10 32.2608 10 32.2608 10 32.2608C10 33.7736 12.0147 34.9999 14.5 34.9999C16.9853 34.9999 19 33.7736 19 32.2608C19 32.2608 19 32.2608 19 32.2607V2.73901Z" fill="url(#paint2_linear_6694_41200)" fill-opacity="0.5"/>
<ellipse cx="14.5" cy="2.73913" rx="4.5" ry="2.73913" fill="#22E36F"/>
<defs>
<radialGradient id="paint0_radial_6694_41200" cx="0" cy="0" r="1" gradientUnits="userSpaceOnUse" gradientTransform="translate(14.5 33) rotate(90) scale(6.75 10.875)">
<stop offset="0.244792"/>
<stop offset="0.401042" stop-opacity="0.29"/>
<stop offset="0.755208" stop-opacity="0.09425"/>
<stop offset="1" stop-opacity="0"/>
</radialGradient>
<linearGradient id="paint1_linear_6694_41200" x1="19" y1="14.5381" x2="8.4336" y2="25.0635" gradientUnits="userSpaceOnUse">
<stop stop-color="#00D956"/>
<stop offset="0.697917" stop-color="#11A74D"/>
<stop offset="1" stop-color="#007A31"/>
</linearGradient>
<linearGradient id="paint2_linear_6694_41200" x1="19" y1="15.2849" x2="10" y2="15.2849" gradientUnits="userSpaceOnUse">
<stop/>
<stop offset="1" stop-opacity="0"/>
</linearGradient>
</defs>
</svg>
