<svg width="13" height="13" viewBox="0 0 13 13" fill="none" xmlns="http://www.w3.org/2000/svg">
<path d="M6.5013 0C6.10415 0 5.77922 0.325099 5.77922 0.722441V6.50197C5.77922 6.89932 6.10415 7.22441 6.5013 7.22441C6.89844 7.22441 7.22337 6.89932 7.22337 6.50197V0.722441C7.22337 0.325099 6.89844 0 6.5013 0ZM10.2128 2.06618C10.08 2.19905 10.0047 2.37889 10.0034 2.5668C10.002 2.75471 10.0747 2.93561 10.2056 3.07038C11.0215 3.93731 11.527 5.09321 11.5558 6.37193C11.6208 9.13888 9.33184 11.5229 6.56628 11.5518C5.89717 11.5623 5.23268 11.4393 4.61155 11.1902C3.99043 10.941 3.42511 10.5706 2.94857 10.1005C2.47203 9.63047 2.09381 9.07019 1.83596 8.45235C1.57812 7.83452 1.44581 7.1715 1.44675 6.50197C1.44675 5.17268 1.95943 3.9662 2.79704 3.06315C3.06421 2.7814 3.06421 2.34071 2.78982 2.06618C2.72196 1.99767 2.641 1.94355 2.55176 1.90706C2.46253 1.87057 2.36685 1.85246 2.27046 1.85381C2.17407 1.85516 2.07894 1.87594 1.99076 1.91491C1.90258 1.95388 1.82316 2.01025 1.75724 2.08063C0.67362 3.22901 0.0492172 4.73553 0.00259415 6.31414C-0.0984968 9.83965 2.76815 12.8884 6.29189 12.9967C9.97449 13.1123 13 10.1575 13 6.49475C13 4.78256 12.3357 3.23654 11.2526 2.08063C10.9782 1.78443 10.5016 1.77721 10.2128 2.06618Z" fill="#1C77FF"/>
</svg>
