<svg width="20" height="22" viewBox="0 0 20 22" fill="none" xmlns="http://www.w3.org/2000/svg">
<g clip-path="url(#clip0_297_757)">
<path d="M18.5 9.504C18.5 14.477 14.4704 18.508 9.5 18.508C4.52964 18.508 0.5 14.477 0.5 9.504C0.5 4.53103 4.52964 0.5 9.5 0.5C14.4704 0.5 18.5 4.53103 18.5 9.504Z" fill="#1C77FF" stroke="#1C77FF"/>
<mask id="mask0_297_757" style="mask-type:alpha" maskUnits="userSpaceOnUse" x="0" y="0" width="19" height="20">
<path d="M18.5 9.504C18.5 14.477 14.4704 18.508 9.5 18.508C4.52964 18.508 0.5 14.477 0.5 9.504C0.5 4.53103 4.52964 0.5 9.5 0.5C14.4704 0.5 18.5 4.53103 18.5 9.504Z" fill="#003472" stroke="black"/>
</mask>
<g mask="url(#mask0_297_757)">
<path fill-rule="evenodd" clip-rule="evenodd" d="M11.0588 11.0713C12.3801 10.4759 13.3 9.14705 13.3 7.60321C13.3 5.50364 11.5987 3.80161 9.50002 3.80161C7.40134 3.80161 5.70002 5.50364 5.70002 7.60321C5.70002 9.14704 6.6199 10.4759 7.94123 11.0713C5.52868 11.9611 3.16667 14.694 3.16667 17.424C3.16667 20.7483 6.0022 23.4432 9.50001 23.4432C12.9978 23.4432 15.8333 20.7483 15.8333 17.424C15.8333 14.694 13.4713 11.9611 11.0588 11.0713Z" fill="white"/>
</g>
<path d="M18.132 19.9444C18.4361 19.9444 18.7303 19.8416 18.9691 19.6541C19.2078 19.4666 19.3774 19.2053 19.4541 18.9122C19.5308 18.6191 19.511 18.3084 19.3973 18.0276C19.2836 17.7467 19.0815 17.5096 18.82 17.3551C18.82 17.3551 18.8199 17.3551 18.8198 17.355L18.5966 17.2231C18.607 17.0745 18.607 16.9255 18.5966 16.7769L18.82 16.6449C18.82 16.6449 18.82 16.6449 18.82 16.6449C19.135 16.4587 19.3615 16.1543 19.4539 15.8013C19.5463 15.4485 19.4983 15.0723 19.3191 14.7545C19.1397 14.4362 18.8421 14.2005 18.4887 14.1035C18.135 14.0065 17.7585 14.0576 17.4431 14.244L17.4428 14.2442L17.2281 14.3712C17.113 14.2923 16.9927 14.2212 16.8681 14.1586V13.8889C16.8681 13.5243 16.7268 13.1723 16.4716 12.911C16.216 12.6493 15.8667 12.5 15.5 12.5C15.1333 12.5 14.784 12.6493 14.5284 12.911C14.2732 13.1723 14.1319 13.5243 14.1319 13.8889V14.1586C14.0073 14.2212 13.887 14.2923 13.7719 14.3712L13.5572 14.2442L13.5569 14.244C13.4009 14.1518 13.2282 14.0917 13.0484 14.0674C12.8687 14.0432 12.6861 14.0555 12.5113 14.1035C12.3365 14.1515 12.1733 14.2341 12.0309 14.346C11.8885 14.4579 11.7697 14.5969 11.6809 14.7545C11.5921 14.912 11.5347 15.0855 11.5117 15.2648C11.4886 15.4441 11.5003 15.6264 11.5461 15.8013C11.5919 15.9762 11.671 16.1409 11.7796 16.2856C11.8881 16.4305 12.024 16.5527 12.18 16.6449C12.18 16.6449 12.18 16.6449 12.18 16.6449L12.4034 16.7769C12.393 16.9255 12.393 17.0745 12.4034 17.2231L12.1802 17.355C12.1801 17.355 12.1801 17.355 12.1801 17.355C12.1801 17.3551 12.18 17.3551 12.18 17.3551C11.9185 17.5096 11.7164 17.7467 11.6027 18.0276C11.489 18.3084 11.4692 18.6191 11.5459 18.9122C11.6226 19.2053 11.7922 19.4666 12.0309 19.6541C12.2697 19.8416 12.5638 19.9444 12.8678 19.9444M18.132 19.9444C17.8891 19.945 17.6512 19.8795 17.4425 19.7557C17.4423 19.7556 17.4422 19.7555 17.442 19.7554L17.2281 19.6288C17.113 19.7077 16.9927 19.7788 16.8681 19.8414V20.1111C16.8681 20.4757 16.7268 20.8277 16.4716 21.089C16.216 21.3507 15.8667 21.5 15.5 21.5C15.1333 21.5 14.784 21.3507 14.5284 21.089C14.2732 20.8277 14.1319 20.4757 14.1319 20.1111V19.8414C14.0073 19.7788 13.887 19.7077 13.7719 19.6288L13.558 19.7554C13.5579 19.7555 13.5577 19.7555 13.5576 19.7556C13.3489 19.8796 13.1108 19.9451 12.8678 19.9444M18.132 19.9444C18.1318 19.9444 18.1316 19.9444 18.1313 19.9444L18.1315 19.4444L18.1331 19.9444C18.1328 19.9444 18.1324 19.9444 18.132 19.9444ZM12.8678 19.9444C12.8675 19.9444 12.8672 19.9444 12.8669 19.9444L12.8685 19.4444L12.8687 19.9444C12.8684 19.9444 12.8681 19.9444 12.8678 19.9444ZM15.1319 17C15.1319 16.9205 15.1549 16.8437 15.1969 16.7794C15.2388 16.7152 15.2971 16.6671 15.363 16.6391C15.4288 16.6112 15.5005 16.6041 15.5696 16.6181C15.6387 16.6322 15.7039 16.6673 15.7562 16.7208C15.8086 16.7745 15.8455 16.8443 15.8606 16.9219C15.8757 16.9997 15.8679 17.0801 15.8385 17.1527C15.8092 17.2251 15.7604 17.2851 15.7 17.3264C15.6397 17.3677 15.5701 17.3889 15.5 17.3889C15.4062 17.3889 15.3138 17.3509 15.2438 17.2792C15.1735 17.2071 15.1319 17.1069 15.1319 17Z" fill="white" stroke="#1C77FF"/>
</g>
<defs>
<clipPath id="clip0_297_757">
<rect width="20" height="22" fill="white"/>
</clipPath>
</defs>
</svg>
