<svg width="69" height="60" viewBox="0 0 69 60" fill="none" xmlns="http://www.w3.org/2000/svg">
<mask id="mask0_313_2320" style="mask-type:alpha" maskUnits="userSpaceOnUse" x="0" y="0" width="69" height="60">
<rect width="69" height="60" fill="#C4C4C4"/>
</mask>
<g mask="url(#mask0_313_2320)">
<g opacity="0.5">
<rect x="8" y="18" width="19" height="4" rx="2" fill="white"/>
<rect x="8" y="40" width="17" height="4" rx="2" fill="white"/>
<rect x="27" y="40" width="12" height="4" rx="2" fill="white"/>
<rect x="19.8208" y="-3.63867" width="44.921" height="40.1924" rx="4.72852" fill="white"/>
<path d="M39.2648 14.4945L47.9276 13.5245L44.1409 24.6977C43.8723 25.8468 44.2506 26.4991 45.2909 26.4991C46.0248 26.4991 47.1294 26.2625 47.886 25.6677L47.5531 27.0737C46.4674 28.2431 44.0728 29.0948 42.0112 29.0948C39.3518 29.0948 38.2207 27.6685 38.9546 24.6369L41.7464 17.6444C41.9885 16.6542 41.769 16.2959 40.6569 16.0593L38.9546 15.7788L39.2648 14.4945Z" fill="#44516A"/>
<path d="M47.0844 8.85747C46.375 9.4913 45.4128 9.84738 44.4095 9.84738C43.4062 9.84738 42.444 9.4913 41.7346 8.85747C41.0252 8.22365 40.6266 7.364 40.6266 6.46763C40.6266 5.57127 41.0252 4.71162 41.7346 4.07779C42.444 3.44397 43.4062 3.08789 44.4095 3.08789C45.4128 3.08789 46.375 3.44397 47.0844 4.07779C47.7938 4.71162 48.1924 5.57127 48.1924 6.46763C48.1924 7.364 47.7938 8.22365 47.0844 8.85747Z" fill="#44516A"/>
<path d="M43.4639 36.5527H50.5566L43.4639 46.0098V36.5527Z" fill="white"/>
<rect x="8" y="18" width="4" height="26" rx="2" fill="white"/>
<rect x="35" y="29" width="4" height="15" rx="2" fill="white"/>
<rect x="27" y="40" width="4" height="11" rx="2" fill="white"/>
<rect x="19.8208" y="41.9707" width="4.06622" height="13.3783" rx="2.03311" transform="rotate(-40.199 19.8208 41.9707)" fill="white"/>
</g>
</g>
</svg>
