<svg width="69" height="60" viewBox="0 0 69 60" fill="none" xmlns="http://www.w3.org/2000/svg">
<mask id="mask0_6748_3170" style="mask-type:alpha" maskUnits="userSpaceOnUse" x="0" y="0" width="69" height="60">
<rect width="69" height="60" fill="#C4C4C4"/>
</mask>
<g mask="url(#mask0_6748_3170)">
<g opacity="0.5">
<path d="M11.584 33.9571L13.7682 35.1735L14.4039 34.032L13.8297 32.8584L11.584 33.9571ZM5.27275 45.29L3.08861 44.0737L5.27275 45.29ZM6.38426 46.7478L5.78964 44.3196H5.78964L6.38426 46.7478ZM19.3177 43.5807L20.8753 41.6253L19.9153 40.8605L18.723 41.1525L19.3177 43.5807ZM62.2501 21.668C62.2501 35.7512 50.8334 47.168 36.7501 47.168V52.168C53.5948 52.168 67.2501 38.5127 67.2501 21.668H62.2501ZM36.7501 -3.83203C50.8334 -3.83203 62.2501 7.58471 62.2501 21.668H67.2501C67.2501 4.82328 53.5948 -8.83203 36.7501 -8.83203V-3.83203ZM11.2501 21.668C11.2501 7.58471 22.6669 -3.83203 36.7501 -3.83203V-8.83203C19.9054 -8.83203 6.25012 4.82328 6.25012 21.668H11.2501ZM13.8297 32.8584C12.1783 29.483 11.2501 25.6874 11.2501 21.668H6.25012C6.25012 26.4656 7.35964 31.0112 9.33839 35.0558L13.8297 32.8584ZM7.4569 46.5064L13.7682 35.1735L9.3999 32.7408L3.08861 44.0737L7.4569 46.5064ZM5.78964 44.3196C7.06173 44.0081 8.09411 45.3621 7.4569 46.5064L3.08861 44.0737C1.60179 46.7435 4.01068 49.903 6.97889 49.1761L5.78964 44.3196ZM18.723 41.1525L5.78964 44.3196L6.97889 49.1761L19.9123 46.009L18.723 41.1525ZM36.7501 47.168C30.7455 47.168 25.2318 45.0957 20.8753 41.6253L17.76 45.5362C22.9698 49.6863 29.5736 52.168 36.7501 52.168V47.168Z" fill="white"/>
<rect x="22.667" y="20.334" width="24" height="5.33333" rx="2.66667" fill="white"/>
<rect x="22.667" y="31.002" width="10.6667" height="5.33333" rx="2.66667" fill="white"/>
<rect x="22.667" y="9.66797" width="24" height="5.33333" rx="2.66667" fill="white"/>
</g>
</g>
</svg>
