<svg width="69" height="60" viewBox="0 0 69 60" fill="none" xmlns="http://www.w3.org/2000/svg">
<mask id="mask0_6748_373" style="mask-type:alpha" maskUnits="userSpaceOnUse" x="0" y="0" width="69" height="60">
<rect width="69" height="60" fill="#C4C4C4"/>
</mask>
<g mask="url(#mask0_6748_373)">
<path d="M44.9936 44.0273C44.9936 49.5994 40.3817 54.1164 34.6926 54.1164C29.0035 54.1164 24.3916 49.5994 24.3916 44.0273" stroke="white" stroke-opacity="0.5" stroke-width="5"/>
<path d="M16.4727 3.44412L14.1478 2.52515L14.0717 2.71766L14.0283 2.92008L16.4727 3.44412ZM34.4884 -8.29059L34.6189 -5.794L36.9884 -5.91786V-8.29059L34.4884 -8.29059ZM11.9689 24.453L9.5244 23.929L9.50647 24.0127L9.49429 24.0974L11.9689 24.453ZM11.5594 27.3017L13.135 29.2428L13.8948 28.626L14.034 27.6574L11.5594 27.3017ZM5.41778 32.2869L3.84223 30.3458L3.71192 30.4516L3.59692 30.5738L5.41778 32.2869ZM5.41778 39.0525L3.88876 41.0304L3.99889 41.1155L4.11779 41.1879L5.41778 39.0525ZM9.51224 41.5451L8.21226 43.6805L8.81113 44.0451H9.51224V41.5451ZM34.4884 41.5451H36.9884V39.0451H34.4884V41.5451ZM34.4884 41.5453H31.9884V44.0453H34.4884V41.5453ZM59.8738 41.5453V44.0453H60.5749L61.1738 43.6807L59.8738 41.5453ZM63.9683 39.0527L65.2683 41.1881L65.3872 41.1157L65.4973 41.0306L63.9683 39.0527ZM63.9683 32.2871L65.7892 30.5741L65.6742 30.4518L65.5439 30.346L63.9683 32.2871ZM57.8267 27.3019L55.3521 27.6576L55.4913 28.6262L56.2511 29.243L57.8267 27.3019ZM57.4172 24.4532L59.8918 24.0976L59.8796 24.0129L59.8617 23.9292L57.4172 24.4532ZM52.9133 3.44432L55.3578 2.92028L55.3144 2.71786L55.2383 2.52535L52.9133 3.44432ZM34.8977 -8.29039H32.3977V-5.91765L34.7672 -5.7938L34.8977 -8.29039ZM34.8977 -8.30664L37.3977 -8.30664V-10.8714L34.8337 -10.8058L34.8977 -8.30664ZM34.6905 -8.29988L34.5926 -5.8018L34.6909 -5.79794L34.7892 -5.80183L34.6905 -8.29988ZM34.4884 -8.30644L34.5523 -10.8056L31.9884 -10.8712V-8.30644H34.4884ZM18.7977 4.36309C20.2712 0.635262 23.0617 -1.83514 26.1413 -3.43033C29.2484 -5.03982 32.521 -5.68434 34.6189 -5.794L34.3579 -10.7872C31.6507 -10.6457 27.6658 -9.85103 23.8415 -7.87005C19.9896 -5.87478 16.1749 -2.60341 14.1478 2.52515L18.7977 4.36309ZM14.4133 24.9771L18.9172 3.96816L14.0283 2.92008L9.5244 23.929L14.4133 24.9771ZM14.034 27.6574L14.4434 24.8087L9.49429 24.0974L9.08485 26.946L14.034 27.6574ZM6.99332 34.2279L13.135 29.2428L9.98387 25.3607L3.84223 30.3458L6.99332 34.2279ZM6.94679 37.0746C6.53827 36.7588 6.40268 36.5046 6.34877 36.3575C6.29109 36.2001 6.26828 36.0015 6.31511 35.7306C6.42209 35.1118 6.84571 34.4176 7.23863 33.9999L3.59692 30.5738C2.76152 31.4618 1.71114 33.0109 1.3882 34.8788C1.02866 36.9584 1.62288 39.2787 3.88876 41.0304L6.94679 37.0746ZM10.8122 39.4096L6.71776 36.917L4.11779 41.1879L8.21226 43.6805L10.8122 39.4096ZM34.4884 39.0451H9.51224V44.0451H34.4884V39.0451ZM31.9884 41.5451V41.5453H36.9884V41.5451H31.9884ZM34.4884 44.0453H59.8738V39.0453H34.4884V44.0453ZM61.1738 43.6807L65.2683 41.1881L62.6683 36.9172L58.5739 39.4098L61.1738 43.6807ZM65.4973 41.0306C67.7632 39.2789 68.3574 36.9586 67.9979 34.879C67.6749 33.0111 66.6246 31.462 65.7892 30.5741L62.1475 34.0001C62.5404 34.4178 62.964 35.112 63.071 35.7308C63.1178 36.0017 63.095 36.2003 63.0373 36.3577C62.9834 36.5048 62.8478 36.759 62.4393 37.0748L65.4973 41.0306ZM65.5439 30.346L59.4022 25.3609L56.2511 29.243L62.3928 34.2281L65.5439 30.346ZM60.3012 26.9462L59.8918 24.0976L54.9426 24.8089L55.3521 27.6576L60.3012 26.9462ZM59.8617 23.9292L55.3578 2.92028L50.4689 3.96836L54.9728 24.9773L59.8617 23.9292ZM55.2383 2.52535C53.2112 -2.60321 49.3965 -5.87458 45.5446 -7.86985C41.7203 -9.85083 37.7354 -10.6455 35.0282 -10.787L34.7672 -5.7938C36.8651 -5.68414 40.1377 -5.03962 43.2448 -3.43013C46.3244 -1.83494 49.1149 0.635464 50.5884 4.36329L55.2383 2.52535ZM32.3977 -8.30664V-8.29039L37.3977 -8.29039V-8.30664L32.3977 -8.30664ZM34.7892 -5.80183C34.8481 -5.80416 34.9055 -5.80602 34.9616 -5.80746L34.8337 -10.8058C34.754 -10.8038 34.6733 -10.8012 34.5917 -10.7979L34.7892 -5.80183ZM34.7884 -10.798C34.7088 -10.8011 34.6301 -10.8036 34.5523 -10.8056L34.4245 -5.80726C34.4792 -5.80586 34.5352 -5.80405 34.5926 -5.8018L34.7884 -10.798ZM31.9884 -8.30644V-8.29059L36.9884 -8.29059V-8.30644L31.9884 -8.30644Z" fill="white" fill-opacity="0.5"/>
</g>
</svg>
