<svg width="109" height="101" viewBox="0 0 109 101" fill="none" xmlns="http://www.w3.org/2000/svg">
<path fill-rule="evenodd" clip-rule="evenodd" d="M46.0657 76.7104C53.129 66.6446 52.2148 52.5799 43.323 43.5492C33.4123 33.4836 17.3438 33.4836 7.43306 43.5492C-2.47769 53.6148 -2.47769 69.9343 7.43306 79.9999C16.3248 89.0305 30.1731 89.9591 40.084 82.7855L56.7795 99.7418C58.4313 101.419 61.1094 101.419 62.7612 99.7418C64.4129 98.0642 64.4129 95.3443 62.7612 93.6667L46.0657 76.7104ZM36.8709 50.1021C43.2183 56.5486 43.2183 67.0005 36.8709 73.4471C30.5235 79.8936 20.2324 79.8936 13.885 73.4471C7.53762 67.0005 7.53762 56.5486 13.885 50.1021C20.2324 43.6555 30.5235 43.6555 36.8709 50.1021Z" fill="#DDE1E8"/>
<path d="M60.5179 36.9149L62.2652 37.888L62.7737 36.9748L62.3144 36.036L60.5179 36.9149ZM55.2513 46.3719L56.9986 47.3449L55.2513 46.3719ZM56.3628 47.8297L55.8871 45.8871H55.8871L56.3628 47.8297ZM67.1632 45.1849L68.4094 43.6207L67.6413 43.0087L66.6875 43.2423L67.1632 45.1849ZM104.208 26.3545C104.208 38.5393 94.33 48.417 82.1453 48.417V52.417C96.5392 52.417 108.208 40.7484 108.208 26.3545H104.208ZM82.1453 4.29199C94.33 4.29199 104.208 14.1697 104.208 26.3545H108.208C108.208 11.9606 96.5392 0.291992 82.1453 0.291992V4.29199ZM60.0828 26.3545C60.0828 14.1697 69.9605 4.29199 82.1453 4.29199V0.291992C67.7513 0.291992 56.0828 11.9606 56.0828 26.3545H60.0828ZM62.3144 36.036C60.8857 33.1155 60.0828 29.8316 60.0828 26.3545H56.0828C56.0828 30.4541 57.0307 34.338 58.7213 37.7938L62.3144 36.036ZM56.9986 47.3449L62.2652 37.888L58.7705 35.9418L53.504 45.3988L56.9986 47.3449ZM55.8871 45.8871C56.7351 45.6794 57.4234 46.5821 56.9986 47.3449L53.504 45.3988C52.2295 47.6872 54.2943 50.3953 56.8385 49.7723L55.8871 45.8871ZM66.6875 43.2423L55.8871 45.8871L56.8385 49.7723L67.6389 47.1275L66.6875 43.2423ZM82.1453 48.417C76.9498 48.417 72.1787 46.6236 68.4094 43.6207L65.9169 46.7492C70.369 50.2961 76.0122 52.417 82.1453 52.417V48.417Z" fill="#DDE1E8"/>
<rect x="70.001" y="25" width="21" height="4" rx="2" fill="#DDE1E8"/>
<rect x="70.001" y="34" width="9" height="4" rx="2" fill="#DDE1E8"/>
<rect x="70.001" y="16" width="21" height="4" rx="2" fill="#DDE1E8"/>
<path fill-rule="evenodd" clip-rule="evenodd" d="M38.8325 30.6659C32.8497 30.6659 27.9996 25.8158 27.9996 19.8329C27.9996 13.8501 32.8497 9 38.8325 9C44.8154 9 49.6655 13.8501 49.6655 19.8329C49.6655 21.5384 49.2713 23.1519 48.5692 24.5872L50.3269 27.7433C50.7517 28.5061 50.0634 29.4088 49.2153 29.2011L45.5775 28.3103C43.7269 29.7847 41.3826 30.6659 38.8325 30.6659Z" fill="#F3F6FC"/>
<path d="M48.5692 24.5872L47.6955 25.0737L47.4413 24.6171L47.6709 24.1477L48.5692 24.5872ZM50.3269 27.7433L49.4532 28.2298H49.4532L50.3269 27.7433ZM49.2153 29.2011L49.4532 28.2298H49.4532L49.2153 29.2011ZM45.5775 28.3103L44.9544 27.5282L45.3385 27.2222L45.8154 27.339L45.5775 28.3103ZM28.9996 19.8329C28.9996 25.2635 33.4019 29.6659 38.8325 29.6659V31.6659C32.2974 31.6659 26.9996 26.3681 26.9996 19.8329H28.9996ZM38.8325 10C33.4019 10 28.9996 14.4024 28.9996 19.8329H26.9996C26.9996 13.2978 32.2974 8 38.8325 8V10ZM48.6655 19.8329C48.6655 14.4024 44.2631 10 38.8325 10V8C45.3677 8 50.6655 13.2978 50.6655 19.8329H48.6655ZM47.6709 24.1477C48.3076 22.8463 48.6655 21.3828 48.6655 19.8329H50.6655C50.6655 21.6941 50.2351 23.4575 49.4675 25.0266L47.6709 24.1477ZM49.4532 28.2298L47.6955 25.0737L49.4429 24.1006L51.2005 27.2568L49.4532 28.2298ZM49.4532 28.2298H49.4532L51.2005 27.2568C52.0501 28.7824 50.6736 30.5878 48.9775 30.1724L49.4532 28.2298ZM45.8154 27.339L49.4532 28.2298L48.9775 30.1724L45.3397 29.2816L45.8154 27.339ZM38.8325 29.6659C41.1482 29.6659 43.2745 28.8666 44.9544 27.5282L46.2007 29.0924C44.1793 30.7028 41.617 31.6659 38.8325 31.6659V29.6659Z" fill="#DDE1E8"/>
</svg>
