<svg width="38" height="22" viewBox="0 0 38 22" fill="none" xmlns="http://www.w3.org/2000/svg">
<rect x="0.5" y="0.5" width="37" height="21" rx="10.5" fill="white" stroke="#D9DFE9"/>
<path d="M10.25 13.74V11.82H12.88V10.76H7.73V8.34H12.81V7.28H6.4V11.82H8.93V13.74H5.43V14.82H13.77V13.74H10.25ZM19.3492 13.77V12.4H22.1392V11.34H16.7992V10.31H21.9292V7.24H15.4792V8.29H20.6292V9.28H15.4892V12.4H18.0292V13.77H14.5292V14.85H22.8692V13.77H19.3492ZM27.0584 10.51H25.3084V8.36H27.0584V10.51ZM30.0084 9.03V9.82H28.3484V9.03H30.0084ZM28.3484 10.87H30.0084V12.05H31.3284V6.65H30.0084V7.98H28.3484V7.31H24.0084V11.55H28.3484V10.87ZM28.2084 14.85C27.0084 14.85 26.3784 14.6 26.3784 14.07C26.3784 13.54 27.0084 13.29 28.2084 13.29C29.4184 13.29 30.0484 13.54 30.0484 14.07C30.0484 14.6 29.4184 14.85 28.2084 14.85ZM28.2084 12.28C26.2584 12.28 25.0584 12.94 25.0584 14.07C25.0584 15.2 26.2584 15.86 28.2084 15.86C30.1684 15.86 31.3684 15.2 31.3684 14.07C31.3684 12.94 30.1684 12.28 28.2084 12.28Z" fill="#A2ACC0"/>
</svg>
