<svg width="38" height="22" viewBox="0 0 38 22" fill="none" xmlns="http://www.w3.org/2000/svg">
<rect x="0.5" y="0.5" width="37" height="21" rx="10.5" fill="white" stroke="#D9DFE9"/>
<path d="M8.99 8.62H10.89V7.53H5.73V8.62H7.65V9.13C7.65 10.7 6.9 12.39 5.36 13.08L6.11 14.13C7.19 13.64 7.93 12.63 8.34 11.43C8.75 12.54 9.48 13.44 10.55 13.9L11.27 12.86C9.73 12.22 8.99 10.63 8.99 9.13V8.62ZM11.74 6.65V15.86H13.06V6.65H11.74ZM26.6417 10.97H24.8917V9.67H26.6417V10.97ZM27.9317 10.16H29.5717V13.45H30.8917V6.66H29.5717V9.1H27.9317V7.27H26.6417V8.66H24.8917V7.26H23.5817V12.02H27.9317V10.16ZM26.1317 14.65V12.79H24.8117V15.7H31.0917V14.65H26.1317Z" fill="#A2ACC0"/>
</svg>
