<svg width="20" height="20" viewBox="0 0 20 20" fill="none" xmlns="http://www.w3.org/2000/svg">
<circle cx="10" cy="10" r="8" stroke="white" stroke-width="2"/>
<mask id="path-2-inside-1_6674_8544" fill="white">
<path fill-rule="evenodd" clip-rule="evenodd" d="M10 18.9999C12.471 17.6899 14.2413 14.155 14.2413 9.99997C14.2413 5.84489 12.471 2.31005 10 1C7.52901 2.31005 5.75867 5.84489 5.75867 9.99997C5.75867 14.155 7.52902 17.6899 10 18.9999Z"/>
</mask>
<path d="M10 18.9999L9.06317 20.767L10 21.2636L10.9368 20.767L10 18.9999ZM10 1L10.9368 -0.767019L10 -1.2637L9.06317 -0.767019L10 1ZM12.2413 9.99997C12.2413 13.7312 10.641 16.3964 9.06317 17.2329L10.9368 20.767C14.3009 18.9834 16.2413 14.5788 16.2413 9.99997H12.2413ZM9.06317 2.76702C10.641 3.60356 12.2413 6.2687 12.2413 9.99997H16.2413C16.2413 5.42109 14.3009 1.01653 10.9368 -0.767019L9.06317 2.76702ZM7.75867 9.99997C7.75867 6.2687 9.35895 3.60356 10.9368 2.76702L9.06317 -0.767019C5.69908 1.01653 3.75867 5.42109 3.75867 9.99997H7.75867ZM10.9368 17.2329C9.35895 16.3964 7.75867 13.7312 7.75867 9.99997H3.75867C3.75867 14.5788 5.69908 18.9834 9.06317 20.767L10.9368 17.2329Z" fill="white" mask="url(#path-2-inside-1_6674_8544)"/>
<path d="M4 14L16 14" stroke="white"/>
<path d="M4 6L16 6" stroke="white"/>
<path d="M3 10L17 10" stroke="white"/>
</svg>
