<svg width="40" height="40" viewBox="0 0 40 40" fill="none" xmlns="http://www.w3.org/2000/svg">
<path fill-rule="evenodd" clip-rule="evenodd" d="M12.5922 22.6129L9.90633 23.9894C7.36456 25.292 7.36456 28.9542 9.90633 30.2568L18.4205 34.6202C19.4126 35.1286 20.5857 35.1286 21.5778 34.6202L30.092 30.2568C32.6337 28.9542 32.6337 25.292 30.092 23.9894L27.4061 22.6129L24.1089 24.3026L28.7389 26.6754C29.102 26.8615 29.102 27.3847 28.7389 27.5708L20.2247 31.9341C20.0829 32.0068 19.9154 32.0068 19.7736 31.9341L11.2594 27.5708C10.8963 27.3847 10.8963 26.8615 11.2594 26.6754L15.8894 24.3026L12.5922 22.6129Z" fill="white"/>
<path d="M19.4282 6.13781C19.7867 5.95406 20.2107 5.95406 20.5693 6.13781L30.6991 11.3292C31.6178 11.8 31.6178 13.1236 30.6991 13.5944L20.5693 18.7857C20.2107 18.9695 19.7867 18.9695 19.4282 18.7857L9.29837 13.5944C8.37971 13.1236 8.37971 11.8 9.29837 11.3292L19.4282 6.13781Z" stroke="white" stroke-width="3" stroke-linejoin="round"/>
<path fill-rule="evenodd" clip-rule="evenodd" d="M12.5921 15.2822L9.90633 16.6587C7.36456 17.9613 7.36456 21.6234 9.90633 22.9261L18.4205 27.2894C19.4126 27.7979 20.5857 27.7979 21.5778 27.2894L30.092 22.9261C32.6337 21.6235 32.6337 17.9613 30.092 16.6587L27.4059 15.2821L24.1087 16.9718L28.7389 19.3447C29.102 19.5308 29.102 20.0539 28.7389 20.24L20.2247 24.6034C20.0829 24.6761 19.9154 24.6761 19.7736 24.6034L11.2594 20.24C10.8963 20.054 10.8963 19.5308 11.2594 19.3447L15.8893 16.972L12.5921 15.2822Z" fill="white"/>
</svg>
