<svg width="35" height="26" viewBox="0 0 35 26" fill="none" xmlns="http://www.w3.org/2000/svg">
<mask id="mask0_1238_827" style="mask-type:alpha" maskUnits="userSpaceOnUse" x="0" y="0" width="35" height="26">
<rect width="35" height="26" fill="#C4C4C4"/>
</mask>
<g mask="url(#mask0_1238_827)">
<path d="M13.6651 7.03774L13.297 6.10796L13.6651 7.03774ZM11.7632 7.06821L11.2041 7.89728L11.7632 7.06821ZM10.4925 6.21121L9.93335 7.04028L10.4925 6.21121ZM7.07113 11.7603L6.24205 12.3195L7.07113 11.7603ZM5.86143 14.68L6.0523 15.6616L5.86143 14.68ZM7.04067 13.6622L6.11089 13.2941L7.04067 13.6622ZM4.35725 14.9725L4.16638 13.9909L4.35725 14.9725ZM4.35725 21.023L4.54812 20.0414L4.35725 21.023ZM5.86143 21.3155L6.0523 20.3339L5.86143 21.3155ZM7.07117 24.2353L7.90024 24.7945L7.07117 24.2353ZM7.18488 22.6811L6.26741 23.0789L7.18488 22.6811ZM6.39719 27.4053L5.69008 28.1124L6.39719 27.4053ZM6.21424 25.5059L5.38517 24.9468L6.21424 25.5059ZM10.4926 29.7843L9.93347 28.9552L10.4926 29.7843ZM8.59324 29.6014L9.30035 28.8943L8.59324 29.6014ZM13.3175 28.8136L13.7153 27.8962L13.3175 28.8136ZM11.7633 28.9273L12.3224 29.7564L11.7633 28.9273ZM14.683 30.137L13.7013 30.3279L14.683 30.137ZM13.6651 28.9578L14.0332 28.028L13.6651 28.9578ZM14.9754 31.6412L15.957 31.4503L14.9754 31.6412ZM21.026 31.6412L20.0444 31.4503L21.026 31.6412ZM22.3363 28.9578L22.7044 29.8876L22.3363 28.9578ZM21.3184 30.137L20.3368 29.9462L21.3184 30.137ZM24.2381 28.9273L24.7973 28.0983L24.2381 28.9273ZM22.684 28.8136L23.0818 29.7311L22.684 28.8136ZM25.5089 29.7843L24.9497 30.6134L25.5089 29.7843ZM29.7872 25.506L28.9582 26.0651L29.7872 25.506ZM28.9303 24.2352L28.1012 24.7944L28.9303 24.2352ZM30.14 21.3155L30.3308 22.2971L30.14 21.3155ZM28.9607 22.3333L29.8905 22.7014L28.9607 22.3333ZM31.6441 21.023L31.835 22.0047L31.6441 21.023ZM31.6441 14.9725L31.835 13.9909L31.6441 14.9725ZM28.9607 13.6622L28.0309 14.0303L28.9607 13.6622ZM28.9302 11.7602L28.1012 11.2011L28.9302 11.7602ZM29.6044 8.58993L28.8973 9.29704L29.6044 8.58993ZM29.7874 10.4893L28.9583 9.93017L29.7874 10.4893ZM25.509 6.21093L24.9499 5.38186L25.509 6.21093ZM27.4084 6.39388L28.1155 5.68677L27.4084 6.39388ZM21.3184 5.8585L20.3368 6.04937L21.3184 5.8585ZM14.9754 4.35432L13.9938 4.16345L14.9754 4.35432ZM21.026 4.35432L20.0444 4.54519L21.026 4.35432ZM19.5535 2.14062H16.4479V4.14062H19.5535V2.14062ZM22.3001 5.66763L22.0076 4.16345L20.0444 4.54519L20.3368 6.04937L22.3001 5.66763ZM23.0816 6.26437C22.9569 6.2103 22.8311 6.15815 22.7044 6.10796L21.9681 7.96753C22.0749 8.00981 22.1809 8.05375 22.286 8.09932L23.0816 6.26437ZM24.9499 5.38186L23.6788 6.23906L24.7971 7.8972L26.0681 7.04L24.9499 5.38186ZM30.3115 7.88283L28.1155 5.68677L26.7013 7.10099L28.8973 9.29704L30.3115 7.88283ZM29.7593 12.3194L30.6164 11.0484L28.9583 9.93017L28.1012 11.2011L29.7593 12.3194ZM29.8905 13.2941C29.8403 13.1673 29.7881 13.0414 29.734 12.9166L27.8991 13.7123C27.9447 13.8174 27.9886 13.9235 28.0309 14.0303L29.8905 13.2941ZM31.835 13.9909L30.3308 13.6984L29.9491 15.6616L31.4533 15.9541L31.835 13.9909ZM33.8578 19.5506V16.4449H31.8578V19.5506H33.8578ZM30.3308 22.2971L31.835 22.0047L31.4533 20.0414L29.9491 20.3339L30.3308 22.2971ZM29.734 23.0789C29.7881 22.9541 29.8403 22.8283 29.8905 22.7014L28.0309 21.9652C27.9886 22.0721 27.9447 22.1781 27.8991 22.2832L29.734 23.0789ZM30.6163 24.9468L29.7593 23.6761L28.1012 24.7944L28.9582 26.0651L30.6163 24.9468ZM28.1153 30.3085L30.3114 28.1124L28.8972 26.6982L26.7011 28.8943L28.1153 30.3085ZM23.679 29.7564L24.9497 30.6134L26.068 28.9553L24.7973 28.0983L23.679 29.7564ZM22.7044 29.8876C22.8312 29.8374 22.957 29.7852 23.0818 29.7311L22.2862 27.8962C22.181 27.9417 22.075 27.9857 21.9681 28.028L22.7044 29.8876ZM22.0076 31.8321L22.3001 30.3279L20.3368 29.9462L20.0444 31.4503L22.0076 31.8321ZM16.4479 33.8549H19.5535V31.8549H16.4479V33.8549ZM13.7013 30.3279L13.9938 31.8321L15.957 31.4503L15.6646 29.9462L13.7013 30.3279ZM12.9197 29.7311C13.0444 29.7852 13.1702 29.8374 13.297 29.8876L14.0332 28.028C13.9264 27.9857 13.8204 27.9418 13.7153 27.8962L12.9197 29.7311ZM11.0518 30.6134L12.3224 29.7564L11.2041 28.0983L9.93347 28.9552L11.0518 30.6134ZM5.69008 28.1124L7.88613 30.3085L9.30035 28.8943L7.10429 26.6982L5.69008 28.1124ZM6.2421 23.6762L5.38517 24.9468L7.04331 26.0651L7.90024 24.7945L6.2421 23.6762ZM6.11089 22.7014C6.16111 22.8283 6.21329 22.9541 6.26741 23.0789L8.10234 22.2833C8.05674 22.1781 8.01277 22.0721 7.97046 21.9652L6.11089 22.7014ZM4.16638 22.0047L5.67056 22.2971L6.0523 20.3339L4.54812 20.0414L4.16638 22.0047ZM2.14355 16.4449V19.5506H4.14355V16.4449H2.14355ZM5.67056 13.6984L4.16638 13.9909L4.54812 15.9541L6.0523 15.6616L5.67056 13.6984ZM6.26737 12.9167C6.21327 13.0415 6.1611 13.1673 6.11089 13.2941L7.97046 14.0303C8.01276 13.9235 8.05672 13.8175 8.10231 13.7123L6.26737 12.9167ZM5.38504 11.0487L6.24205 12.3195L7.9002 11.2012L7.04318 9.93044L5.38504 11.0487ZM7.88601 5.68705L5.68995 7.8831L7.10417 9.29732L9.30022 7.10126L7.88601 5.68705ZM12.3224 6.23914L11.0516 5.38214L9.93335 7.04028L11.2041 7.89728L12.3224 6.23914ZM13.297 6.10796C13.1702 6.15817 13.0444 6.21035 12.9196 6.26445L13.7152 8.09939C13.8204 8.05379 13.9264 8.00983 14.0332 7.96753L13.297 6.10796ZM13.9938 4.16345L13.7013 5.66763L15.6646 6.04937L15.957 4.54519L13.9938 4.16345ZM23.3684 17.9976C23.3684 20.9619 20.9653 23.3649 18.001 23.3649V25.3649C22.0699 25.3649 25.3684 22.0664 25.3684 17.9976H23.3684ZM18.001 12.6302C20.9653 12.6302 23.3684 15.0333 23.3684 17.9976H25.3684C25.3684 13.9287 22.0699 10.6302 18.001 10.6302V12.6302ZM12.6337 17.9976C12.6337 15.0333 15.0367 12.6302 18.001 12.6302V10.6302C13.9321 10.6302 10.6337 13.9287 10.6337 17.9976H12.6337ZM18.001 23.3649C15.0367 23.3649 12.6337 20.9619 12.6337 17.9976H10.6337C10.6337 22.0664 13.9321 25.3649 18.001 25.3649V23.3649ZM14.0332 7.96753C14.8241 7.65443 15.4861 6.96711 15.6646 6.04937L13.7013 5.66763C13.6688 5.83502 13.534 6.01413 13.297 6.10796L14.0332 7.96753ZM11.2041 7.89728C11.9796 8.42029 12.9343 8.43799 13.7152 8.09939L12.9196 6.26445C12.6858 6.36583 12.4638 6.33454 12.3224 6.23914L11.2041 7.89728ZM9.30022 7.10126C9.46946 6.93202 9.73491 6.90645 9.93335 7.04028L11.0516 5.38214C10.0595 4.71299 8.73222 4.84083 7.88601 5.68705L9.30022 7.10126ZM7.04318 9.93044C6.90936 9.73201 6.93492 9.46656 7.10417 9.29732L5.68995 7.8831C4.84374 8.72932 4.7159 10.0565 5.38504 11.0487L7.04318 9.93044ZM8.10231 13.7123C8.4409 12.9314 8.4232 11.9767 7.9002 11.2012L6.24205 12.3195C6.33745 12.4609 6.36874 12.6829 6.26737 12.9167L8.10231 13.7123ZM6.0523 15.6616C6.97004 15.4832 7.65736 14.8212 7.97046 14.0303L6.11089 13.2941C6.01706 13.5311 5.83795 13.6659 5.67056 13.6984L6.0523 15.6616ZM4.14355 16.4449C4.14355 16.2056 4.31317 15.9998 4.54812 15.9541L4.16638 13.9909C2.99165 14.2193 2.14355 15.2482 2.14355 16.4449H4.14355ZM4.54812 20.0414C4.31317 19.9957 4.14355 19.79 4.14355 19.5506H2.14355C2.14355 20.7473 2.99165 21.7762 4.16638 22.0047L4.54812 20.0414ZM7.97046 21.9652C7.65736 21.1744 6.97004 20.5123 6.0523 20.3339L5.67056 22.2971C5.83795 22.3297 6.01706 22.4644 6.11089 22.7014L7.97046 21.9652ZM7.90024 24.7945C8.42325 24.019 8.44095 23.0642 8.10234 22.2833L6.26741 23.0789C6.36879 23.3127 6.3375 23.5347 6.2421 23.6762L7.90024 24.7945ZM7.10429 26.6982C6.93505 26.529 6.90948 26.2635 7.04331 26.0651L5.38517 24.9468C4.71602 25.939 4.84386 27.2662 5.69008 28.1124L7.10429 26.6982ZM9.93347 28.9552C9.73504 29.0891 9.46959 29.0635 9.30035 28.8943L7.88613 30.3085C8.73235 31.1547 10.0596 31.2825 11.0518 30.6134L9.93347 28.9552ZM13.7153 27.8962C12.9344 27.5576 11.9796 27.5753 11.2041 28.0983L12.3224 29.7564C12.4639 29.661 12.6859 29.6297 12.9197 29.7311L13.7153 27.8962ZM15.6646 29.9462C15.4861 29.0284 14.8241 28.3411 14.0332 28.028L13.297 29.8876C13.534 29.9814 13.6688 30.1605 13.7013 30.3279L15.6646 29.9462ZM16.4479 31.8549C16.2085 31.8549 16.0027 31.6853 15.957 31.4503L13.9938 31.8321C14.2222 33.0068 15.2511 33.8549 16.4479 33.8549V31.8549ZM20.0444 31.4503C19.9987 31.6853 19.7929 31.8549 19.5535 31.8549V33.8549C20.7503 33.8549 21.7792 33.0068 22.0076 31.8321L20.0444 31.4503ZM21.9681 28.028C21.1773 28.3411 20.5153 29.0284 20.3368 29.9462L22.3001 30.3279C22.3326 30.1605 22.4674 29.9814 22.7044 29.8876L21.9681 28.028ZM24.7973 28.0983C24.0218 27.5753 23.0671 27.5576 22.2862 27.8962L23.0818 29.7311C23.3156 29.6297 23.5375 29.661 23.679 29.7564L24.7973 28.0983ZM26.7011 28.8943C26.5319 29.0635 26.2664 29.0891 26.068 28.9553L24.9497 30.6134C25.9419 31.2825 27.2691 31.1547 28.1153 30.3085L26.7011 28.8943ZM28.9582 26.0651C29.092 26.2635 29.0664 26.529 28.8972 26.6982L30.3114 28.1124C31.1576 27.2662 31.2855 25.939 30.6163 24.9468L28.9582 26.0651ZM27.8991 22.2832C27.5605 23.0642 27.5782 24.0189 28.1012 24.7944L29.7593 23.6761C29.6639 23.5346 29.6326 23.3127 29.734 23.0789L27.8991 22.2832ZM29.9491 20.3339C29.0314 20.5123 28.344 21.1744 28.0309 21.9652L29.8905 22.7014C29.9843 22.4644 30.1634 22.3297 30.3308 22.2971L29.9491 20.3339ZM31.8578 19.5506C31.8578 19.79 31.6882 19.9957 31.4533 20.0414L31.835 22.0047C33.0097 21.7762 33.8578 20.7473 33.8578 19.5506H31.8578ZM31.4533 15.9541C31.6882 15.9998 31.8578 16.2056 31.8578 16.4449H33.8578C33.8578 15.2482 33.0097 14.2193 31.835 13.9909L31.4533 15.9541ZM28.0309 14.0303C28.344 14.8212 29.0314 15.4832 29.9491 15.6616L30.3308 13.6984C30.1634 13.6659 29.9843 13.5311 29.8905 13.2941L28.0309 14.0303ZM28.1012 11.2011C27.5781 11.9766 27.5605 12.9313 27.8991 13.7123L29.734 12.9166C29.6326 12.6828 29.6639 12.4608 29.7593 12.3194L28.1012 11.2011ZM28.8973 9.29704C29.0666 9.46628 29.0921 9.73173 28.9583 9.93017L30.6164 11.0484C31.2856 10.0563 31.1577 8.72904 30.3115 7.88283L28.8973 9.29704ZM26.0681 7.04C26.2666 6.90618 26.532 6.93174 26.7013 7.10099L28.1155 5.68677C27.2693 4.84056 25.942 4.71272 24.9499 5.38186L26.0681 7.04ZM22.286 8.09932C23.0669 8.4379 24.0216 8.4202 24.7971 7.8972L23.6788 6.23906C23.5374 6.33446 23.3154 6.36574 23.0816 6.26437L22.286 8.09932ZM20.3368 6.04937C20.5153 6.96711 21.1773 7.65443 21.9681 7.96753L22.7044 6.10796C22.4674 6.01413 22.3326 5.83502 22.3001 5.66763L20.3368 6.04937ZM16.4479 2.14062C15.2511 2.14062 14.2222 2.98872 13.9938 4.16345L15.957 4.54519C16.0027 4.31024 16.2085 4.14062 16.4479 4.14062V2.14062ZM19.5535 4.14062C19.7929 4.14062 19.9987 4.31024 20.0444 4.54519L22.0076 4.16345C21.7792 2.98872 20.7503 2.14062 19.5535 2.14062V4.14062Z" fill="white"/>
</g>
</svg>
