<svg width="35" height="26" viewBox="0 0 35 26" fill="none" xmlns="http://www.w3.org/2000/svg">
<mask id="mask0_7007_7601" style="mask-type:alpha" maskUnits="userSpaceOnUse" x="0" y="0" width="35" height="26">
<rect width="35" height="26" fill="#C4C4C4"/>
</mask>
<g mask="url(#mask0_7007_7601)">
<path d="M26.5 18.3926V31.1426C26.5 32.4838 25.4127 33.5712 24.0714 33.5712H11.9286C10.5873 33.5712 9.5 32.4838 9.5 31.1426V29.9283" stroke="white" stroke-width="2.42857"/>
<path d="M22.8564 18.3937V27.5008C22.8564 28.8421 21.7691 29.9294 20.4279 29.9294H8.28502C6.94375 29.9294 5.85645 28.8421 5.85645 27.5008V10.5008C5.85645 9.15958 6.94375 8.07227 8.28502 8.07227H14.3564H18.6064" stroke="white" stroke-width="2.42857"/>
<rect x="9.5" y="12.9297" width="9.71429" height="2.42857" rx="1.21429" fill="white"/>
<rect x="9.5" y="17.7871" width="9.71429" height="2.42857" rx="1.21429" fill="white"/>
<rect x="9.5" y="22.6426" width="4.85714" height="2.42857" rx="1.21429" fill="white"/>
<mask id="path-7-outside-1_7007_7601" maskUnits="userSpaceOnUse" x="16.5449" y="1.42969" width="16" height="20" fill="black">
<rect fill="white" x="16.5449" y="1.42969" width="16" height="20"/>
<path fill-rule="evenodd" clip-rule="evenodd" d="M28.598 11.1327C29.6546 11.1327 30.2071 9.87672 29.4932 9.09787L25.575 4.82346C25.0937 4.29844 24.266 4.29843 23.7848 4.82344L19.8665 9.09786C19.1525 9.8767 19.705 11.1327 20.7616 11.1327H21.6436C22.3142 11.1327 22.8579 11.6763 22.8579 12.347V17.2008C22.8579 17.8714 23.4015 18.4151 24.0721 18.4151H25.2864C25.9571 18.4151 26.5007 17.8714 26.5007 17.2008V12.347C26.5007 11.6763 27.0444 11.1327 27.715 11.1327H28.598Z"/>
</mask>
<path d="M19.8665 9.09786L18.0763 7.4568L19.8665 9.09786ZM29.4932 9.09787L27.7029 10.7389L29.4932 9.09787ZM23.7847 6.46449L27.7029 10.7389L31.2834 7.45684L27.3652 3.18242L23.7847 6.46449ZM21.6567 10.7389L25.575 6.4645L21.9945 3.18239L18.0763 7.4568L21.6567 10.7389ZM21.6436 8.7041H20.7616V13.5612H21.6436V8.7041ZM25.2864 17.2008V12.347H20.4293V17.2008H25.2864ZM25.2864 15.9865H24.0721V20.8436H25.2864V15.9865ZM24.0721 12.347V17.2008H28.9293V12.347H24.0721ZM28.598 8.7041H27.715V13.5612H28.598V8.7041ZM28.9293 12.347C28.9293 13.0176 28.3856 13.5612 27.715 13.5612V8.7041C25.7031 8.7041 24.0721 10.3351 24.0721 12.347H28.9293ZM25.2864 20.8436C27.2983 20.8436 28.9293 19.2127 28.9293 17.2008H24.0721C24.0721 16.5301 24.6158 15.9865 25.2864 15.9865V20.8436ZM20.4293 17.2008C20.4293 19.2127 22.0602 20.8436 24.0721 20.8436V15.9865C24.7428 15.9865 25.2864 16.5301 25.2864 17.2008H20.4293ZM21.6436 13.5612C20.9729 13.5612 20.4293 13.0176 20.4293 12.347H25.2864C25.2864 10.3351 23.6555 8.7041 21.6436 8.7041V13.5612ZM18.0763 7.4568C15.9344 9.79334 17.5919 13.5612 20.7616 13.5612V8.7041C21.8182 8.7041 22.3707 9.96007 21.6567 10.7389L18.0763 7.4568ZM27.7029 10.7389C26.989 9.96006 27.5415 8.7041 28.598 8.7041V13.5612C31.7677 13.5612 33.4252 9.79338 31.2834 7.45684L27.7029 10.7389ZM27.3652 3.18242C25.9214 1.60736 23.4383 1.60734 21.9945 3.18239L25.575 6.4645C25.0937 6.98952 24.266 6.98951 23.7847 6.46449L27.3652 3.18242Z" fill="white" mask="url(#path-7-outside-1_7007_7601)"/>
</g>
</svg>
