<svg width="40" height="40" viewBox="0 0 40 40" fill="none" xmlns="http://www.w3.org/2000/svg">
<path d="M25.4848 13.1169C25.789 12.961 26.1488 12.961 26.453 13.1169L35.048 17.5217C35.8275 17.9212 35.8275 19.0443 35.048 19.4437L26.453 23.8485C26.1488 24.0044 25.789 24.0044 25.4848 23.8485L16.8898 19.4437C16.1103 19.0443 16.1103 17.9212 16.8898 17.5217L25.4848 13.1169Z" stroke="#BEC4CF" stroke-width="3" stroke-linejoin="round"/>
<path d="M16.4395 20.3828C16.4395 20.0169 16.8194 19.775 17.1509 19.9297L25.8782 24.0024C26.0542 24.0845 26.1667 24.2612 26.1667 24.4555V37.8595C26.1667 38.2254 25.7868 38.4673 25.4553 38.3126L16.728 34.2399C16.552 34.1578 16.4395 33.9811 16.4395 33.7868V20.3828Z" stroke="#BEC4CF" stroke-width="3" stroke-linejoin="round"/>
<path d="M34.7518 19.4062C35.0851 19.2158 35.4999 19.4564 35.4999 19.8404V33.0515C35.4999 33.231 35.4037 33.3966 35.248 33.4857L27.3692 37.9878C27.0358 38.1783 26.6211 37.9376 26.6211 37.5537V24.3425C26.6211 24.1631 26.7172 23.9974 26.873 23.9084L34.7518 19.4062Z" stroke="#BEC4CF" stroke-width="3" stroke-linejoin="round"/>
<path d="M8.69231 12L9.64654 11.1926C9.40904 10.9119 9.06 10.75 8.69231 10.75V12ZM12.5 16.5L11.5458 17.3074C11.8622 17.6813 12.3678 17.836 12.8392 17.7031C13.3106 17.5702 13.661 17.1742 13.7355 16.6901L12.5 16.5ZM13.1923 12V10.75C12.5753 10.75 12.0507 11.2001 11.9568 11.8099L13.1923 12ZM5.25 4C5.25 3.58579 5.58579 3.25 6 3.25V0.75C4.20507 0.75 2.75 2.20507 2.75 4H5.25ZM5.25 10V4H2.75V10H5.25ZM6 10.75C5.58579 10.75 5.25 10.4142 5.25 10H2.75C2.75 11.7949 4.20507 13.25 6 13.25V10.75ZM8.69231 10.75H6V13.25H8.69231V10.75ZM13.4542 15.6926L9.64654 11.1926L7.73807 12.8074L11.5458 17.3074L13.4542 15.6926ZM11.9568 11.8099L11.2645 16.3099L13.7355 16.6901L14.4278 12.1901L11.9568 11.8099ZM17 10.75H13.1923V13.25H17V10.75ZM17.75 10C17.75 10.4142 17.4142 10.75 17 10.75V13.25C18.7949 13.25 20.25 11.7949 20.25 10H17.75ZM17.75 4V10H20.25V4H17.75ZM17 3.25C17.4142 3.25 17.75 3.58579 17.75 4H20.25C20.25 2.20507 18.7949 0.75 17 0.75V3.25ZM6 3.25H17V0.75H6V3.25Z" fill="#BEC4CF"/>
</svg>
