<svg width="36" height="26" viewBox="0 0 36 26" fill="none" xmlns="http://www.w3.org/2000/svg">
<mask id="mask0_7089_8212" style="mask-type:alpha" maskUnits="userSpaceOnUse" x="0" y="0" width="36" height="26">
<rect width="36" height="26" fill="#C4C4C4"/>
</mask>
<g mask="url(#mask0_7089_8212)">
<path d="M22.5316 13.1063C22.8082 12.9646 23.1352 12.9646 23.4118 13.1063L31.2254 17.1107C31.934 17.4738 31.934 18.4948 31.2254 18.8579L23.4118 22.8623C23.1352 23.004 22.8082 23.004 22.5316 22.8623L14.718 18.8579C14.0094 18.4948 14.0094 17.4738 14.718 17.1107L22.5316 13.1063Z" stroke="white" stroke-width="3" stroke-linejoin="round"/>
<path d="M14.4453 19.7129C14.4453 19.4801 14.6871 19.3262 14.898 19.4246L22.8319 23.1271C22.9439 23.1793 23.0155 23.2918 23.0155 23.4154V35.6009C23.0155 35.8337 22.7738 35.9877 22.5628 35.8892L14.6289 32.1867C14.5169 32.1345 14.4453 32.022 14.4453 31.8984V19.7129Z" stroke="white" stroke-width="3" stroke-linejoin="round"/>
<path d="M31.024 18.943C31.2361 18.8218 31.5001 18.975 31.5001 19.2193V31.2294C31.5001 31.3436 31.4389 31.449 31.3397 31.5057L24.1772 35.5986C23.9651 35.7198 23.7012 35.5666 23.7012 35.3223V23.3122C23.7012 23.198 23.7624 23.0926 23.8615 23.0359L31.024 18.943Z" stroke="white" stroke-width="3" stroke-linejoin="round"/>
<path d="M7.26573 12.0909L8.21996 11.2835C7.98245 11.0028 7.63341 10.8409 7.26573 10.8409V12.0909ZM10.7273 16.1818L9.77303 16.9892C10.0894 17.3631 10.595 17.5178 11.0665 17.3849C11.5379 17.252 11.8882 16.856 11.9627 16.3719L10.7273 16.1818ZM11.3566 12.0909V10.8409C10.7397 10.8409 10.215 11.291 10.1212 11.9008L11.3566 12.0909ZM4.25 5C4.25 4.58579 4.58579 4.25 5 4.25V1.75C3.20507 1.75 1.75 3.20508 1.75 5H4.25ZM4.25 10.0909V5H1.75V10.0909H4.25ZM5 10.8409C4.58579 10.8409 4.25 10.5051 4.25 10.0909H1.75C1.75 11.8858 3.20507 13.3409 5 13.3409V10.8409ZM7.26573 10.8409H5V13.3409H7.26573V10.8409ZM11.6815 15.3744L8.21996 11.2835L6.31149 12.8983L9.77303 16.9892L11.6815 15.3744ZM10.1212 11.9008L9.49179 15.9917L11.9627 16.3719L12.5921 12.281L10.1212 11.9008ZM14.6363 10.8409H11.3566V13.3409H14.6363V10.8409ZM15.3863 10.0909C15.3863 10.5051 15.0506 10.8409 14.6363 10.8409V13.3409C16.4313 13.3409 17.8863 11.8858 17.8863 10.0909H15.3863ZM15.3863 5V10.0909H17.8863V5H15.3863ZM14.6363 4.25C15.0506 4.25 15.3863 4.58578 15.3863 5H17.8863C17.8863 3.20508 16.4313 1.75 14.6363 1.75V4.25ZM5 4.25H14.6363V1.75H5V4.25Z" fill="white"/>
</g>
</svg>
