<svg width="28" height="28" viewBox="0 0 28 28" fill="none" xmlns="http://www.w3.org/2000/svg">
<path d="M21 13.5V24C21 25.1046 20.1046 26 19 26H9C7.89543 26 7 25.1046 7 24V23" stroke="white" stroke-width="2"/>
<path d="M18 13.5V21C18 22.1046 17.1046 23 16 23H6C4.89543 23 4 22.1046 4 21V7C4 5.89543 4.89543 5 6 5H11H14.5" stroke="white" stroke-width="2"/>
<rect x="7" y="9" width="8" height="2" rx="1" fill="white"/>
<rect x="7" y="13" width="8" height="2" rx="1" fill="white"/>
<rect x="7" y="17" width="4" height="2" rx="1" fill="white"/>
<mask id="path-6-outside-1_6985_154" maskUnits="userSpaceOnUse" x="12.2715" y="0" width="14" height="16" fill="black">
<rect fill="white" x="12.2715" width="14" height="16"/>
<path fill-rule="evenodd" clip-rule="evenodd" d="M22.727 7.52011C23.5971 7.52011 24.0521 6.48579 23.4641 5.84439L20.2374 2.32428C19.8411 1.89191 19.1595 1.89191 18.7631 2.32427L15.5363 5.84438C14.9483 6.48578 15.4033 7.52011 16.2735 7.52011H17.0002C17.5524 7.52011 18.0002 7.96782 18.0002 8.52011V12.5201C18.0002 13.0724 18.4479 13.5201 19.0002 13.5201H20.0002C20.5524 13.5201 21.0002 13.0724 21.0002 12.5201V8.52011C21.0002 7.96782 21.4479 7.52011 22.0002 7.52011H22.727Z"/>
</mask>
<path d="M23.4641 5.84439L21.9898 7.19583L23.4641 5.84439ZM20.2374 2.32428L18.7631 3.67572L20.2374 2.32428ZM18.7631 3.67572L21.9898 7.19583L24.9385 4.49295L21.7117 0.972841L18.7631 3.67572ZM17.0106 7.19584L20.2374 3.67573L17.2888 0.972812L14.062 4.49292L17.0106 7.19584ZM17.0002 5.52011H16.2735V9.52011H17.0002V5.52011ZM20.0002 12.5201V8.52011H16.0002V12.5201H20.0002ZM20.0002 11.5201H19.0002V15.5201H20.0002V11.5201ZM19.0002 8.52011V12.5201H23.0002V8.52011H19.0002ZM22.727 5.52011H22.0002V9.52011H22.727V5.52011ZM23.0002 8.52011C23.0002 9.07239 22.5524 9.52011 22.0002 9.52011V5.52011C20.3433 5.52011 19.0002 6.86325 19.0002 8.52011H23.0002ZM20.0002 15.5201C21.657 15.5201 23.0002 14.1769 23.0002 12.5201H19.0002C19.0002 11.9678 19.4479 11.5201 20.0002 11.5201V15.5201ZM16.0002 12.5201C16.0002 14.1769 17.3433 15.5201 19.0002 15.5201V11.5201C19.5524 11.5201 20.0002 11.9678 20.0002 12.5201H16.0002ZM17.0002 9.52011C16.4479 9.52011 16.0002 9.07239 16.0002 8.52011H20.0002C20.0002 6.86326 18.657 5.52011 17.0002 5.52011V9.52011ZM14.062 4.49292C12.2981 6.41712 13.6631 9.52011 16.2735 9.52011V5.52011C17.1436 5.52011 17.5986 6.55443 17.0106 7.19584L14.062 4.49292ZM21.9898 7.19583C21.4019 6.55443 21.8569 5.52011 22.727 5.52011V9.52011C25.3373 9.52011 26.7023 6.41715 24.9385 4.49295L21.9898 7.19583ZM21.7117 0.972841C20.5227 -0.324267 18.4778 -0.324283 17.2888 0.972812L20.2374 3.67573C19.8411 4.10809 19.1594 4.10809 18.7631 3.67572L21.7117 0.972841Z" fill="white" mask="url(#path-6-outside-1_6985_154)"/>
</svg>
