<svg width="24" height="24" viewBox="0 0 24 24" fill="none" xmlns="http://www.w3.org/2000/svg">
<path d="M2 10H22L19 16H5L2 10Z" fill="white"/>
<path d="M2 11H4L6 16H4L2 11Z" fill="#44516A"/>
<path d="M16 14H18L20 19H18L16 14Z" fill="#44516A"/>
<path d="M22 11H20L18 16H20L22 11Z" fill="#44516A"/>
<path d="M8 14H6L4 19H6L8 14Z" fill="#44516A"/>
<rect x="4" y="14" width="16" height="2" fill="#44516A"/>
<rect x="2" y="9" width="20" height="2" fill="#44516A"/>
<rect x="4" y="7" width="2" height="2" fill="#44516A"/>
<rect x="18" y="7" width="2" height="2" fill="#44516A"/>
<rect x="15" y="5" width="8" height="2" fill="#44516A"/>
<rect x="1" y="5" width="8" height="2" fill="#44516A"/>
<path d="M10 7H14L15 9H9L10 7Z" fill="#44516A"/>
<rect x="15" y="12" width="3" height="1" fill="#44516A"/>
</svg>
