<svg width="24" height="24" viewBox="0 0 24 24" fill="none" xmlns="http://www.w3.org/2000/svg">
<rect x="5.81714" y="9.18408" width="2" height="16.5667" transform="rotate(-62.2651 5.81714 9.18408)" fill="white"/>
<rect x="4" y="13.6589" width="2" height="17.9872" transform="rotate(-62.2651 4 13.6589)" fill="white"/>
<rect x="3.38574" y="13.3098" width="6.76635" height="2" transform="rotate(-62.2651 3.38574 13.3098)" fill="white"/>
<rect x="8" y="14.4465" width="5.14946" height="2" transform="rotate(-62.2651 8 14.4465)" fill="white"/>
<rect x="19" y="19.4429" width="4.98804" height="2" transform="rotate(-62.2651 19 19.4429)" fill="white"/>
<rect x="2.3772" y="4" width="3.04779" height="2" transform="rotate(43.5228 2.3772 4)" fill="white"/>
<rect x="4" y="14.8889" width="3" height="1" transform="rotate(90 4 14.8889)" fill="white"/>
<rect x="7" y="18.8889" width="3" height="1" transform="rotate(90 7 18.8889)" fill="white"/>
<rect x="20" y="9" width="3" height="1" transform="rotate(90 20 9)" fill="white"/>
<rect x="5" y="16.8889" width="3" height="1" transform="rotate(-180 5 16.8889)" fill="white"/>
<rect x="8" y="20.8889" width="3" height="1" transform="rotate(-180 8 20.8889)" fill="white"/>
<rect x="21" y="11" width="3" height="1" transform="rotate(-180 21 11)" fill="white"/>
<rect x="6.99365" y="1.99756" width="3.15248" height="2" transform="rotate(87.3138 6.99365 1.99756)" fill="white"/>
<rect x="11.5132" y="4.53296" width="2.9077" height="2" transform="rotate(140.031 11.5132 4.53296)" fill="white"/>
</svg>
