<svg width="20" height="20" viewBox="0 0 20 20" fill="none" xmlns="http://www.w3.org/2000/svg">
<mask id="path-1-inside-1_891_10817" fill="white">
<path d="M18.1617 16.5097C18.5367 17.1763 18.055 18 17.2902 18H2.70985C1.94502 18 1.46331 17.1763 1.83827 16.5097L9.12842 3.54947C9.51073 2.86982 10.4893 2.86982 10.8716 3.54947L18.1617 16.5097Z"/>
</mask>
<path d="M9.12842 3.54947L7.38527 2.56895L9.12842 3.54947ZM18.1617 16.5097L19.9049 15.5292L18.1617 16.5097ZM3.58142 17.4903L10.8716 4.52999L7.38527 2.56895L0.0951208 15.5292L3.58142 17.4903ZM9.12842 4.52999L16.4186 17.4903L19.9049 15.5292L12.6147 2.56895L9.12842 4.52999ZM17.2902 16H2.70985V20H17.2902V16ZM10.8716 4.52999C10.4893 5.20964 9.51073 5.20965 9.12842 4.52999L12.6147 2.56895C11.4678 0.529983 8.53218 0.53 7.38527 2.56895L10.8716 4.52999ZM0.0951208 15.5292C-1.02977 17.529 0.415361 20 2.70985 20V16C3.47468 16 3.95639 16.8237 3.58142 17.4903L0.0951208 15.5292ZM16.4186 17.4903C16.0436 16.8237 16.5253 16 17.2902 16V20C19.5846 20 21.0298 17.529 19.9049 15.5292L16.4186 17.4903Z" fill="white" mask="url(#path-1-inside-1_891_10817)"/>
</svg>
