<svg width="20" height="20" viewBox="0 0 20 20" fill="none" xmlns="http://www.w3.org/2000/svg">
<mask id="path-1-inside-1_891_10779" fill="white">
<path fill-rule="evenodd" clip-rule="evenodd" d="M8 0C7.44772 0 7 0.447715 7 1V7L1 7C0.447715 7 0 7.44771 0 8V12C0 12.5523 0.447715 13 1 13H7V19C7 19.5523 7.44772 20 8 20H12C12.5523 20 13 19.5523 13 19V13H19C19.5523 13 20 12.5523 20 12V8C20 7.44772 19.5523 7 19 7L13 7V1C13 0.447715 12.5523 0 12 0H8Z"/>
</mask>
<path d="M7 7V9L9 9V7H7ZM1 7L1 5H1V7ZM7 13H9V11H7V13ZM13 13V11H11V13H13ZM19 7V9V7ZM13 7H11V9H13V7ZM9 1C9 1.55228 8.55229 2 8 2V-2C6.34315 -2 5 -0.656853 5 1H9ZM9 7V1H5V7H9ZM1 9H7V5L1 5L1 9ZM2 8C2 8.55228 1.55229 9 1 9V5C-0.656855 5 -2 6.34315 -2 8H2ZM2 12V8H-2V12H2ZM1 11C1.55228 11 2 11.4477 2 12H-2C-2 13.6569 -0.656854 15 1 15V11ZM7 11H1V15H7V11ZM9 19V13H5V19H9ZM8 18C8.55229 18 9 18.4477 9 19H5C5 20.6569 6.34315 22 8 22V18ZM12 18H8V22H12V18ZM11 19C11 18.4477 11.4477 18 12 18V22C13.6569 22 15 20.6569 15 19H11ZM11 13V19H15V13H11ZM19 11H13V15H19V11ZM18 12C18 11.4477 18.4477 11 19 11V15C20.6569 15 22 13.6569 22 12H18ZM18 8V12H22V8H18ZM19 9C18.4477 9 18 8.55229 18 8H22C22 6.34315 20.6569 5 19 5V9ZM13 9L19 9V5L13 5V9ZM11 1V7H15V1H11ZM12 2C11.4477 2 11 1.55229 11 1H15C15 -0.656855 13.6569 -2 12 -2V2ZM8 2H12V-2H8V2Z" fill="#44516A" mask="url(#path-1-inside-1_891_10779)"/>
</svg>
