<svg width="20" height="20" viewBox="0 0 20 20" fill="none" xmlns="http://www.w3.org/2000/svg">
<mask id="path-1-inside-1_891_10786" fill="white">
<path d="M15.7998 1.3003C15.3994 0.899902 14.7502 0.899902 14.3499 1.3003L10 5.65015L5.65015 1.30029C5.24975 0.899902 4.60059 0.899902 4.2002 1.30029L1.30029 4.2002C0.899902 4.60059 0.899902 5.24975 1.30029 5.65015L5.65015 10L1.30029 14.3499C0.899902 14.7502 0.899902 15.3994 1.30029 15.7998L4.2002 18.6997C4.60059 19.1001 5.24975 19.1001 5.65015 18.6997L10 14.3499L14.3499 18.6997C14.7502 19.1001 15.3994 19.1001 15.7998 18.6997L18.6997 15.7998C19.1001 15.3994 19.1001 14.7502 18.6997 14.3499L14.3499 10L18.6997 5.65015C19.1001 5.24975 19.1001 4.60059 18.6997 4.2002L15.7998 1.3003Z"/>
</mask>
<path d="M14.3499 1.3003L12.9356 -0.113918L14.3499 1.3003ZM15.7998 1.3003L14.3856 2.71451V2.71451L15.7998 1.3003ZM10 5.65015L8.58579 7.06436L10 8.47857L11.4142 7.06436L10 5.65015ZM5.65015 1.30029L4.23593 2.71451L5.65015 1.30029ZM4.2002 1.30029L5.61441 2.71451L4.2002 1.30029ZM1.30029 4.2002L-0.113919 2.78598L1.30029 4.2002ZM1.30029 5.65015L2.71451 4.23593V4.23593L1.30029 5.65015ZM5.65015 10L7.06436 11.4142L8.47857 10L7.06436 8.58579L5.65015 10ZM1.30029 14.3499L-0.113919 12.9356L1.30029 14.3499ZM1.30029 15.7998L2.71451 14.3856L1.30029 15.7998ZM4.2002 18.6997L2.78598 20.1139L4.2002 18.6997ZM5.65015 18.6997L7.06436 20.1139H7.06436L5.65015 18.6997ZM10 14.3499L11.4142 12.9356L10 11.5214L8.58579 12.9356L10 14.3499ZM14.3499 18.6997L15.7641 17.2855L14.3499 18.6997ZM15.7998 18.6997L14.3856 17.2855L15.7998 18.6997ZM18.6997 15.7998L20.1139 17.214L18.6997 15.7998ZM18.6997 14.3499L17.2855 15.7641V15.7641L18.6997 14.3499ZM14.3499 10L12.9356 8.58578L11.5214 10L12.9356 11.4142L14.3499 10ZM18.6997 5.65015L20.1139 7.06436L18.6997 5.65015ZM18.6997 4.2002L20.1139 2.78598V2.78598L18.6997 4.2002ZM15.7641 2.71451C15.3834 3.09516 14.7662 3.09516 14.3856 2.71451L17.214 -0.113919C16.0326 -1.29536 14.1171 -1.29536 12.9356 -0.113918L15.7641 2.71451ZM11.4142 7.06436L15.7641 2.71451L12.9356 -0.113918L8.58579 4.23593L11.4142 7.06436ZM4.23593 2.71451L8.58579 7.06436L11.4142 4.23593L7.06436 -0.113919L4.23593 2.71451ZM5.61441 2.71451C5.23376 3.09516 4.61659 3.09516 4.23593 2.71451L7.06436 -0.113919C5.88292 -1.29536 3.96742 -1.29536 2.78598 -0.113919L5.61441 2.71451ZM2.71451 5.61441L5.61441 2.71451L2.78598 -0.113919L-0.113919 2.78598L2.71451 5.61441ZM2.71451 4.23593C3.09516 4.61659 3.09516 5.23375 2.71451 5.61441L-0.113919 2.78598C-1.29536 3.96742 -1.29536 5.88292 -0.113919 7.06436L2.71451 4.23593ZM7.06436 8.58579L2.71451 4.23593L-0.113919 7.06436L4.23593 11.4142L7.06436 8.58579ZM2.71451 15.7641L7.06436 11.4142L4.23593 8.58579L-0.113919 12.9356L2.71451 15.7641ZM2.71451 14.3856C3.09516 14.7662 3.09516 15.3834 2.71451 15.7641L-0.113919 12.9356C-1.29536 14.1171 -1.29536 16.0326 -0.113919 17.214L2.71451 14.3856ZM5.61441 17.2855L2.71451 14.3856L-0.113919 17.214L2.78598 20.1139L5.61441 17.2855ZM4.23593 17.2855C4.61659 16.9048 5.23375 16.9048 5.61441 17.2855L2.78598 20.1139C3.96742 21.2954 5.88292 21.2954 7.06436 20.1139L4.23593 17.2855ZM8.58579 12.9356L4.23593 17.2855L7.06436 20.1139L11.4142 15.7641L8.58579 12.9356ZM15.7641 17.2855L11.4142 12.9356L8.58579 15.7641L12.9356 20.1139L15.7641 17.2855ZM14.3856 17.2855C14.7662 16.9048 15.3834 16.9048 15.7641 17.2855L12.9356 20.1139C14.1171 21.2954 16.0326 21.2954 17.214 20.1139L14.3856 17.2855ZM17.2855 14.3856L14.3856 17.2855L17.214 20.1139L20.1139 17.214L17.2855 14.3856ZM17.2855 15.7641C16.9048 15.3834 16.9048 14.7662 17.2855 14.3856L20.1139 17.214C21.2954 16.0326 21.2954 14.1171 20.1139 12.9356L17.2855 15.7641ZM12.9356 11.4142L17.2855 15.7641L20.1139 12.9356L15.7641 8.58579L12.9356 11.4142ZM17.2855 4.23593L12.9356 8.58578L15.7641 11.4142L20.1139 7.06436L17.2855 4.23593ZM17.2855 5.61441C16.9048 5.23375 16.9048 4.61659 17.2855 4.23593L20.1139 7.06436C21.2954 5.88292 21.2954 3.96742 20.1139 2.78598L17.2855 5.61441ZM14.3856 2.71451L17.2855 5.61441L20.1139 2.78598L17.214 -0.113919L14.3856 2.71451Z" fill="#44516A" mask="url(#path-1-inside-1_891_10786)"/>
</svg>
