<svg width="20" height="20" viewBox="0 0 20 20" fill="none" xmlns="http://www.w3.org/2000/svg">
<mask id="path-1-inside-1_891_10774" fill="white">
<path d="M8.77247 0.808554C9.26515 -0.269518 10.7348 -0.269518 11.2275 0.808554L13.2077 5.1415C13.406 5.57537 13.801 5.87505 14.2575 5.93787L18.8161 6.5653C19.9503 6.72141 20.4044 8.18087 19.5747 9.00327L16.24 12.3086C15.906 12.6396 15.7551 13.1245 15.839 13.5972L16.6762 18.3179C16.8845 19.4924 15.6954 20.3944 14.69 19.8246L10.6488 17.5345C10.2441 17.3052 9.75585 17.3052 9.3512 17.5345L5.31003 19.8246C4.30455 20.3944 3.11555 19.4924 3.32384 18.3179L4.16103 13.5972C4.24486 13.1245 4.09397 12.6396 3.76005 12.3086L0.425284 9.00327C-0.404432 8.18087 0.0497275 6.72141 1.18394 6.5653L5.74252 5.93787C6.19898 5.87505 6.59402 5.57537 6.7923 5.1415L8.77247 0.808554Z"/>
</mask>
<path d="M5.74252 5.93787L5.46981 3.95655L5.74252 5.93787ZM6.7923 5.1415L8.61134 5.97281L6.7923 5.1415ZM0.425284 9.00327L-0.982648 10.4237H-0.982648L0.425284 9.00327ZM1.18394 6.5653L1.45664 8.54663L1.18394 6.5653ZM4.16103 13.5972L6.1303 13.9464L4.16103 13.5972ZM3.76005 12.3086L5.16798 10.8881V10.8881L3.76005 12.3086ZM5.31003 19.8246L6.2961 21.5646L5.31003 19.8246ZM3.32384 18.3179L1.35457 17.9686L3.32384 18.3179ZM10.6488 17.5345L11.6349 15.7945L10.6488 17.5345ZM9.3512 17.5345L8.36513 15.7945L9.3512 17.5345ZM16.6762 18.3179L18.6454 17.9686L16.6762 18.3179ZM14.69 19.8246L13.7039 21.5646L14.69 19.8246ZM16.24 12.3086L17.6479 13.7291L16.24 12.3086ZM15.839 13.5972L13.8697 13.9464L15.839 13.5972ZM18.8161 6.5653L19.0888 4.58398L18.8161 6.5653ZM19.5747 9.00327L18.1668 7.5828V7.5828L19.5747 9.00327ZM13.2077 5.1415L11.3887 5.97281L13.2077 5.1415ZM14.2575 5.93787L13.9848 7.91919H13.9848L14.2575 5.93787ZM11.2275 0.808554L13.0466 -0.0227568V-0.0227568L11.2275 0.808554ZM8.77247 0.808554L6.95342 -0.0227566L8.77247 0.808554ZM9.40848 1.63986L11.3887 5.97281L15.0267 4.31019L13.0466 -0.0227568L9.40848 1.63986ZM13.9848 7.91919L18.5434 8.54662L19.0888 4.58398L14.5302 3.95655L13.9848 7.91919ZM18.1668 7.5828L14.832 10.8881L17.6479 13.7291L20.9826 10.4237L18.1668 7.5828ZM13.8697 13.9464L14.7069 18.6671L18.6454 17.9686L17.8082 13.2479L13.8697 13.9464ZM15.676 18.0846L11.6349 15.7945L9.66273 19.2745L13.7039 21.5646L15.676 18.0846ZM8.36513 15.7945L4.32396 18.0846L6.2961 21.5646L10.3373 19.2745L8.36513 15.7945ZM5.29312 18.6671L6.1303 13.9464L2.19175 13.2479L1.35457 17.9686L5.29312 18.6671ZM5.16798 10.8881L1.83322 7.5828L-0.982648 10.4237L2.35212 13.7291L5.16798 10.8881ZM1.45664 8.54663L6.01522 7.91919L5.46981 3.95655L0.911235 4.58398L1.45664 8.54663ZM8.61134 5.97281L10.5915 1.63986L6.95342 -0.0227566L4.97325 4.31019L8.61134 5.97281ZM6.01522 7.91919C7.1785 7.75908 8.14062 7.00282 8.61134 5.97281L4.97325 4.31019C5.04741 4.14791 5.21946 3.99101 5.46981 3.95655L6.01522 7.91919ZM1.83322 7.5828C2.00563 7.75369 2.02295 7.98364 1.97781 8.12869C1.93171 8.27682 1.76164 8.50465 1.45664 8.54663L0.911235 4.58398C-1.9855 4.98268 -2.90145 8.52186 -0.982648 10.4237L1.83322 7.5828ZM6.1303 13.9464C6.32585 12.8437 5.9797 11.6927 5.16798 10.8881L2.35212 13.7291C2.20823 13.5865 2.16386 13.4052 2.19175 13.2479L6.1303 13.9464ZM4.32396 18.0846C4.42866 18.0253 4.57353 17.9889 4.72803 18.003C4.87239 18.0162 4.98807 18.0694 5.07054 18.132C5.23903 18.2598 5.32699 18.4761 5.29312 18.6671L1.35457 17.9686C0.887825 20.6005 3.63664 23.0718 6.2961 21.5646L4.32396 18.0846ZM11.6349 15.7945C10.6185 15.2185 9.38147 15.2185 8.36513 15.7945L10.3373 19.2745C10.1302 19.3918 9.86976 19.3918 9.66273 19.2745L11.6349 15.7945ZM14.7069 18.6671C14.673 18.4761 14.761 18.2598 14.9295 18.132C15.0119 18.0694 15.1276 18.0162 15.272 18.003C15.4265 17.9889 15.5713 18.0253 15.676 18.0846L13.7039 21.5646C16.3634 23.0718 19.1122 20.6005 18.6454 17.9686L14.7069 18.6671ZM14.832 10.8881C14.0203 11.6927 13.6741 12.8437 13.8697 13.9464L17.8082 13.2479C17.8361 13.4052 17.7918 13.5865 17.6479 13.7291L14.832 10.8881ZM18.5434 8.54662C18.2384 8.50465 18.0683 8.27682 18.0222 8.12869C17.977 7.98364 17.9944 7.75369 18.1668 7.5828L20.9826 10.4237C22.9015 8.52186 21.9855 4.98268 19.0888 4.58398L18.5434 8.54662ZM11.3887 5.97281C11.8594 7.00282 12.8215 7.75908 13.9848 7.91919L14.5302 3.95655C14.7805 3.99101 14.9526 4.14791 15.0267 4.31019L11.3887 5.97281ZM13.0466 -0.0227568C11.8418 -2.65908 8.15824 -2.65908 6.95342 -0.0227566L10.5915 1.63986C10.4985 1.84338 10.258 2 10 2C9.74195 2 9.50149 1.84338 9.40848 1.63986L13.0466 -0.0227568Z" fill="#44516A" mask="url(#path-1-inside-1_891_10774)"/>
</svg>
