<svg width="20" height="20" viewBox="0 0 20 20" fill="none" xmlns="http://www.w3.org/2000/svg">
<path d="M16.3156 2H7.89454C6.9657 2 6.21034 2.76245 6.21034 3.7V8.4481L2.24656 12.4491C2.12882 12.5679 2.04865 12.7194 2.01617 12.8842C1.98369 13.0491 2.00037 13.22 2.06409 13.3753C2.12781 13.5306 2.23572 13.6633 2.37417 13.7567C2.51262 13.8501 2.6754 13.9 2.84192 13.9V18.15C2.84192 18.3754 2.93065 18.5916 3.08857 18.751C3.2465 18.9104 3.46069 19 3.68403 19H17.1577C17.381 19 17.5952 18.9104 17.7531 18.751C17.9111 18.5916 17.9998 18.3754 17.9998 18.15V3.7C17.9998 2.76245 17.2444 2 16.3156 2ZM9.57875 17.3H4.52613V12.5519L7.05244 10.0019L9.57875 12.5519V17.3ZM16.3156 17.3H11.263V13.9C11.4297 13.9004 11.5927 13.8507 11.7314 13.7574C11.8701 13.6641 11.9783 13.5312 12.0421 13.3758C12.1058 13.2203 12.1224 13.0492 12.0897 12.8842C12.057 12.7192 11.9765 12.5678 11.8583 12.4491L7.89454 8.4481V3.7H16.3156V17.3Z" fill="#44516A"/>
<path d="M9.57886 5.40002H11.2631V7.10002H9.57886V5.40002ZM12.9473 5.40002H14.6315V7.10002H12.9473V5.40002ZM12.9473 8.82637H14.6315V10.5H12.9473V8.82637ZM12.9473 12.2H14.6315V13.9H12.9473V12.2ZM6.21045 13.05H7.89466V14.75H6.21045V13.05Z" fill="#44516A"/>
</svg>
