<svg width="20" height="20" viewBox="0 0 20 20" fill="none" xmlns="http://www.w3.org/2000/svg">
<path d="M17.5293 10.5939C17.3824 10.4297 17.3014 10.2186 17.3014 10C17.3014 9.78141 17.3824 9.5703 17.5293 9.40608L18.7019 8.11026C18.8311 7.96868 18.9113 7.79053 18.9311 7.60138C18.9508 7.41223 18.9091 7.2218 18.8118 7.0574L16.9797 3.94382C16.8834 3.77961 16.7368 3.64945 16.5608 3.57189C16.3848 3.49433 16.1883 3.47333 15.9995 3.51188L14.2772 3.85384C14.0581 3.89832 13.8299 3.86246 13.6359 3.75305C13.4418 3.64363 13.2952 3.46822 13.2237 3.25992L12.6649 1.61314C12.6035 1.43441 12.4864 1.27916 12.3302 1.16936C12.174 1.05955 11.9867 1.00074 11.7946 1.00122H8.13029C7.93053 0.990981 7.73284 1.04525 7.56742 1.15575C7.402 1.26624 7.27795 1.42688 7.21421 1.61314L6.7012 3.25992C6.62975 3.46822 6.48315 3.64363 6.28907 3.75305C6.09499 3.86246 5.86685 3.89832 5.64771 3.85384L3.87966 3.51188C3.70062 3.48703 3.51809 3.51478 3.35507 3.59165C3.19205 3.66851 3.05583 3.79105 2.96358 3.94382L1.13141 7.0574C1.03171 7.21996 0.986875 7.40933 1.00333 7.59843C1.01978 7.78753 1.09668 7.96667 1.22302 8.11026L2.38645 9.40608C2.53331 9.5703 2.61431 9.78141 2.61431 10C2.61431 10.2186 2.53331 10.4297 2.38645 10.5939L1.22302 11.8897C1.09668 12.0333 1.01978 12.2125 1.00333 12.4016C0.986875 12.5907 1.03171 12.78 1.13141 12.9426L2.96358 16.0562C3.05986 16.2204 3.20645 16.3505 3.38246 16.4281C3.55847 16.5057 3.75492 16.5267 3.94379 16.4881L5.66603 16.1462C5.88517 16.1017 6.11331 16.1375 6.30739 16.2469C6.50147 16.3564 6.64807 16.5318 6.71952 16.7401L7.27833 18.3869C7.34207 18.5731 7.46613 18.7338 7.63154 18.8443C7.79696 18.9547 7.99465 19.009 8.19442 18.9988H11.8588C12.0508 18.9993 12.2382 18.9404 12.3943 18.8306C12.5505 18.7208 12.6676 18.5656 12.729 18.3869L13.2878 16.7401C13.3593 16.5318 13.5059 16.3564 13.7 16.2469C13.8941 16.1375 14.1222 16.1017 14.3413 16.1462L16.0636 16.4881C16.2525 16.5267 16.4489 16.5057 16.6249 16.4281C16.8009 16.3505 16.9475 16.2204 17.0438 16.0562L18.876 12.9426C18.9732 12.7782 19.015 12.5878 18.9952 12.3986C18.9755 12.2095 18.8952 12.0313 18.766 11.8897L17.5293 10.5939ZM16.1643 11.7998L16.8972 12.6096L15.7246 14.6074L14.6436 14.3914C13.9839 14.2589 13.2975 14.369 12.7149 14.7008C12.1323 15.0325 11.694 15.5629 11.4832 16.1912L11.135 17.199H8.78987L8.46008 16.1732C8.24925 15.5449 7.81093 15.0146 7.22832 14.6828C6.64571 14.351 5.95938 14.2409 5.29959 14.3734L4.21861 14.5894L3.02771 12.6006L3.76057 11.7908C4.21124 11.2958 4.4604 10.655 4.4604 9.991C4.4604 9.32695 4.21124 8.6862 3.76057 8.19125L3.02771 7.38136L4.20029 5.40163L5.28127 5.6176C5.94105 5.75008 6.62739 5.63999 7.21 5.30822C7.79261 4.97645 8.23093 4.4461 8.44176 3.81784L8.78987 2.80098H11.135L11.4832 3.82684C11.694 4.4551 12.1323 4.98545 12.7149 5.31722C13.2975 5.64898 13.9839 5.75908 14.6436 5.62659L15.7246 5.41062L16.8972 7.40835L16.1643 8.21824C15.7187 8.71206 15.4727 9.3491 15.4727 10.009C15.4727 10.6689 15.7187 11.3059 16.1643 11.7998ZM9.96246 6.40049C9.23772 6.40049 8.52926 6.6116 7.92666 7.00712C7.32407 7.40264 6.8544 7.9648 6.57706 8.62253C6.29971 9.28025 6.22714 10.004 6.36853 10.7022C6.50992 11.4005 6.85892 12.0418 7.37138 12.5452C7.88385 13.0486 8.53677 13.3915 9.24758 13.5303C9.95839 13.6692 10.6952 13.598 11.3647 13.3255C12.0343 13.0531 12.6066 12.5917 13.0092 11.9998C13.4119 11.4078 13.6268 10.7119 13.6268 10C13.6268 9.04535 13.2407 8.1298 12.5535 7.45476C11.8663 6.77972 10.9343 6.40049 9.96246 6.40049ZM9.96246 11.7998C9.60009 11.7998 9.24586 11.6942 8.94456 11.4964C8.64326 11.2987 8.40843 11.0176 8.26976 10.6887C8.13109 10.3599 8.0948 9.998 8.1655 9.64889C8.23619 9.29977 8.41069 8.97908 8.66692 8.72738C8.92315 8.47568 9.24962 8.30427 9.60502 8.23483C9.96043 8.16538 10.3288 8.20102 10.6636 8.33724C10.9984 8.47346 11.2845 8.70414 11.4859 9.00011C11.6872 9.29608 11.7946 9.64404 11.7946 10C11.7946 10.4773 11.6016 10.9351 11.258 11.2726C10.9144 11.6101 10.4484 11.7998 9.96246 11.7998Z" fill="#44516A"/>
</svg>
