<svg width="20" height="20" viewBox="0 0 20 20" fill="none" xmlns="http://www.w3.org/2000/svg">
<path fill-rule="evenodd" clip-rule="evenodd" d="M10 17.3125C10.2588 17.3125 10.9484 17.0583 11.6729 15.6093C12.0171 14.9208 12.3063 14.068 12.5076 13.0938H7.49237C7.69375 14.068 7.98288 14.9208 8.32713 15.6093C9.05163 17.0583 9.74125 17.3125 10 17.3125ZM7.24825 11.4062C7.16697 10.4705 7.16697 9.52949 7.24825 8.59375H12.7518C12.833 9.52949 12.833 10.4705 12.7518 11.4062H7.24825ZM14.2266 13.0938C13.9746 14.4707 13.5595 15.6903 13.0274 16.6578C14.6123 15.9346 15.8883 14.6713 16.6274 13.0938H14.2266ZM17.1775 11.4062H14.4437C14.517 10.4702 14.517 9.52982 14.4437 8.59375H17.1764C17.3574 9.52251 17.3574 10.4775 17.1764 11.4062H17.1775ZM5.55512 11.4062H2.8225C2.64145 10.4775 2.64145 9.52251 2.8225 8.59375H5.55625C5.48287 9.52981 5.48287 10.4702 5.55625 11.4062H5.55512ZM3.37262 13.0938H5.77338C6.02538 14.4707 6.4405 15.6903 6.97263 16.6578C5.38774 15.9346 4.1117 14.6713 3.37262 13.0938ZM7.49237 6.90625H12.5076C12.3063 5.932 12.0171 5.07925 11.6729 4.39075C10.9484 2.94175 10.2588 2.6875 10 2.6875C9.74125 2.6875 9.05163 2.94175 8.32713 4.39075C7.98288 5.07925 7.69375 5.932 7.49237 6.90625ZM14.2266 6.90625H16.6274C15.8882 5.32877 14.6122 4.06552 13.0274 3.34225C13.5595 4.30975 13.9746 5.52925 14.2266 6.90625ZM6.97375 3.34225C6.44162 4.30975 6.0265 5.52925 5.7745 6.90625H3.37262C4.1117 5.32871 5.38886 4.06543 6.97375 3.34225ZM10 1C12.3869 1 14.6761 1.94821 16.364 3.63604C18.0518 5.32387 19 7.61305 19 10C19 12.3869 18.0518 14.6761 16.364 16.364C14.6761 18.0518 12.3869 19 10 19C7.61305 19 5.32387 18.0518 3.63604 16.364C1.94821 14.6761 1 12.3869 1 10C1 7.61305 1.94821 5.32387 3.63604 3.63604C5.32387 1.94821 7.61305 1 10 1Z" fill="#44516A"/>
</svg>
