<svg width="20" height="20" viewBox="0 0 20 20" fill="none" xmlns="http://www.w3.org/2000/svg">
<path d="M17.1111 7.33333C17.3469 7.33333 17.573 7.23968 17.7397 7.07298C17.9064 6.90628 18 6.68019 18 6.44444V2.88889C18 2.65314 17.9064 2.42705 17.7397 2.26035C17.573 2.09365 17.3469 2 17.1111 2H13.5556C13.3198 2 13.0937 2.09365 12.927 2.26035C12.7603 2.42705 12.6667 2.65314 12.6667 2.88889V3.77778H7.33333V2.88889C7.33333 2.65314 7.23968 2.42705 7.07298 2.26035C6.90628 2.09365 6.68019 2 6.44444 2H2.88889C2.65314 2 2.42705 2.09365 2.26035 2.26035C2.09365 2.42705 2 2.65314 2 2.88889V6.44444C2 6.68019 2.09365 6.90628 2.26035 7.07298C2.42705 7.23968 2.65314 7.33333 2.88889 7.33333H3.77778V12.6667H2.88889C2.65314 12.6667 2.42705 12.7603 2.26035 12.927C2.09365 13.0937 2 13.3198 2 13.5556V17.1111C2 17.3469 2.09365 17.573 2.26035 17.7397C2.42705 17.9064 2.65314 18 2.88889 18H6.44444C6.68019 18 6.90628 17.9064 7.07298 17.7397C7.23968 17.573 7.33333 17.3469 7.33333 17.1111V16.2222H12.6667V17.1111C12.6667 17.3469 12.7603 17.573 12.927 17.7397C13.0937 17.9064 13.3198 18 13.5556 18H17.1111C17.3469 18 17.573 17.9064 17.7397 17.7397C17.9064 17.573 18 17.3469 18 17.1111V13.5556C18 13.3198 17.9064 13.0937 17.7397 12.927C17.573 12.7603 17.3469 12.6667 17.1111 12.6667H16.2222V7.33333H17.1111ZM14.4444 3.77778H16.2222V5.55556H14.4444V3.77778ZM3.77778 3.77778H5.55556V5.55556H3.77778V3.77778ZM5.55556 16.2222H3.77778V14.4444H5.55556V16.2222ZM16.2222 16.2222H14.4444V14.4444H16.2222V16.2222ZM14.4444 12.6667H13.5556C13.3198 12.6667 13.0937 12.7603 12.927 12.927C12.7603 13.0937 12.6667 13.3198 12.6667 13.5556V14.4444H7.33333V13.5556C7.33333 13.3198 7.23968 13.0937 7.07298 12.927C6.90628 12.7603 6.68019 12.6667 6.44444 12.6667H5.55556V7.33333H6.44444C6.68019 7.33333 6.90628 7.23968 7.07298 7.07298C7.23968 6.90628 7.33333 6.68019 7.33333 6.44444V5.55556H12.6667V6.44444C12.6667 6.68019 12.7603 6.90628 12.927 7.07298C13.0937 7.23968 13.3198 7.33333 13.5556 7.33333H14.4444V12.6667Z" fill="#44516A"/>
</svg>
