<svg width="20" height="20" viewBox="0 0 20 20" fill="none" xmlns="http://www.w3.org/2000/svg">
<path d="M16.6668 6.19038C15.3553 3.89134 12.8363 2.38086 10.0001 2.38086C8.49319 2.38086 7.02012 2.82771 5.76718 3.6649C4.51423 4.50209 3.53768 5.69202 2.96101 7.08422C2.38434 8.47642 2.23346 10.0084 2.52744 11.4863C2.82142 12.9643 3.54707 14.3218 4.61261 15.3874C5.67815 16.4529 7.03574 17.1786 8.51369 17.4726C9.99164 17.7665 11.5236 17.6157 12.9158 17.039C14.308 16.4623 15.4979 15.4858 16.3351 14.2328C17.1723 12.9799 17.6191 11.5068 17.6191 9.99991" stroke="#44516A" stroke-width="2" stroke-linecap="round" stroke-linejoin="round"/>
<path d="M12.8565 6.19038L16.666 6.19038L16.666 2.38086" stroke="#44516A" stroke-width="2" stroke-linecap="round" stroke-linejoin="round"/>
</svg>
