<svg width="20" height="20" viewBox="0 0 20 20" fill="none" xmlns="http://www.w3.org/2000/svg">
<path d="M10 2.71429C11.925 2.71429 13.5 4.25714 13.5 6.14286C13.5 7.67551 12.1678 10.6374 10.7458 12.7534C10.386 13.2887 9.6229 13.2819 9.26658 12.7444C7.83992 10.5921 6.5 7.67994 6.5 6.14286C6.5 4.25714 8.075 2.71429 10 2.71429ZM10 1C7.1125 1 4.75 3.31429 4.75 6.14286C4.75 9.08132 7.79698 13.5122 9.24841 15.4561C9.62845 15.9651 10.3686 15.963 10.7463 15.4522C12.1956 13.492 15.25 9.01953 15.25 6.14286C15.25 3.31429 12.8875 1 10 1ZM10 4.42857C9.0375 4.42857 8.25 5.2 8.25 6.14286C8.25 7.08571 9.0375 7.85714 10 7.85714C10.9625 7.85714 11.75 7.08571 11.75 6.14286C11.75 5.2 10.9625 4.42857 10 4.42857ZM17 15.5714C17 17.4571 13.85 19 10 19C6.15 19 3 17.4571 3 15.5714C3 14.5384 3.90242 13.6527 5.35867 12.9827C5.5628 12.8888 5.80305 12.9616 5.92947 13.1474V13.1474C6.09203 13.3863 6.00333 13.7112 5.75655 13.8615C5.14622 14.2332 4.75 14.6603 4.75 15.1429C4.75 16.3429 7.1125 17.2857 10 17.2857C12.8875 17.2857 15.25 16.3429 15.25 15.1429C15.25 14.655 14.845 14.2238 14.1762 13.8492C13.9217 13.7067 13.8259 13.3782 13.99 13.1371V13.1371C14.1129 12.9566 14.345 12.884 14.5452 12.9711C16.0871 13.6425 17 14.5325 17 15.5714Z" fill="#44516A"/>
</svg>
