<svg width="20" height="20" viewBox="0 0 20 20" fill="none" xmlns="http://www.w3.org/2000/svg">
<path d="M16.0024 17.478C16.0025 17.478 16.0022 17.4796 16.0012 17.4826C16.0017 17.4796 16.0022 17.478 16.0024 17.478ZM15.8048 17.2909C15.9296 17.3963 15.9768 17.4668 15.9937 17.5C15.9768 17.5332 15.9296 17.6037 15.8048 17.7091C15.5754 17.9027 15.1843 18.1221 14.6134 18.326C13.4804 18.7307 11.8494 19 10 19C8.1506 19 6.5196 18.7307 5.38659 18.326C4.81573 18.1221 4.42458 17.9027 4.19525 17.7091C4.07042 17.6037 4.02321 17.5332 4.00633 17.5C4.02321 17.4668 4.07042 17.3963 4.19525 17.2909C4.42458 17.0973 4.81573 16.8779 5.38659 16.674C6.5196 16.2693 8.1506 16 10 16C11.8494 16 13.4804 16.2693 14.6134 16.674C15.1843 16.8779 15.5754 17.0973 15.8048 17.2909ZM3.99763 17.478C3.99776 17.478 3.99827 17.4796 3.99878 17.4826C3.99777 17.4796 3.99751 17.478 3.99763 17.478ZM3.99763 17.522C3.99751 17.522 3.99777 17.5204 3.99878 17.5174C3.99827 17.5204 3.99776 17.522 3.99763 17.522ZM16.0012 17.5174C16.0022 17.5204 16.0025 17.522 16.0024 17.522C16.0022 17.522 16.0017 17.5204 16.0012 17.5174Z" stroke="white" stroke-width="2"/>
<mask id="path-2-inside-1_6674_78" fill="white">
<path fill-rule="evenodd" clip-rule="evenodd" d="M14.9245 9.42865C15.6024 8.45678 16 7.27482 16 6C16 2.68629 13.3137 0 10 0C6.68629 0 4 2.68629 4 6C4 7.27482 4.39758 8.45678 5.0755 9.42865H4.85709L9.99994 17.1429L15.1428 9.42865H14.9245Z"/>
</mask>
<path d="M14.9245 9.42865L13.2841 8.28443L11.0909 11.4286H14.9245V9.42865ZM5.0755 9.42865V11.4286H8.90909L6.71585 8.28443L5.0755 9.42865ZM4.85709 9.42865V7.42865H1.12005L3.19299 10.538L4.85709 9.42865ZM9.99994 17.1429L8.33584 18.2523L9.99994 20.7485L11.664 18.2523L9.99994 17.1429ZM15.1428 9.42865L16.8069 10.538L18.8798 7.42865H15.1428V9.42865ZM14 6C14 6.85254 13.7355 7.63731 13.2841 8.28443L16.5649 10.5729C17.4693 9.27624 18 7.6971 18 6H14ZM10 2C12.2091 2 14 3.79086 14 6H18C18 1.58172 14.4183 -2 10 -2V2ZM6 6C6 3.79086 7.79086 2 10 2V-2C5.58172 -2 2 1.58172 2 6H6ZM6.71585 8.28443C6.26446 7.63731 6 6.85253 6 6H2C2 7.6971 2.53069 9.27624 3.43515 10.5729L6.71585 8.28443ZM4.85709 11.4286H5.0755V7.42865H4.85709V11.4286ZM11.664 16.0335L6.52119 8.31925L3.19299 10.538L8.33584 18.2523L11.664 16.0335ZM13.4787 8.31925L8.33584 16.0335L11.664 18.2523L16.8069 10.538L13.4787 8.31925ZM14.9245 11.4286H15.1428V7.42865H14.9245V11.4286Z" fill="white" mask="url(#path-2-inside-1_6674_78)"/>
<circle cx="10" cy="6.42847" r="2" fill="white"/>
</svg>
