<svg width="20" height="20" viewBox="0 0 20 20" fill="none" xmlns="http://www.w3.org/2000/svg">
<path d="M10.5 12.8182H5.09091V11.2727H10.5V12.8182ZM12.8182 9.72727H5.09091V8.18182H12.8182V9.72727ZM12.8182 6.63636H5.09091V5.09091H12.8182V6.63636ZM14.3636 2C14.7735 2 15.1666 2.16282 15.4564 2.45265C15.7463 2.74248 15.9091 3.13557 15.9091 3.54545V14.3636C15.9091 15.2214 15.2214 15.9091 14.3636 15.9091H3.54545C3.13557 15.9091 2.74248 15.7463 2.45265 15.4564C2.16282 15.1666 2 14.7735 2 14.3636V3.54545C2 2.68773 2.68773 2 3.54545 2H14.3636ZM3.54545 3.54545V14.3636H14.3636V3.54545H3.54545Z" fill="#44516A"/>
<path d="M5.09131 17.4545L17.4549 17.4545L17.4549 5.09091L19.0004 5.09091L19.0004 17.4545C19.0004 17.8644 18.8376 18.2575 18.5477 18.5473C18.2579 18.8372 17.8648 19 17.4549 19L5.09131 19L5.09131 17.4545Z" fill="#44516A"/>
</svg>
