<?xml version="1.0" encoding="utf-8"?>
<!-- Generator: Adobe Illustrator 27.6.1, SVG Export Plug-In . SVG Version: 6.00 Build 0)  -->
<svg version="1.1" id="레이어_1" xmlns="http://www.w3.org/2000/svg" xmlns:xlink="http://www.w3.org/1999/xlink" x="0px"
	 y="0px" viewBox="0 0 35 245" style="enable-background:new 0 0 35 245;" xml:space="preserve">
<style type="text/css">
	.st0{fill:#336DFF;}
	.st1{fill:none;}
	.st2{fill:none;stroke:#000000;stroke-miterlimit:10;}
	.st3{fill:#AD00FF;}
	.st4{fill:none;stroke:#AD00FF;stroke-miterlimit:10;}
	.st5{fill:#5CFFA3;}
	.st6{fill:#C1272D;}
</style>
<g>
	<g>
		<g>
			<rect x="16.6" y="45.7" class="st0" width="1.3" height="6.7"/>
			<rect x="16.5" y="45.7" class="st0" width="2.7" height="1.3"/>
		</g>
		<path class="st0" d="M14.8,53c0.5-0.8,1.4-1.3,2.4-1.3s1.9,0.5,2.4,1.3l7.6-3.7v10l-7.6-3.7c-0.5,0.8-1.4,1.5-2.4,1.5
			s-1.9-0.6-2.4-1.5l-7.6,3.7V49.2L14.8,53z M8.6,57.3l5.9-2.8l-5.9-3V57.3z M25.8,51.5l-5.9,3l5.9,2.8V51.5z M17.2,52.6
			c-1,0-1.8,0.8-1.8,1.8s0.8,1.8,1.8,1.8c0.7,0,1.3-0.3,1.5-0.9c0.1-0.3,0.3-0.6,0.3-0.9c0-0.4-0.1-0.8-0.4-1.1
			C18.3,52.8,17.7,52.6,17.2,52.6z"/>
	</g>
	<rect x="-0.3" y="35" class="st1" width="35" height="35"/>
</g>
<g>
	<g>
		<circle class="st2" cx="17.2" cy="227.5" r="10"/>
		<circle cx="17.2" cy="227.5" r="1.4"/>
	</g>
	<rect x="-0.3" y="210" class="st1" width="35" height="35"/>
</g>
<g>
	<g>
		<g>
			<g>
				<path class="st0" d="M26.5,12.5v10H7.9v-10H26.5 M27.2,11.8h-20v11.3h20V11.8L27.2,11.8z"/>
			</g>
		</g>
		<g>
			<polygon class="st0" points="8,12.1 7.6,12.8 26.4,22.8 26.7,22.2 			"/>
		</g>
		<g>
			<polygon class="st0" points="26.4,12.1 7.6,22.2 8,22.8 26.7,12.8 			"/>
		</g>
	</g>
	<rect x="-0.3" class="st1" width="35" height="35"/>
</g>
<g>
	<g>
		<g>
			<g>
				<path class="st3" d="M26.5,117.5v10H7.9v-10H26.5 M27.2,116.8h-20v11.3h20V116.8L27.2,116.8z"/>
			</g>
		</g>
		<g>
			<g>
				<g>
					<polygon class="st3" points="24.9,119.1 9.5,119.1 9.5,119.9 10.9,119.9 24.9,119.9 					"/>
				</g>
				<polyline class="st4" points="24.5,119.3 22.2,125.5 18.2,119.8 13.9,125 10.1,119.9 				"/>
			</g>
		</g>
	</g>
	<rect x="-0.3" y="105" class="st1" width="35" height="35"/>
</g>
<g>
	<rect x="2.2" y="85" class="st5" width="30" height="5"/>
	<rect x="-0.3" y="70" class="st1" width="35" height="35"/>
</g>
<g>
	<g>
		<g>
			<path class="st6" d="M17.9,151.7c0,0.3-0.1,0.6-0.1,0.9s0,0.5,0,0.6c0,0.5,0,1.1,0.1,1.7c0.1,0.6,0.1,1.1,0.3,1.5
				c0.2,0.6,0.4,1.2,0.7,1.7c0.3,0.5,0.7,0.9,1.1,1.3c0.3,0.3,0.7,0.6,1.1,0.8c0.4,0.2,0.9,0.5,1.3,0.7c-0.1,0.2-0.3,0.4-0.4,0.6
				c-0.1,0.2-0.3,0.4-0.5,0.6c-0.5-0.3-1-0.5-1.4-0.8s-0.8-0.6-1.1-0.9c-0.4-0.4-0.7-0.9-1-1.3c-0.3-0.5-0.5-1-0.7-1.6
				c-0.2,0.7-0.4,1.2-0.7,1.7s-0.5,0.9-0.9,1.3c-0.3,0.3-0.7,0.7-1.1,1c-0.5,0.3-0.9,0.5-1.5,0.8c-0.1-0.3-0.3-0.5-0.4-0.6
				s-0.3-0.3-0.4-0.6c0.5-0.1,1-0.3,1.5-0.6c0.4-0.3,0.8-0.5,1.1-0.9c0.3-0.3,0.7-0.7,0.9-1.2c0.2-0.5,0.4-1,0.5-1.6
				c0.1-0.4,0.2-0.9,0.2-1.5c0.1-0.6,0.1-1.3,0.1-2.1c0-0.1,0-0.4-0.1-0.7c-0.1-0.3-0.1-0.5-0.1-0.8L17.9,151.7z M14.2,157.4l-1-0.6
				c0.3-0.5,0.5-1.1,0.7-1.6c0.2-0.5,0.4-1.1,0.6-1.6l1.1,0.5c-0.2,0.5-0.4,0.9-0.7,1.5C14.8,156.2,14.5,156.8,14.2,157.4z
				 M19.7,157.2l-1.1-0.5c0.3-0.5,0.5-0.9,0.8-1.5c0.3-0.5,0.5-1,0.7-1.5c0.1,0.1,0.2,0.1,0.3,0.2c0.1,0.1,0.3,0.1,0.3,0.2
				c0.1,0.1,0.2,0.1,0.3,0.2c0.1,0.1,0.1,0.1,0.1,0.1s-0.1,0.2-0.3,0.5c-0.1,0.3-0.3,0.5-0.5,0.9s-0.3,0.6-0.5,0.9
				C19.8,156.9,19.7,157.1,19.7,157.2z"/>
		</g>
		<g>
			<path class="st6" d="M17.2,148.2c5.1,0,9.3,4.2,9.3,9.3s-4.2,9.3-9.3,9.3s-9.3-4.2-9.3-9.3S12.1,148.2,17.2,148.2 M17.2,147.5
				c-5.5,0-10,4.5-10,10s4.5,10,10,10s10-4.5,10-10S22.7,147.5,17.2,147.5L17.2,147.5z"/>
		</g>
	</g>
	<rect x="-0.3" y="140" class="st1" width="35" height="35"/>
</g>
<g>
	<g>
		<g>
			<path d="M26.5,187.4v10.1H7.9v-10.1H26.5 M27.2,186.8h-20v11.4h20V186.8L27.2,186.8z"/>
		</g>
		<g>
			<path d="M11.1,189.9h1.1l0.8,3.4h0.1l0.9-3.4h0.9l0.9,3.4h0.1l0.8-3.4h1.1l-1.4,4.9h-1l-0.9-3.3l0,0l-0.9,3.2h-1L11.1,189.9z"/>
			<path d="M17.9,194.7c-0.1-0.1-0.1-0.1-0.2-0.2c-0.1-0.1-0.1-0.2-0.1-0.3c0-0.1,0-0.2,0.1-0.3c0.1-0.1,0.1-0.1,0.2-0.2
				c0.1-0.1,0.2-0.1,0.3-0.1c0.1,0,0.2,0,0.3,0.1c0.1,0.1,0.1,0.1,0.2,0.2c0.1,0.1,0.1,0.2,0.1,0.3c0,0.1,0,0.2-0.1,0.3
				c-0.1,0.1-0.1,0.1-0.2,0.2s-0.2,0.1-0.3,0.1C18.1,194.8,17.9,194.8,17.9,194.7z"/>
			<path d="M19.5,189.9h1.9c0.3,0,0.7,0.1,0.9,0.2s0.5,0.3,0.6,0.6c0.1,0.3,0.2,0.5,0.2,0.9s-0.1,0.6-0.2,0.9
				c-0.1,0.3-0.3,0.5-0.6,0.6s-0.6,0.2-0.9,0.2h-1.2v-0.8h1.1c0.2,0,0.3-0.1,0.5-0.1c0.1-0.1,0.2-0.1,0.3-0.3
				c0.1-0.1,0.1-0.3,0.1-0.4c0-0.1,0-0.3-0.1-0.4c-0.1-0.1-0.1-0.2-0.3-0.3c-0.1-0.1-0.3-0.1-0.5-0.1h-0.7v4h-1V189.9z"/>
		</g>
	</g>
	<rect x="-0.3" y="175" class="st1" width="35" height="35"/>
</g>
</svg>
