<svg width="27" height="26" viewBox="0 0 27 26" fill="none" xmlns="http://www.w3.org/2000/svg">
<g clip-path="url(#clip0_291_42)">
<path d="M1.23404 8.37234L8.71277 1.19915C8.85794 1.07131 9.04769 1.00027 9.24468 1H25.2021C25.4137 1 25.6167 1.0807 25.7663 1.22434C25.9159 1.36799 26 1.56281 26 1.76596V17.0851C26.0001 17.1859 25.9795 17.2857 25.9393 17.3788C25.8991 17.4719 25.8402 17.5564 25.766 17.6277L18.3191 24.7766C18.1694 24.9198 17.9667 25.0002 17.7553 25H1.79787C1.58626 25 1.38332 24.9193 1.23369 24.7757C1.08406 24.632 1 24.4372 1 24.234V8.91489C0.999918 8.81413 1.02055 8.71433 1.06071 8.62123C1.10087 8.52813 1.15977 8.44355 1.23404 8.37234ZM8.44681 3.61447L3.7234 8.14894H8.44681V3.61447ZM18.5532 22.3804L23.2766 17.8511H18.5532V22.3804ZM18.5532 16.3191H24.4043V3.61447L18.5532 9.23149V16.3191ZM23.2766 2.53191H10.0426V8.14894H17.4255L23.2766 2.53191ZM10.0426 9.68085V16.3191H16.9574V9.68085H10.0426ZM16.9574 23.4681V17.8511H9.57447L3.7234 23.4681H16.9574ZM2.59574 22.3855L8.44681 16.7685V9.68085H2.59574V22.3855Z" fill="white" stroke="white" stroke-width="0.7"/>
</g>
<defs>
<clipPath id="clip0_291_42">
<rect width="27" height="26" fill="white"/>
</clipPath>
</defs>
</svg>
