<svg width="43" height="26" viewBox="0 0 43 26" fill="none" xmlns="http://www.w3.org/2000/svg">
<mask id="mask0_7007_2338" style="mask-type:alpha" maskUnits="userSpaceOnUse" x="0" y="0" width="43" height="26">
<rect width="43" height="26" fill="#C4C4C4"/>
</mask>
<g mask="url(#mask0_7007_2338)">
<path d="M3.5 5.59178C3.5 5.26414 3.80984 5.02504 4.12677 5.10811L15.3876 8.05968C15.6075 8.11732 15.7609 8.31603 15.7609 8.54334V27.4082C15.7609 27.7359 15.451 27.975 15.1341 27.8919L3.87323 24.9403C3.65334 24.8827 3.5 24.684 3.5 24.4567V5.59178Z" stroke="white" stroke-width="3"/>
<path d="M24.6309 5.59178C24.6309 5.26414 24.9407 5.02504 25.2576 5.10811L36.5185 8.05968C36.7384 8.11732 36.8917 8.31603 36.8917 8.54334V27.4082C36.8917 27.7359 36.5819 27.975 36.265 27.8919L25.0041 24.9403C24.7842 24.8827 24.6309 24.684 24.6309 24.4567V5.59178Z" stroke="white" stroke-width="3"/>
<path d="M26.3262 5.59178C26.3262 5.26414 26.0163 5.02504 25.6994 5.10811L14.4385 8.05968C14.2186 8.11732 14.0653 8.31603 14.0653 8.54334V27.4082C14.0653 27.7359 14.3751 27.975 14.6921 27.8919L25.9529 24.9403C26.1728 24.8827 26.3262 24.684 26.3262 24.4567V5.59178Z" stroke="white" stroke-width="3"/>
</g>
</svg>
