<svg width="20" height="20" viewBox="0 0 20 20" fill="none" xmlns="http://www.w3.org/2000/svg">
<path d="M3.66659 5.27789L10 8.44446L16.3334 5.27789L10 2.11131L3.66659 5.27789ZM10.5162 0.122705L18.9533 4.42502C19.4663 4.68679 19.6511 5.28 19.3661 5.75182C19.2667 5.9139 19.1241 6.04511 18.9544 6.13075L10.5162 10.4331C10.3561 10.5138 10.1793 10.5559 10 10.5559C9.82071 10.5559 9.64391 10.5138 9.48383 10.4331L1.04667 6.13075C0.533661 5.86898 0.348937 5.27578 0.63394 4.80396C0.733319 4.64188 0.875866 4.51066 1.04561 4.42502L9.48383 0.122705C9.80472 -0.0409016 10.1953 -0.0409016 10.5162 0.122705ZM10.5162 14.6531C10.3565 14.7351 10.1795 14.7779 10 14.7779C9.82047 14.7779 9.64352 14.7351 9.48383 14.6531L1.04667 10.2758C0.533661 10.0098 0.348937 9.40604 0.63394 8.92684C0.732667 8.76263 0.87523 8.62921 1.04561 8.54157C1.16868 8.47755 1.30536 8.44413 1.44409 8.44413C1.58281 8.44413 1.7195 8.47755 1.84257 8.54157L9.48488 12.5051C9.80472 12.6718 10.1953 12.6718 10.5162 12.5051L18.1574 8.54157C18.2804 8.47773 18.4169 8.4444 18.5554 8.4444C18.6939 8.4444 18.8304 8.47773 18.9533 8.54157C19.4663 8.80756 19.6511 9.41132 19.3661 9.89053C19.2673 10.0547 19.1248 10.1882 18.9544 10.2758L10.5162 14.6531ZM10.5162 18.8752C10.3565 18.9572 10.1795 19 10 19C9.82047 19 9.64352 18.9572 9.48383 18.8752L1.04667 14.4979C0.533661 14.2319 0.348937 13.6281 0.63394 13.1489C0.732667 12.9847 0.87523 12.8513 1.04561 12.7637C1.16868 12.6997 1.30536 12.6662 1.44409 12.6662C1.58281 12.6662 1.7195 12.6997 1.84257 12.7637L9.48488 16.7272C9.80472 16.8939 10.1953 16.8939 10.5162 16.7272L18.1574 12.7637C18.2804 12.6998 18.4169 12.6665 18.5554 12.6665C18.6939 12.6665 18.8304 12.6998 18.9533 12.7637C19.4663 13.0297 19.6511 13.6334 19.3661 14.1126C19.2673 14.2768 19.1248 14.4103 18.9544 14.4979L10.5162 18.8752Z" fill="#AFAFAF"/>
</svg>
