<svg width="28" height="23" viewBox="0 0 28 23" fill="none" xmlns="http://www.w3.org/2000/svg">
<mask id="mask0_6648_1589" style="mask-type:alpha" maskUnits="userSpaceOnUse" x="0" y="0" width="28" height="23">
<rect width="28" height="23" fill="#C4C4C4"/>
</mask>
<g mask="url(#mask0_6648_1589)">
<path fill-rule="evenodd" clip-rule="evenodd" d="M19.7142 16.2842C22.5837 12.2578 22.2123 6.63194 18.6 3.01968C14.5737 -1.00656 8.04592 -1.00656 4.01968 3.01968C-0.00655961 7.04591 -0.00655961 13.5737 4.01968 17.6C7.63194 21.2122 13.2578 21.5836 17.2841 18.7142L24.0667 25.4967C24.7377 26.1678 25.8257 26.1678 26.4967 25.4967C27.1678 24.8257 27.1678 23.7377 26.4967 23.0667L19.7142 16.2842ZM15.9788 5.64082C18.5574 8.21944 18.5574 12.4002 15.9788 14.9788C13.4002 17.5574 9.2194 17.5574 6.64078 14.9788C4.06216 12.4002 4.06216 8.21944 6.64078 5.64082C9.2194 3.0622 13.4002 3.0622 15.9788 5.64082Z" fill="white"/>
</g>
</svg>
