<svg width="26" height="25" viewBox="0 0 26 25" fill="none" xmlns="http://www.w3.org/2000/svg">
<path d="M25.4439 2.31631C25.2709 2.17618 25.0695 2.07881 24.8549 2.03159C24.6403 1.98437 24.4181 1.98854 24.2053 2.04378L17.0204 3.909L9.79815 0.15856C9.48966 -0.00174163 9.13613 -0.0420956 8.80148 0.044797L1.09778 2.04503C0.784818 2.12539 0.506736 2.31217 0.307802 2.57564C0.108868 2.83911 0.00051792 3.16413 0 3.49895V21.501C3.32308e-05 21.729 0.0500846 21.954 0.146353 22.1588C0.242621 22.3637 0.382573 22.543 0.555581 22.6833C0.728588 22.8236 0.930101 22.9211 1.14481 22.9684C1.35952 23.0157 1.58179 23.0115 1.79472 22.9562L8.97963 21.091L16.2019 24.8414C16.5103 25.0017 16.8639 25.0421 17.1985 24.9552L24.9022 22.955C25.2152 22.8746 25.4933 22.6878 25.6922 22.4244C25.8911 22.1609 25.9995 21.8359 26 21.501V3.49895C26 3.27089 25.9498 3.04584 25.8535 2.84091C25.7571 2.63598 25.617 2.45657 25.4439 2.31631ZM10.5926 3.9265L15.4074 6.42679V21.0735L10.5926 18.5732V3.9265ZM2.88889 4.67659L7.7037 3.42644V18.3294L2.88889 19.5796V4.67659ZM23.1111 20.3297L18.2963 21.5798V6.67057L23.1111 5.42042V20.3297Z" fill="white"/>
</svg>
