<svg width="28" height="29" viewBox="0 0 28 29" fill="none" xmlns="http://www.w3.org/2000/svg">
<path d="M14.052 26.7026C20.6877 26.7026 25.4274 24.4084 25.4274 19.3019C25.4274 13.7514 22.5836 10.0511 16.8958 7.27583L19.133 4.46357C19.2467 4.27906 19.3083 4.0685 19.3117 3.85324C19.3151 3.63798 19.2601 3.42567 19.1523 3.23783C19.0445 3.04999 18.8878 2.8933 18.6979 2.78364C18.5081 2.67398 18.2919 2.61525 18.0713 2.6134H10.0326C9.81205 2.61525 9.59587 2.67398 9.40603 2.78364C9.21618 2.8933 9.05942 3.04999 8.95163 3.23783C8.84384 3.42567 8.78885 3.63798 8.79225 3.85324C8.79564 4.0685 8.85728 4.27906 8.97094 4.46357L11.2081 7.29433C5.52038 10.0881 2.67651 13.7884 2.67651 19.3389C2.67651 24.4084 7.41629 26.7026 14.052 26.7026Z" stroke="white" stroke-width="3" stroke-linecap="round" stroke-linejoin="round"/>
<path d="M10.5096 13.7787C10.4071 13.4274 10.0742 13.2393 9.76866 13.3543C9.46313 13.4692 9.29665 13.8519 9.39727 14.201L10.312 17.335H9.95343C9.62961 17.335 9.368 17.634 9.368 18.0041C9.368 18.3741 9.62961 18.6731 9.95343 18.6731H10.7017L11.739 22.2294C11.8213 22.5117 12.0573 22.6978 12.3171 22.6873C12.5769 22.6769 12.8001 22.4699 12.8623 22.1814L13.6307 18.6731H14.4723L15.2407 22.1814C15.3029 22.4699 15.5261 22.6769 15.7858 22.6873C16.0456 22.6978 16.2816 22.5117 16.364 22.2294L17.4013 18.6731H18.1495C18.4734 18.6731 18.735 18.3741 18.735 18.0041C18.735 17.634 18.4734 17.335 18.1495 17.335H17.791L18.7057 14.201C18.8082 13.8498 18.6417 13.4713 18.3362 13.3543C18.0306 13.2372 17.6977 13.4274 17.5952 13.7766L16.5561 17.335H15.387L14.6186 13.8268C14.5546 13.5299 14.3204 13.3208 14.0515 13.3208C13.7826 13.3208 13.5484 13.5299 13.4843 13.8268L12.716 17.335H11.5451L10.5096 13.7787ZM11.9366 18.6731H12.4232L12.2147 19.6265L11.9366 18.6731ZM13.9234 17.335L14.0515 16.7475L14.1796 17.335H13.9234ZM15.6797 18.6731H16.1664L15.8883 19.6265L15.6797 18.6731Z" fill="white" stroke="white"/>
</svg>
