<svg width="19" height="20" viewBox="0 0 19 20" fill="none" xmlns="http://www.w3.org/2000/svg">
<path fill-rule="evenodd" clip-rule="evenodd" d="M0.974186 2C0.719258 2 0.472666 2.0993 0.289192 2.27939C0.105351 2.45985 0 2.70697 0 2.96703C0 3.2271 0.105351 3.47422 0.289192 3.65467C0.436583 3.79935 0.624707 3.79102 0.825164 3.78215C0.874238 3.77998 0.924051 3.77778 0.974186 3.77778H1.79125V14.5324C1.79125 14.7924 1.8966 15.0395 2.08044 15.22C2.22418 15.3611 2.40667 15.3507 2.60155 15.3395C2.65542 15.3365 2.71023 15.3333 2.76543 15.3333H5.67516L3.60687 18H5.96777L8.03606 15.3333H10.6378L12.7061 18H15.067L12.9987 15.3333H15.9012C15.9564 15.3333 16.0112 15.3365 16.0651 15.3395C16.26 15.3507 16.4425 15.3611 16.5862 15.22C16.7701 15.0395 16.8754 14.7924 16.8754 14.5324V3.77778H17.6925C17.7426 3.77778 17.7924 3.77998 17.8415 3.78215C18.042 3.79102 18.2301 3.79935 18.3775 3.65467C18.5613 3.47422 18.6667 3.2271 18.6667 2.96703C18.6667 2.70697 18.5613 2.45985 18.3775 2.27939C18.194 2.0993 17.9474 2 17.6925 2H0.974186ZM3.60687 13.5653V3.77778H15.067V13.5653H3.60687ZM12.3187 5.51648C12.0638 5.51648 11.8172 5.61578 11.6337 5.79588C11.4499 5.97633 11.3446 6.22345 11.3446 6.48352V11.0159C11.3446 11.2759 11.4499 11.5231 11.6337 11.7035C11.8172 11.8836 12.0638 11.9829 12.3187 11.9829C12.5737 11.9829 12.8203 11.8836 13.0037 11.7035C13.1876 11.5231 13.2929 11.2759 13.2929 11.0159V6.48352C13.2929 6.22345 13.1876 5.97633 13.0037 5.79588C12.8203 5.61578 12.5737 5.51648 12.3187 5.51648ZM9.33333 6.68864C9.0784 6.68864 8.83181 6.78795 8.64834 6.96804C8.4645 7.14849 8.35915 7.39561 8.35915 7.65568V11.0159C8.35915 11.2759 8.4645 11.5231 8.64834 11.7035C8.83181 11.8836 9.0784 11.9829 9.33333 11.9829C9.58826 11.9829 9.83485 11.8836 10.0183 11.7035C10.2022 11.5231 10.3075 11.2759 10.3075 11.0159V7.65568C10.3075 7.39561 10.2022 7.14849 10.0183 6.96804C9.83485 6.78795 9.58826 6.68864 9.33333 6.68864ZM6.34792 7.86081C6.093 7.86081 5.8464 7.96011 5.66293 8.1402C5.47909 8.32065 5.37374 8.56777 5.37374 8.82784V11.0159C5.37374 11.2759 5.47909 11.5231 5.66293 11.7035C5.8464 11.8836 6.093 11.9829 6.34792 11.9829C6.60285 11.9829 6.84944 11.8836 7.03292 11.7035C7.21676 11.5231 7.32211 11.2759 7.32211 11.0159V8.82784C7.32211 8.56777 7.21676 8.32065 7.03292 8.1402C6.84944 7.96011 6.60285 7.86081 6.34792 7.86081Z" fill="#AFAFAF"/>
</svg>
