<svg width="28" height="26" viewBox="0 0 28 26" fill="none" xmlns="http://www.w3.org/2000/svg">
<mask id="mask0_6649_14244" style="mask-type:alpha" maskUnits="userSpaceOnUse" x="0" y="0" width="28" height="26">
<rect width="28" height="26" fill="#C4C4C4"/>
</mask>
<g mask="url(#mask0_6649_14244)">
<path fill-rule="evenodd" clip-rule="evenodd" d="M5.59223 19.6128L2.90633 20.9893C0.364561 22.2919 0.364555 25.954 2.90633 27.2567L11.4205 31.62C12.4126 32.1285 13.5857 32.1285 14.5778 31.62L23.092 27.2567C25.6337 25.954 25.6337 22.2919 23.092 20.9893L20.4061 19.6128L17.1089 21.3025L21.7389 23.6753C22.102 23.8614 22.102 24.3845 21.7389 24.5706L13.2247 28.934C13.0829 29.0067 12.9154 29.0067 12.7736 28.934L4.25942 24.5706C3.89631 24.3845 3.89631 23.8614 4.25942 23.6753L8.88937 21.3025L5.59223 19.6128Z" fill="white"/>
<path d="M12.4282 3.13781C12.7867 2.95406 13.2107 2.95406 13.5693 3.13781L23.6991 8.32918C24.6178 8.79998 24.6178 10.1236 23.6991 10.5944L13.5693 15.7857C13.2107 15.9695 12.7867 15.9695 12.4282 15.7857L2.29837 10.5944C1.37971 10.1236 1.37971 8.79998 2.29837 8.32918L12.4282 3.13781Z" stroke="white" stroke-width="3" stroke-linejoin="round"/>
<path fill-rule="evenodd" clip-rule="evenodd" d="M5.59212 12.2824L2.90633 13.6588C0.364561 14.9614 0.364555 18.6236 2.90633 19.9262L11.4205 24.2896C12.4126 24.798 13.5857 24.798 14.5778 24.2896L23.092 19.9262C25.6337 18.6236 25.6337 14.9614 23.092 13.6588L20.4059 12.2822L17.1087 13.972L21.7389 16.3448C22.102 16.5309 22.102 17.0541 21.7389 17.2402L13.2247 21.6035C13.0829 21.6762 12.9154 21.6762 12.7736 21.6035L4.25942 17.2402C3.89631 17.0541 3.89631 16.5309 4.25942 16.3448L8.88927 13.9721L5.59212 12.2824Z" fill="white"/>
</g>
</svg>
