<svg width="20" height="20" viewBox="0 0 20 20" fill="none" xmlns="http://www.w3.org/2000/svg">
<path d="M17.2 1H2.8C1.81 1 1 1.81 1 2.8V17.2C1 18.19 1.81 19 2.8 19H17.2C18.19 19 19 18.19 19 17.2V2.8C19 1.81 18.19 1 17.2 1ZM2.8 2.8H6.4V11.8H2.8V2.8ZM2.8 17.2V13.6H6.4V17.2H2.8ZM17.2 17.2H8.2V8.2H17.2V17.2ZM17.2 6.4H8.2V2.8H17.2V6.4Z" fill="url(#paint0_linear_281_138)"/>
<defs>
<linearGradient id="paint0_linear_281_138" x1="-4.85" y1="4.15" x2="14.05" y2="23.05" gradientUnits="userSpaceOnUse">
<stop stop-color="#838EE7"/>
<stop offset="1" stop-color="#E8A0B0"/>
</linearGradient>
</defs>
</svg>
