<svg width="20" height="20" viewBox="0 0 20 20" fill="none" xmlns="http://www.w3.org/2000/svg">
<path d="M19.0936 2.66774C18.9672 2.56685 18.82 2.49674 18.6632 2.46275C18.5063 2.42875 18.344 2.43175 18.1885 2.47152L12.938 3.81448L7.66019 1.11416C7.43475 0.998746 7.1764 0.969691 6.93185 1.03225L1.30222 2.47242C1.07352 2.53028 0.870307 2.66476 0.724932 2.85446C0.579558 3.04416 0.500378 3.27817 0.5 3.51924V16.4808C0.500024 16.6449 0.5366 16.8068 0.60695 16.9543C0.6773 17.1018 0.779573 17.231 0.906001 17.332C1.03243 17.433 1.17969 17.5032 1.33659 17.5372C1.4935 17.5713 1.65592 17.5683 1.81153 17.5285L7.06204 16.1855L12.3398 18.8858C12.5652 19.0013 12.8236 19.0303 13.0681 18.9677L18.6978 17.5276C18.9265 17.4697 19.1297 17.3352 19.2751 17.1455C19.4204 16.9558 19.4996 16.7218 19.5 16.4808V3.51924C19.5 3.35504 19.4634 3.193 19.3929 3.04546C19.3225 2.89791 19.2201 2.76873 19.0936 2.66774ZM8.24074 3.82708L11.7593 5.62729V16.1729L8.24074 14.3727V3.82708ZM2.61111 4.36714L6.12963 3.46704V14.1972L2.61111 15.0973V4.36714ZM17.3889 15.6374L13.8704 16.5375V5.80281L17.3889 4.90271V15.6374Z" fill="#AFAFAF"/>
</svg>
