<svg width="20" height="20" viewBox="0 0 20 20" fill="none" xmlns="http://www.w3.org/2000/svg">
<path d="M19.0342 6.98719C19.0846 6.87119 19.1119 6.74628 19.1146 6.61958C19.1172 6.49289 19.0952 6.36691 19.0498 6.24884C19.0044 6.13077 18.9364 6.02293 18.8498 5.9315C18.7632 5.84006 18.6597 5.76682 18.5451 5.71597L6.07963 0.155839C5.13101 -0.267256 3.96312 0.205104 3.55793 1.16238L1.45095 6.14099C1.25273 6.61193 1.24701 7.14331 1.43504 7.61852C1.62308 8.09372 1.98951 8.47393 2.45391 8.6757L8.21045 11.1756L7.02825 14.1701H2.90677V11.2722H1V19H2.90677V16.1021H7.02825C7.81289 16.1021 8.5079 15.6249 8.79773 14.8869L9.96277 11.9368L14.9251 14.0909C15.1562 14.1914 15.4172 14.1953 15.6511 14.1018C15.885 14.0082 16.073 13.8248 16.1741 13.5915L16.4715 12.9057L18.0932 13.5625L20 8.7327L18.5356 8.14055L19.0342 6.98719ZM14.8069 11.9388L3.20518 6.90121L5.31025 1.92453L16.9053 7.09634L14.8069 11.9388Z" fill="#AFAFAF"/>
</svg>
