<svg width="20" height="20" viewBox="0 0 20 20" fill="none" xmlns="http://www.w3.org/2000/svg">
<path d="M9.5 19C14.4583 19 18 17.2857 18 13.47C18 9.32258 15.875 6.5576 11.625 4.48387L13.2967 2.38249C13.3816 2.24461 13.4277 2.08728 13.4302 1.92643C13.4327 1.76558 13.3916 1.60694 13.3111 1.46659C13.2306 1.32623 13.1134 1.20915 12.9716 1.12721C12.8297 1.04527 12.6682 1.00138 12.5033 1H6.49667C6.33183 1.00138 6.1703 1.04527 6.02844 1.12721C5.88659 1.20915 5.76945 1.32623 5.68891 1.46659C5.60836 1.60694 5.56728 1.76558 5.56981 1.92643C5.57234 2.08728 5.61841 2.24461 5.70333 2.38249L7.375 4.4977C3.125 6.58525 1 9.35023 1 13.4977C1 17.2857 4.54167 19 9.5 19Z" stroke="url(#paint0_linear_281_137)" stroke-width="2" stroke-linecap="round" stroke-linejoin="round"/>
<path d="M6.85309 9.34296C6.77653 9.0805 6.52773 8.9399 6.29944 9.02582C6.07114 9.11174 5.94674 9.39764 6.02193 9.65853L6.70545 12.0003H6.43751C6.19554 12.0003 6.00006 12.2237 6.00006 12.5003C6.00006 12.7768 6.19554 13.0002 6.43751 13.0002H6.99663L7.77174 15.6576C7.83325 15.8685 8.0096 16.0075 8.20372 15.9997C8.39784 15.9919 8.56462 15.8372 8.6111 15.6216L9.18525 13.0002H9.81409L10.3882 15.6216C10.4347 15.8372 10.6015 15.9919 10.7956 15.9997C10.9897 16.0075 11.1661 15.8685 11.2276 15.6576L12.0027 13.0002H12.5618C12.8038 13.0002 12.9993 12.7768 12.9993 12.5003C12.9993 12.2237 12.8038 12.0003 12.5618 12.0003H12.2939L12.9774 9.65853C13.054 9.39607 12.9296 9.11331 12.7013 9.02582C12.473 8.93834 12.2242 9.0805 12.1476 9.34139L11.3711 12.0003H10.4976L9.92345 9.37889C9.8756 9.15705 9.70062 9.00082 9.49967 9.00082C9.29871 9.00082 9.12373 9.15705 9.07589 9.37889L8.50173 12.0003H7.62683L6.85309 9.34296ZM7.91938 13.0002H8.28301L8.12716 13.7126L7.91938 13.0002ZM9.40398 12.0003L9.49967 11.5613L9.59536 12.0003H9.40398ZM10.7163 13.0002H11.08L10.8722 13.7126L10.7163 13.0002Z" fill="url(#paint1_linear_281_137)" stroke="url(#paint2_linear_281_137)"/>
<defs>
<linearGradient id="paint0_linear_281_137" x1="-4.525" y1="4.15" x2="14.3442" y2="21.9709" gradientUnits="userSpaceOnUse">
<stop stop-color="#838EE7"/>
<stop offset="1" stop-color="#E8A0B0"/>
</linearGradient>
<linearGradient id="paint1_linear_281_137" x1="3.725" y1="10.225" x2="11.075" y2="17.575" gradientUnits="userSpaceOnUse">
<stop stop-color="#838EE7"/>
<stop offset="1" stop-color="#E8A0B0"/>
</linearGradient>
<linearGradient id="paint2_linear_281_137" x1="3.725" y1="10.225" x2="11.075" y2="17.575" gradientUnits="userSpaceOnUse">
<stop stop-color="#838EE7"/>
<stop offset="1" stop-color="#E8A0B0"/>
</linearGradient>
</defs>
</svg>
