<svg width="40" height="40" viewBox="0 0 40 40" fill="none" xmlns="http://www.w3.org/2000/svg">
<mask id="mask0_6625_3151" style="mask-type:alpha" maskUnits="userSpaceOnUse" x="0" y="19" width="35" height="18">
<path d="M9 20.5C7.7889 20.5 6.69658 21.2282 6.23077 22.3462L7.61538 22.9231L6.23077 22.3462L2.48077 31.3462C1.65741 33.3222 3.10927 35.5 5.25 35.5H29.75C31.8907 35.5 33.3426 33.3222 32.5192 31.3462L28.7692 22.3462C28.3034 21.2282 27.2111 20.5 26 20.5H9Z" stroke="white" stroke-width="3"/>
</mask>
<g mask="url(#mask0_6625_3151)">
<path d="M5 19L10 24.5L15.5 18L30 18.5L35.5 32.5L35 37.5L-0.5 37L-2.5 22L5 19Z" fill="white"/>
</g>
<mask id="path-3-outside-1_6625_3151" maskUnits="userSpaceOnUse" x="1" y="3" width="19" height="24" fill="black">
<rect fill="white" x="1" y="3" width="19" height="24"/>
<path fill-rule="evenodd" clip-rule="evenodd" d="M15.4415 16.668C15.4792 16.6072 15.5214 16.5494 15.5664 16.4939C16.4632 15.3879 17 13.982 17 12.4517C17 8.88854 14.0899 6 10.5 6C6.91015 6 4 8.88854 4 12.4517C4 13.982 4.53676 15.3879 5.4336 16.4939C5.4786 16.5494 5.52078 16.6072 5.55843 16.6679L9.22514 22.5821C9.81173 23.5282 11.1883 23.5282 11.7749 22.5821L15.4415 16.668Z"/>
</mask>
<path d="M9.22514 22.5821L6.67541 24.1629L9.22514 22.5821ZM5.4336 16.4939L7.76382 14.6045L5.4336 16.4939ZM5.55843 16.6679L3.00871 18.2487L5.55843 16.6679ZM15.5664 16.4939L13.2362 14.6045L15.5664 16.4939ZM15.4415 16.668L12.8918 15.0872L15.4415 16.668ZM14 12.4517C14 13.2673 13.7169 14.0116 13.2362 14.6045L17.8966 18.3834C19.2096 16.7642 20 14.6968 20 12.4517H14ZM10.5 9C12.4541 9 14 10.5664 14 12.4517H20C20 7.21065 15.7256 3 10.5 3V9ZM7 12.4517C7 10.5664 8.54589 9 10.5 9V3C5.27441 3 1 7.21065 1 12.4517H7ZM7.76382 14.6045C7.28312 14.0116 7 13.2673 7 12.4517H1C1 14.6968 1.7904 16.7641 3.10337 18.3834L7.76382 14.6045ZM11.7749 21.0013L8.10816 15.0871L3.00871 18.2487L6.67541 24.1629L11.7749 21.0013ZM12.8918 15.0872L9.22514 21.0013L14.3246 24.1629L17.9913 18.2488L12.8918 15.0872ZM6.67541 24.1629C8.43519 27.0013 12.5648 27.0013 14.3246 24.1629L9.22514 21.0013C9.81173 20.0552 11.1883 20.0552 11.7749 21.0013L6.67541 24.1629ZM3.10337 18.3834C3.08519 18.361 3.05009 18.3155 3.00871 18.2487L8.10816 15.0871C7.99147 14.8989 7.87202 14.7379 7.76382 14.6045L3.10337 18.3834ZM13.2362 14.6045C13.128 14.7379 13.0085 14.899 12.8918 15.0872L17.9913 18.2488C17.9499 18.3155 17.9148 18.361 17.8966 18.3834L13.2362 14.6045Z" fill="white" mask="url(#path-3-outside-1_6625_3151)"/>
<circle cx="10.5" cy="12.5" r="2.5" fill="white"/>
<path d="M24.5 27.9999L23.9855 27.1424L24.5 27.9999ZM12.1021 28.8704C12.5366 29.2115 13.1652 29.1357 13.5062 28.7013C13.8472 28.2669 13.7715 27.6382 13.337 27.2972L12.1021 28.8704ZM17.2923 29.0618C16.7433 29.0019 16.2496 29.3983 16.1896 29.9473C16.1297 30.4964 16.5261 30.99 17.0751 31.05L17.2923 29.0618ZM19.148 31.0391C19.6967 30.9766 20.0909 30.4811 20.0283 29.9324C19.9658 29.3836 19.4703 28.9895 18.9215 29.052L19.148 31.0391ZM23.2158 27.5814C22.7299 27.8438 22.5487 28.4505 22.8112 28.9365C23.0736 29.4224 23.6803 29.6036 24.1663 29.3411L23.2158 27.5814ZM25.5738 28.5335C26.0562 28.2645 26.2293 27.6555 25.9603 27.1731C25.6914 26.6907 25.0823 26.5177 24.5999 26.7866L25.5738 28.5335ZM28.1646 25.3153C27.6293 25.4511 27.3054 25.9951 27.4412 26.5304C27.577 27.0658 28.121 27.3897 28.6563 27.2539L28.1646 25.3153ZM29.851 27.0353C30.3999 26.9743 30.7954 26.4799 30.7344 25.931C30.6734 25.3821 30.1789 24.9866 29.63 25.0476L29.851 27.0353ZM33.5608 25.3435C33.025 25.2097 32.4821 25.5356 32.3483 26.0714C32.2145 26.6072 32.5404 27.1501 33.0763 27.2839L33.5608 25.3435ZM34.2812 27.6484C34.8022 27.8317 35.3732 27.5579 35.5564 27.037C35.7397 26.516 35.4659 25.9451 34.945 25.7618L34.2812 27.6484ZM38.3677 27.2946C37.8788 27.0377 37.2742 27.2258 37.0173 27.7147C36.7604 28.2036 36.9485 28.8082 37.4374 29.0651L38.3677 27.2946ZM11.3668 28.2737C11.5718 28.4415 11.8256 28.6534 12.1021 28.8704L13.337 27.2972C13.0818 27.0968 12.8577 26.9095 12.6332 26.7258L11.3668 28.2737ZM17.0751 31.05C17.7195 31.1204 18.4097 31.1233 19.148 31.0391L18.9215 29.052C18.3291 29.1195 17.7877 29.116 17.2923 29.0618L17.0751 31.05ZM24.1663 29.3411C24.4444 29.1909 24.7271 29.0298 25.0145 28.8574L23.9855 27.1424C23.7231 27.2998 23.4666 27.4459 23.2158 27.5814L24.1663 29.3411ZM25.0145 28.8574C25.2037 28.7438 25.3901 28.6359 25.5738 28.5335L24.5999 26.7866C24.3968 26.8999 24.1921 27.0185 23.9855 27.1424L25.0145 28.8574ZM28.6563 27.2539C29.0609 27.1513 29.4578 27.079 29.851 27.0353L29.63 25.0476C29.1424 25.1018 28.655 25.1909 28.1646 25.3153L28.6563 27.2539ZM33.0763 27.2839C33.4667 27.3814 33.8673 27.5028 34.2812 27.6484L34.945 25.7618C34.4784 25.5977 34.0179 25.4576 33.5608 25.3435L33.0763 27.2839ZM37.4374 29.0651C37.6291 29.1658 37.8236 29.27 38.0211 29.3778L38.9789 27.622C38.7728 27.5096 38.5692 27.4005 38.3677 27.2946L37.4374 29.0651Z" fill="white"/>
</svg>
