<svg width="40" height="40" viewBox="0 0 40 40" fill="none" xmlns="http://www.w3.org/2000/svg">
<path d="M5.5 10.5918C5.5 10.2641 5.80984 10.025 6.12677 10.1081L15.1268 12.4671C15.3467 12.5247 15.5 12.7234 15.5 12.9508V28.4082C15.5 28.7359 15.1902 28.975 14.8732 28.8919L5.87323 26.5329C5.65334 26.4753 5.5 26.2766 5.5 26.0492V10.5918Z" stroke="white" stroke-width="3"/>
<path d="M23.5 10.5918C23.5 10.2641 23.8098 10.025 24.1268 10.1081L33.1268 12.4671C33.3467 12.5247 33.5 12.7234 33.5 12.9508V28.4082C33.5 28.7359 33.1902 28.975 32.8732 28.8919L23.8732 26.5329C23.6533 26.4753 23.5 26.2766 23.5 26.0492V10.5918Z" stroke="white" stroke-width="3"/>
<path d="M24.5 10.5918C24.5 10.2641 24.1902 10.025 23.8732 10.1081L14.8732 12.4671C14.6533 12.5247 14.5 12.7234 14.5 12.9508V28.4082C14.5 28.7359 14.8098 28.975 15.1268 28.8919L24.1268 26.5329C24.3467 26.4753 24.5 26.2766 24.5 26.0492V10.5918Z" stroke="white" stroke-width="3"/>
</svg>
