<svg width="26" height="26" viewBox="0 0 26 26" fill="none" xmlns="http://www.w3.org/2000/svg">
<path d="M24.6784 9.56141C24.7473 9.40268 24.7847 9.23175 24.7883 9.05838C24.792 8.88501 24.7619 8.71261 24.6997 8.55104C24.6376 8.38947 24.5446 8.24191 24.4261 8.11679C24.3076 7.99166 24.1659 7.89144 24.0091 7.82185L6.95108 0.213254C5.65297 -0.365719 4.05479 0.280668 3.50033 1.59063L0.617091 8.40347C0.345842 9.04791 0.338014 9.77506 0.595324 10.4253C0.852634 11.0756 1.35406 11.5959 1.98956 11.872L9.86693 15.293L8.24918 19.3907H2.60926V15.4252H0V26H2.60926V22.0344H8.24918C9.3229 22.0344 10.274 21.3814 10.6706 20.3715L12.2648 16.3346L19.0554 19.2823C19.3717 19.4198 19.7287 19.4252 20.0489 19.2972C20.369 19.1692 20.6262 18.9182 20.7645 18.5989L21.1716 17.6604L23.3907 18.5593L26 11.95L23.9961 11.1397L24.6784 9.56141ZM18.8937 16.3372L3.01761 9.44377L5.89824 2.63357L21.7652 9.71078L18.8937 16.3372Z" fill="white"/>
</svg>
