<svg width="20" height="20" viewBox="0 0 20 20" fill="none" xmlns="http://www.w3.org/2000/svg">
<g clip-path="url(#clip0_281_155)">
<path d="M1.16851 6.52926L6.55319 1.14936C6.65771 1.05349 6.79434 1.0002 6.93617 1H18.4255C18.5779 1 18.724 1.06052 18.8317 1.16826C18.9395 1.27599 19 1.42211 19 1.57447V13.0638C19.0001 13.1394 18.9852 13.2143 18.9563 13.2841C18.9274 13.3539 18.885 13.4173 18.8315 13.4707L13.4698 18.8324C13.362 18.9399 13.216 19.0001 13.0638 19H1.57447C1.42211 19 1.27599 18.9395 1.16826 18.8317C1.06052 18.724 0.999999 18.5779 0.999999 18.4255V6.93617C0.99994 6.86059 1.01479 6.78575 1.04371 6.71592C1.07263 6.6461 1.11504 6.58266 1.16851 6.52926ZM6.3617 2.96085L2.96085 6.3617H6.3617V2.96085ZM13.6383 17.0353L17.0391 13.6383H13.6383V17.0353ZM13.6383 12.4894H17.8511V2.96085L13.6383 7.17362V12.4894ZM17.0391 2.14894H7.51064V6.3617H12.8264L17.0391 2.14894ZM7.51064 7.51064V12.4894H12.4894V7.51064H7.51064ZM12.4894 17.8511V13.6383H7.17362L2.96085 17.8511H12.4894ZM2.14894 17.0391L6.3617 12.8264V7.51064H2.14894V17.0391Z" fill="#AFAFAF" stroke="#AFAFAF" stroke-width="0.7"/>
</g>
<defs>
<clipPath id="clip0_281_155">
<rect width="20" height="20" fill="white"/>
</clipPath>
</defs>
</svg>
