<svg width="40" height="40" viewBox="0 0 40 40" fill="none" xmlns="http://www.w3.org/2000/svg">
<path fill-rule="evenodd" clip-rule="evenodd" d="M25.7142 23.2842C28.5837 19.2578 28.2123 13.6319 24.6 10.0197C20.5737 5.99344 14.0459 5.99344 10.0197 10.0197C5.99344 14.0459 5.99344 20.5737 10.0197 24.6C13.6319 28.2122 19.2578 28.5836 23.2841 25.7142L30.0667 32.4967C30.7377 33.1678 31.8257 33.1678 32.4967 32.4967C33.1678 31.8257 33.1678 30.7377 32.4967 30.0667L25.7142 23.2842ZM21.9788 12.6408C24.5574 15.2194 24.5574 19.4002 21.9788 21.9788C19.4002 24.5574 15.2194 24.5574 12.6408 21.9788C10.0622 19.4002 10.0622 15.2194 12.6408 12.6408C15.2194 10.0622 19.4002 10.0622 21.9788 12.6408Z" fill="#BEC4CF"/>
</svg>
