<svg width="30" height="30" viewBox="0 0 30 30" fill="none" xmlns="http://www.w3.org/2000/svg">
<g clip-path="url(#clip0_291_43)">
<path d="M15.5879 3.78046L13.3375 6.16935L14.9341 7.8642C15.1322 8.07444 15.264 8.34469 15.3114 8.63775C15.3587 8.9308 15.3194 9.23224 15.1987 9.50057L16.4241 10.8024L18.1752 8.93115C17.9911 7.97511 18.0364 6.98527 18.3071 6.05272C18.5777 5.12016 19.0649 4.27483 19.7239 3.59449L19.7266 3.59161C20.3913 2.90977 21.2078 2.41768 22.1 2.16121C22.9922 1.90475 23.931 1.89226 24.8289 2.12492C25.9253 2.40867 26.2892 3.85044 25.5062 4.68253L23.468 6.8471L24.3946 7.83065L26.4301 5.66991C27.2338 4.79948 28.583 5.25291 28.8431 6.38408L28.844 6.38696C29.063 7.33989 29.0513 8.33618 28.8097 9.28298C28.5682 10.2298 28.1048 11.0963 27.4628 11.8017C26.8207 12.5071 26.0208 13.0285 25.1377 13.3172C24.2546 13.6059 23.317 13.6526 22.4123 13.453L20.674 15.3127L27.1399 22.1764C27.4814 22.5311 27.7533 22.9541 27.9398 23.421C28.1263 23.8879 28.2237 24.3895 28.2263 24.8967C28.229 25.4038 28.1368 25.9065 27.9552 26.3756C27.7735 26.8447 27.506 27.2708 27.1682 27.6294C26.8303 27.988 26.4288 28.2719 25.9869 28.4646C25.5449 28.6573 25.0714 28.7551 24.5936 28.7522C24.1159 28.7493 23.6434 28.6459 23.2035 28.4478C22.7637 28.2498 22.3653 27.9611 22.0313 27.5984L15.5834 20.7538L14.3417 22.0806C14.5157 23.0295 14.4642 24.0096 14.1919 24.9321C13.9196 25.8546 13.4351 26.6906 12.7821 27.3645L12.7794 27.3674C12.1146 28.0494 11.298 28.5416 10.4056 28.798C9.51328 29.0545 8.57427 29.0669 7.67618 28.8341C6.58076 28.5494 6.21683 27.1066 6.99888 26.2765L9.0389 24.1119L8.11236 23.1284L6.07776 25.2881C5.27403 26.1595 3.92395 25.7061 3.66387 24.574L3.66297 24.5711C3.34208 23.175 3.51997 21.7022 4.16226 20.4372C4.80455 19.1722 5.86568 18.2048 7.14066 17.7217C7.1104 17.6956 7.08146 17.6677 7.05397 17.6383L1.33036 11.5635C1.11882 11.3387 1 11.0339 1 10.7161C1 10.3983 1.11882 10.0935 1.33036 9.86868L2.04197 9.11328C2.33659 8.80055 2.69519 8.56417 3.08989 8.42252C3.48458 8.28086 3.90474 8.23775 4.31769 8.29654C4.34346 8.26364 4.37027 8.23167 4.39806 8.20067L10.7854 1.42033C10.9284 1.26885 11.1014 1.15322 11.2919 1.08189C11.4823 1.01057 11.6854 0.985366 11.8863 1.00812L14.7761 1.33214C15.031 1.36013 15.2732 1.46432 15.4746 1.6326C15.6759 1.80087 15.8282 2.02634 15.9137 2.28281C15.9992 2.53928 16.0144 2.81623 15.9575 3.0815C15.9006 3.34677 15.774 3.58947 15.5924 3.78142L15.5879 3.78046ZM5.99377 9.21969L9.5103 12.9468L13.3411 8.87938L11.8962 7.34558C11.7031 7.14803 11.5625 6.89989 11.4886 6.62621C11.4147 6.35253 11.4101 6.06301 11.4754 5.78686C11.6108 5.20593 11.9865 4.82824 12.6584 4.15337C12.9347 3.87536 13.2616 3.5456 13.6427 3.13147L11.9106 2.93975L5.99377 9.21969ZM8.88809 17.3852C9.30891 17.3776 9.73064 17.4217 10.1433 17.5166L11.3336 16.2445L10.1506 14.9887C10.1191 15.7022 9.83763 16.3775 9.36129 16.882L8.88809 17.3852ZM12.6069 14.8832L15.1517 12.1627L13.9759 10.9145L11.4221 13.6255L12.6069 14.8832ZM16.8549 19.3926L23.3073 26.242C23.6479 26.5912 24.1042 26.7845 24.5777 26.7801C25.0513 26.7757 25.5043 26.5741 25.8391 26.2186C26.174 25.8631 26.364 25.3823 26.3681 24.8796C26.3722 24.3769 26.1901 23.8926 25.8611 23.531L19.3997 16.673L16.8549 19.3926ZM3.3198 10.4697L3.08681 10.7171L7.85137 15.7748L8.08436 15.5274C8.25366 15.3477 8.34877 15.1039 8.34877 14.8497C8.34877 14.5955 8.25366 14.3517 8.08436 14.1719L4.59673 10.4697C4.42739 10.29 4.19773 10.1891 3.95827 10.1891C3.71881 10.1891 3.48915 10.29 3.3198 10.4697ZM20.9801 4.97299C20.4936 5.47717 20.1481 6.11447 19.9819 6.81427C19.8156 7.51408 19.8351 8.24909 20.0382 8.93786L20.1998 9.48906L10.6617 19.6831L10.1316 19.4971C9.48646 19.2708 8.79475 19.2393 8.13375 19.4063C7.47274 19.5732 6.86846 19.9319 6.38841 20.4423C6.02616 20.8256 5.74373 21.2853 5.55939 21.7918C5.37506 22.2982 5.29292 22.8401 5.31828 23.3824L7.09822 21.4929C7.65812 20.8986 8.56479 20.8986 9.12469 21.4929L10.5786 23.0363C11.1385 23.6307 11.1385 24.5922 10.5786 25.1875L8.79688 27.0788C9.2978 27.1039 9.79826 27.0199 10.2674 26.832C10.7366 26.644 11.1646 26.3561 11.525 25.986C12.0068 25.4869 12.3504 24.8571 12.5185 24.1652C12.6867 23.4732 12.6729 22.7456 12.4787 22.0614L12.3251 21.515L21.8841 11.2961L22.4105 11.4734C23.0515 11.6904 23.7364 11.716 24.3901 11.5472C25.0439 11.3785 25.6412 11.0219 26.1167 10.5167C26.479 10.1334 26.7614 9.67367 26.9457 9.16722C27.1301 8.66077 27.2122 8.11888 27.1868 7.57661L25.4078 9.4651C25.2748 9.60657 25.1168 9.71881 24.9428 9.79539C24.7689 9.87197 24.5824 9.91139 24.3941 9.91139C24.2058 9.91139 24.0194 9.87197 23.8454 9.79539C23.6715 9.71881 23.5135 9.60657 23.3804 9.4651L21.9265 7.92171C21.7934 7.7806 21.6878 7.61301 21.6157 7.42853C21.5437 7.24406 21.5066 7.04632 21.5066 6.84662C21.5066 6.64692 21.5437 6.44918 21.6157 6.2647C21.6878 6.08023 21.7934 5.91264 21.9265 5.77152L23.7082 3.88016C23.2074 3.85494 22.707 3.93879 22.2378 4.12657C21.7686 4.31435 21.3406 4.60303 20.9801 4.97299Z" fill="white" stroke="white" stroke-width="0.3"/>
</g>
<defs>
<clipPath id="clip0_291_43">
<rect width="30" height="30" fill="white"/>
</clipPath>
</defs>
</svg>
