<svg width="26" height="27" viewBox="0 0 26 27" fill="none" xmlns="http://www.w3.org/2000/svg">
<path d="M4.57619 7.88866L13.0521 12.1265L21.5281 7.88866L13.0521 3.65087L4.57619 7.88866ZM13.7429 0.989532L25.0343 6.74728C25.7208 7.09761 25.9681 7.89149 25.5866 8.52292C25.4536 8.73983 25.2629 8.91543 25.0357 9.03004L13.7429 14.7878C13.5287 14.8958 13.2921 14.9521 13.0521 14.9521C12.8122 14.9521 12.5756 14.8958 12.3613 14.7878L1.06998 9.03004C0.383427 8.67971 0.136212 7.88584 0.51763 7.2544C0.650627 7.03749 0.841396 6.86189 1.06857 6.74728L12.3613 0.989532C12.7908 0.770579 13.3135 0.770579 13.7429 0.989532ZM13.7429 20.4354C13.5292 20.5452 13.2924 20.6024 13.0521 20.6024C12.8119 20.6024 12.5751 20.5452 12.3613 20.4354L1.06998 14.5773C0.383427 14.2213 0.136212 13.4133 0.51763 12.772C0.649754 12.5523 0.840546 12.3737 1.06857 12.2564C1.23327 12.1707 1.41619 12.126 1.60184 12.126C1.7875 12.126 1.97042 12.1707 2.13512 12.2564L12.3628 17.5607C12.7908 17.7839 13.3135 17.7839 13.7429 17.5607L23.9691 12.2564C24.1337 12.171 24.3163 12.1264 24.5017 12.1264C24.6871 12.1264 24.8698 12.171 25.0343 12.2564C25.7208 12.6124 25.9681 13.4204 25.5866 14.0617C25.4545 14.2815 25.2637 14.46 25.0357 14.5773L13.7429 20.4354ZM13.7429 26.0857C13.5292 26.1955 13.2924 26.2528 13.0521 26.2528C12.8119 26.2528 12.5751 26.1955 12.3613 26.0857L1.06998 20.2277C0.383427 19.8717 0.136212 19.0637 0.51763 18.4224C0.649754 18.2027 0.840546 18.0241 1.06857 17.9068C1.23327 17.8211 1.41619 17.7764 1.60184 17.7764C1.7875 17.7764 1.97042 17.8211 2.13512 17.9068L12.3628 23.2111C12.7908 23.4343 13.3135 23.4343 13.7429 23.2111L23.9691 17.9068C24.1337 17.8214 24.3163 17.7768 24.5017 17.7768C24.6871 17.7768 24.8698 17.8214 25.0343 17.9068C25.7208 18.2628 25.9681 19.0708 25.5866 19.7121C25.4545 19.9319 25.2637 20.1104 25.0357 20.2277L13.7429 26.0857Z" fill="white"/>
</svg>
