<svg width="26" height="23" viewBox="0 0 26 23" fill="none" xmlns="http://www.w3.org/2000/svg">
<path fill-rule="evenodd" clip-rule="evenodd" d="M1.86502 0.58728C1.52386 0.58728 1.19384 0.720174 0.948303 0.96119C0.702269 1.20269 0.561279 1.53341 0.561279 1.88145C0.561279 2.22949 0.702269 2.56021 0.948303 2.80171C1.14555 2.99533 1.39732 2.98419 1.66559 2.97232C1.73126 2.96941 1.79793 2.96646 1.86502 2.96646H2.95849V17.3592C2.95849 17.7072 3.09948 18.038 3.34551 18.2795C3.53788 18.4683 3.7821 18.4543 4.04291 18.4394C4.115 18.4353 4.18835 18.4311 4.26223 18.4311H8.15629L5.38832 21.9999H8.54788L11.3159 18.4311H14.7977L17.5657 21.9999H20.7252L17.9573 18.4311H21.8417C21.9156 18.4311 21.989 18.4353 22.0611 18.4394C22.3219 18.4543 22.5661 18.4683 22.7585 18.2795C23.0045 18.038 23.1455 17.7072 23.1455 17.3592V2.96646H24.2389C24.306 2.96646 24.3727 2.96941 24.4384 2.97232C24.7067 2.98419 24.9584 2.99533 25.1557 2.80171C25.4017 2.56021 25.5427 2.22949 25.5427 1.88145C25.5427 1.53341 25.4017 1.20269 25.1557 0.96119C24.9101 0.720175 24.5801 0.58728 24.2389 0.58728H1.86502ZM5.38832 16.065V2.96646H20.7252V16.065H5.38832ZM17.0473 5.29335C16.7062 5.29335 16.3761 5.42625 16.1306 5.66726C15.8846 5.90877 15.7436 6.23948 15.7436 6.58752V12.6531C15.7436 13.0012 15.8846 13.3319 16.1306 13.5734C16.3761 13.8144 16.7062 13.9473 17.0473 13.9473C17.3885 13.9473 17.7185 13.8144 17.964 13.5734C18.2101 13.3319 18.3511 13.0012 18.3511 12.6531V6.58752C18.3511 6.23948 18.2101 5.90877 17.964 5.66726C17.7185 5.42625 17.3885 5.29335 17.0473 5.29335ZM13.052 6.86205C12.7108 6.86205 12.3808 6.99494 12.1353 7.23596C11.8892 7.47746 11.7482 7.80817 11.7482 8.15622V12.6531C11.7482 13.0012 11.8892 13.3319 12.1353 13.5734C12.3808 13.8144 12.7108 13.9473 13.052 13.9473C13.3932 13.9473 13.7232 13.8144 13.9687 13.5734C14.2147 13.3319 14.3557 13.0012 14.3557 12.6531V8.15622C14.3557 7.80817 14.2147 7.47746 13.9687 7.23596C13.7232 6.99494 13.3932 6.86205 13.052 6.86205ZM9.05664 8.43074C8.71547 8.43074 8.38546 8.56363 8.13992 8.80465C7.89389 9.04615 7.7529 9.37686 7.7529 9.72491V12.6531C7.7529 13.0012 7.89389 13.3319 8.13992 13.5734C8.38546 13.8144 8.71547 13.9473 9.05664 13.9473C9.39781 13.9473 9.72782 13.8144 9.97336 13.5734C10.2194 13.3319 10.3604 13.0012 10.3604 12.6531V9.72491C10.3604 9.37686 10.2194 9.04615 9.97336 8.80465C9.72782 8.56363 9.39781 8.43074 9.05664 8.43074Z" fill="white"/>
</svg>
