<svg width="20" height="19" viewBox="0 0 20 19" fill="none" xmlns="http://www.w3.org/2000/svg">
<path d="M19.2088 17.0929L14.9016 12.7856C15.9386 11.4052 16.4984 9.72482 16.4965 7.99824C16.4965 3.58804 12.9084 0 8.49824 0C4.08804 0 0.5 3.58804 0.5 7.99824C0.5 12.4084 4.08804 15.9965 8.49824 15.9965C10.2248 15.9984 11.9052 15.4386 13.2856 14.4016L17.5929 18.7088C17.8109 18.9037 18.0952 19.0077 18.3876 18.9996C18.6799 18.9914 18.958 18.8716 19.1648 18.6648C19.3716 18.458 19.4914 18.1799 19.4996 17.8876C19.5077 17.5952 19.4037 17.3109 19.2088 17.0929ZM2.78521 7.99824C2.78521 6.86831 3.12027 5.76375 3.74803 4.82425C4.37579 3.88475 5.26804 3.1525 6.31196 2.72009C7.35588 2.28768 8.50458 2.17455 9.6128 2.39499C10.721 2.61542 11.739 3.15954 12.538 3.95852C13.3369 4.7575 13.8811 5.77546 14.1015 6.88368C14.3219 7.9919 14.2088 9.1406 13.7764 10.1845C13.344 11.2284 12.6117 12.1207 11.6722 12.7484C10.7327 13.3762 9.62817 13.7113 8.49824 13.7113C6.98361 13.7095 5.53153 13.107 4.46053 12.036C3.38952 10.9649 2.78703 9.51287 2.78521 7.99824Z" fill="#AFAFAF"/>
</svg>
