<svg width="22" height="22" viewBox="0 0 22 22" fill="none" xmlns="http://www.w3.org/2000/svg">
<g clip-path="url(#clip0_281_135)">
<path d="M10.9409 2.98604L9.25311 4.69239L10.4506 5.903C10.5991 6.05317 10.698 6.24621 10.7335 6.45553C10.7691 6.66486 10.7395 6.88017 10.649 7.07183L11.5681 8.0017L12.8814 6.6651C12.7433 5.98222 12.7773 5.2752 12.9803 4.60908C13.1833 3.94297 13.5487 3.33916 14.0429 2.85321L14.045 2.85115C14.5435 2.36412 15.1558 2.01263 15.825 1.82944C16.4941 1.64625 17.1982 1.63733 17.8717 1.80351C18.6939 2.00619 18.9669 3.03603 18.3797 3.63038L16.851 5.1765L17.5459 5.87903L19.0726 4.33565C19.6753 3.71391 20.6872 4.03779 20.8823 4.84577L20.883 4.84783C21.0473 5.52849 21.0384 6.24013 20.8573 6.91641C20.6762 7.5927 20.3286 8.21162 19.8471 8.71548C19.3655 9.21934 18.7656 9.59175 18.1033 9.798C17.441 10.0042 16.7378 10.0376 16.0593 9.89498L14.7555 11.2234L19.6049 16.126C19.8611 16.3793 20.065 16.6815 20.2049 17.015C20.3447 17.3485 20.4178 17.7068 20.4198 18.069C20.4217 18.4313 20.3526 18.7903 20.2164 19.1254C20.0801 19.4605 19.8795 19.7649 19.6261 20.021C19.3727 20.2771 19.0716 20.4799 18.7401 20.6176C18.4087 20.7552 18.0535 20.8251 17.6952 20.823C17.3369 20.8209 16.9825 20.747 16.6527 20.6056C16.3228 20.4641 16.0239 20.2579 15.7734 19.9989L10.9375 15.1099L10.0063 16.0576C10.1368 16.7354 10.0982 17.4354 9.89394 18.0944C9.68972 18.7533 9.32632 19.3504 8.83657 19.8318L8.83454 19.8339C8.33597 20.321 7.72349 20.6726 7.05422 20.8557C6.38496 21.0389 5.6807 21.0478 5.00713 20.8815C4.18557 20.6781 3.91262 19.6476 4.49916 19.0546L6.02917 17.5085L5.33427 16.806L3.80832 18.3487C3.20552 18.9711 2.19296 18.6472 1.9979 17.8385L1.99723 17.8365C1.75656 16.8393 1.88998 15.7873 2.3717 14.8837C2.85341 13.9801 3.64926 13.2891 4.6055 12.9441C4.5828 12.9254 4.5611 12.9055 4.54048 12.8845L0.247768 8.54538C0.0891135 8.38477 0 8.16706 0 7.94007C0 7.71309 0.0891135 7.49538 0.247768 7.33477L0.781478 6.7952C1.00244 6.57182 1.27139 6.40298 1.56742 6.3018C1.86344 6.20062 2.17856 6.16982 2.48827 6.21181C2.5076 6.18831 2.5277 6.16548 2.54855 6.14334L7.33907 1.30024C7.44627 1.19204 7.57604 1.10944 7.7189 1.0585C7.86175 1.00755 8.01407 0.989547 8.16469 1.0058L10.332 1.23724C10.5232 1.25724 10.7049 1.33166 10.8559 1.45185C11.0069 1.57205 11.1211 1.7331 11.1853 1.91629C11.2494 2.09949 11.2608 2.29731 11.2181 2.48679C11.1755 2.67626 11.0805 2.84962 10.9443 2.98673L10.9409 2.98604ZM3.74533 6.87121L6.38272 9.53344L9.25582 6.62813L8.17214 5.53256C8.0273 5.39145 7.92185 5.21421 7.86644 5.01872C7.81102 4.82324 7.8076 4.61643 7.85652 4.41919C7.95812 4.00424 8.23987 3.73445 8.74378 3.2524C8.95103 3.05383 9.19621 2.81828 9.48203 2.52248L8.18298 2.38553L3.74533 6.87121ZM5.91606 12.7037C6.23169 12.6983 6.54798 12.7298 6.85751 12.7976L7.75018 11.8889L6.86293 10.9919C6.83935 11.5016 6.62822 11.9839 6.27097 12.3443L5.91606 12.7037ZM8.70517 10.9166L10.6138 8.97333L9.73196 8.08181L7.81656 10.0182L8.70517 10.9166ZM11.8912 14.1376L16.7305 19.03C16.9859 19.2794 17.3281 19.4175 17.6833 19.4143C18.0385 19.4112 18.3782 19.2672 18.6294 19.0133C18.8805 18.7594 19.023 18.4159 19.0261 18.0568C19.0291 17.6978 18.8926 17.3518 18.6459 17.0936L13.7998 12.195L11.8912 14.1376ZM1.73985 7.7641L1.56511 7.94076L5.13853 11.5534L5.31327 11.3767C5.44024 11.2483 5.51157 11.0742 5.51157 10.8926C5.51157 10.7111 5.44024 10.5369 5.31327 10.4085L2.69755 7.7641C2.57054 7.63573 2.3983 7.56362 2.2187 7.56362C2.03911 7.56362 1.86687 7.63573 1.73985 7.7641ZM14.9851 3.83785C14.6202 4.19798 14.3611 4.65319 14.2364 5.15305C14.1117 5.65292 14.1263 6.17792 14.2786 6.6699L14.3999 7.06362L7.24628 14.345L6.8487 14.2122C6.36485 14.0506 5.84607 14.0281 5.35031 14.1473C4.85456 14.2666 4.40135 14.5228 4.04131 14.8874C3.76962 15.1611 3.5578 15.4895 3.41955 15.8513C3.28129 16.213 3.21969 16.6001 3.23871 16.9874L4.57366 15.6378C4.99359 15.2133 5.67359 15.2133 6.09352 15.6378L7.18396 16.7402C7.60389 17.1648 7.60389 17.8516 7.18396 18.2768L5.84766 19.6277C6.22335 19.6457 6.59869 19.5857 6.95058 19.4514C7.30247 19.3172 7.62345 19.1115 7.89377 18.8472C8.25509 18.4906 8.51281 18.0408 8.63891 17.5466C8.76501 17.0523 8.75467 16.5326 8.609 16.0439L8.49386 15.6536L15.663 8.35434L16.0579 8.48101C16.5386 8.63603 17.0523 8.65428 17.5426 8.53374C18.0329 8.4132 18.4809 8.15853 18.8375 7.79765C19.1092 7.52387 19.321 7.19548 19.4593 6.83373C19.5975 6.47198 19.6592 6.08492 19.6401 5.69758L18.3059 7.0465C18.2061 7.14755 18.0876 7.22772 17.9571 7.28242C17.8267 7.33713 17.6868 7.36528 17.5456 7.36528C17.4044 7.36528 17.2645 7.33713 17.1341 7.28242C17.0036 7.22772 16.8851 7.14755 16.7853 7.0465L15.6949 5.94408C15.595 5.84328 15.5158 5.72358 15.4618 5.59181C15.4078 5.46004 15.38 5.3188 15.38 5.17616C15.38 5.03351 15.4078 4.89227 15.4618 4.7605C15.5158 4.62873 15.595 4.50903 15.6949 4.40823L17.0312 3.05726C16.6555 3.03924 16.2802 3.09914 15.9283 3.23327C15.5765 3.36739 15.2554 3.57359 14.9851 3.83785Z" fill="url(#paint0_linear_281_135)" stroke="url(#paint1_linear_281_135)" stroke-width="0.3"/>
</g>
<defs>
<linearGradient id="paint0_linear_281_135" x1="-6.825" y1="4.5" x2="14.15" y2="26.5238" gradientUnits="userSpaceOnUse">
<stop stop-color="#838EE7"/>
<stop offset="1" stop-color="#E8A0B0"/>
</linearGradient>
<linearGradient id="paint1_linear_281_135" x1="-6.825" y1="4.5" x2="14.15" y2="26.5238" gradientUnits="userSpaceOnUse">
<stop stop-color="#838EE7"/>
<stop offset="1" stop-color="#E8A0B0"/>
</linearGradient>
<clipPath id="clip0_281_135">
<rect width="22" height="22" fill="white"/>
</clipPath>
</defs>
</svg>
