<svg width="24" height="24" viewBox="0 0 24 24" fill="none" xmlns="http://www.w3.org/2000/svg">
<path d="M15.3334 19.4166C15.3334 20.9814 14.0649 22.25 12.5001 22.25C10.9353 22.25 9.66675 20.9814 9.66675 19.4166" stroke="white" stroke-width="2"/>
<path d="M7.48843 8.3L6.55587 7.93898L6.5265 8.01487L6.50977 8.09451L7.48843 8.3ZM12.4437 5.00451L12.497 6.00309L13.4437 5.95256V5.00451H12.4437ZM6.24962 14.2L5.27096 13.9945L5.26407 14.0274L5.25939 14.0606L6.24962 14.2ZM6.137 15L6.7751 15.77L7.07326 15.5229L7.12724 15.1394L6.137 15ZM4.44772 16.4L3.80962 15.63L3.75786 15.6729L3.71231 15.7224L4.44772 16.4ZM4.44772 18.3L3.82816 19.085L3.87219 19.1197L3.91982 19.1493L4.44772 18.3ZM5.57392 19L5.04602 19.8493L5.28846 20H5.57392L5.57392 19ZM12.4437 19L12.4437 20H12.4437V19ZM19.4261 19V20H19.7115L19.954 19.8493L19.4261 19ZM20.5523 18.3L21.0802 19.1493L21.1278 19.1197L21.1718 19.085L20.5523 18.3ZM20.5523 16.4L21.2877 15.7224L21.2421 15.6729L21.1904 15.6301L20.5523 16.4ZM18.863 15L17.8728 15.1394L17.9267 15.5229L18.2249 15.77L18.863 15ZM18.7504 14.2L19.7406 14.0606L19.7359 14.0274L19.729 13.9945L18.7504 14.2ZM17.5116 8.3L18.4902 8.09452L18.4735 8.01488L18.4441 7.93899L17.5116 8.3ZM12.5563 5.00451H11.5563V5.95256L12.503 6.00309L12.5563 5.00451ZM12.5563 5H13.5563V3.97354L12.5302 4.00034L12.5563 5ZM12.4999 5.00187L12.4598 6.00107L12.5 6.00268L12.5401 6.00107L12.4999 5.00187ZM12.4437 5.00001L12.4698 4.00035L11.4437 3.97355V5.00001H12.4437ZM8.42099 8.66102C8.79503 7.69482 9.50275 7.05115 10.299 6.63001C11.1075 6.20242 11.9608 6.0317 12.497 6.00309L12.3904 4.00593C11.6049 4.04786 10.462 4.28131 9.36398 4.86205C8.25376 5.44923 7.14468 6.41803 6.55587 7.93898L8.42099 8.66102ZM7.22828 14.4055L8.46709 8.50549L6.50977 8.09451L5.27096 13.9945L7.22828 14.4055ZM7.12724 15.1394L7.23986 14.3394L5.25939 14.0606L5.14677 14.8606L7.12724 15.1394ZM5.08582 17.17L6.7751 15.77L5.4989 14.23L3.80962 15.63L5.08582 17.17ZM5.06727 17.515C4.99584 17.4587 4.99409 17.4323 4.99936 17.4469C5.00298 17.457 4.99661 17.4517 5.00291 17.4145C5.00997 17.3728 5.03007 17.3119 5.06924 17.2401C5.10823 17.1685 5.15279 17.1105 5.18312 17.0776L3.71231 15.7224C3.45543 16.0012 3.13165 16.486 3.03098 17.0805C2.91687 17.7544 3.10845 18.5169 3.82816 19.085L5.06727 17.515ZM6.10181 18.1507L4.97561 17.4507L3.91982 19.1493L5.04602 19.8493L6.10181 18.1507ZM12.4437 18L5.57392 18L5.57392 20L12.4437 20L12.4437 18ZM12.4437 20H19.4261V18H12.4437V20ZM19.954 19.8493L21.0802 19.1493L20.0244 17.4507L18.8982 18.1507L19.954 19.8493ZM21.1718 19.085C21.8916 18.5169 22.0831 17.7544 21.969 17.0805C21.8683 16.486 21.5446 16.0012 21.2877 15.7224L19.8169 17.0776C19.8472 17.1105 19.8918 17.1685 19.9308 17.2401C19.9699 17.3119 19.99 17.3728 19.9971 17.4145C20.0034 17.4517 19.997 17.457 20.0006 17.4469C20.0059 17.4323 20.0042 17.4587 19.9327 17.5151L21.1718 19.085ZM21.1904 15.6301L19.5011 14.2301L18.2249 15.77L19.9142 17.17L21.1904 15.6301ZM19.8532 14.8606L19.7406 14.0606L17.7601 14.3394L17.8728 15.1394L19.8532 14.8606ZM19.729 13.9945L18.4902 8.09452L16.5329 8.50549L17.7717 14.4055L19.729 13.9945ZM18.4441 7.93899C17.8553 6.41803 16.7462 5.44923 15.636 4.86205C14.538 4.28131 13.3951 4.04786 12.6096 4.00594L12.503 6.00309C13.0392 6.03171 13.8925 6.20243 14.701 6.63001C15.4972 7.05115 16.205 7.69483 16.579 8.66102L18.4441 7.93899ZM11.5563 5V5.00451H13.5563V5H11.5563ZM12.5401 6.00107C12.5546 6.00048 12.5687 6.00002 12.5824 5.99966L12.5302 4.00034C12.5069 4.00095 12.4835 4.00173 12.4598 4.00268L12.5401 6.00107ZM12.5401 4.00268C12.5164 4.00173 12.493 4.00095 12.4698 4.00035L12.4176 5.99966C12.4313 6.00002 12.4453 6.00049 12.4598 6.00107L12.5401 4.00268ZM11.4437 5.00001V5.00451H13.4437V5.00001H11.4437Z" fill="white"/>
<path d="M11.75 5C11.3016 4.72205 11 4.20254 11 3.60753C11 2.71972 11.6716 2 12.5 2C13.3284 2 14 2.71972 14 3.60753C14 4.20254 13.6984 4.72205 13.25 5" stroke="white" stroke-width="2"/>
</svg>
