<svg width="24" height="24" viewBox="0 0 24 24" fill="none" xmlns="http://www.w3.org/2000/svg">
<path d="M2.84363 16.1081L3.71729 16.5946L3.97155 16.1381L3.74191 15.6687L2.84363 16.1081ZM1.17412 19.106L2.04778 19.5925L1.17412 19.106ZM2.28563 20.5638L2.04778 19.5925H2.04778L2.28563 20.5638ZM5.74358 19.717L6.36668 18.9349L5.98264 18.629L5.50573 18.7457L5.74358 19.717ZM21.7811 11.5C21.7811 16.7467 17.5278 21 12.2811 21V23C18.6323 23 23.7811 17.8513 23.7811 11.5H21.7811ZM12.2811 2C17.5278 2 21.7811 6.25329 21.7811 11.5H23.7811C23.7811 5.14873 18.6323 0 12.2811 0V2ZM2.78107 11.5C2.78107 6.25329 7.03436 2 12.2811 2V0C5.92979 0 0.781069 5.14873 0.781069 11.5H2.78107ZM3.74191 15.6687C3.12681 14.4113 2.78107 12.9975 2.78107 11.5H0.781069C0.781069 13.3087 1.19934 15.0226 1.94536 16.5475L3.74191 15.6687ZM2.04778 19.5925L3.71729 16.5946L1.96998 15.6216L0.300462 18.6194L2.04778 19.5925ZM2.04778 19.5925L2.04778 19.5925L0.300462 18.6194C-0.549153 20.1451 0.827367 21.9505 2.52348 21.5351L2.04778 19.5925ZM5.50573 18.7457L2.04778 19.5925L2.52348 21.5351L5.98143 20.6883L5.50573 18.7457ZM12.2811 21C10.0439 21 7.98974 20.2279 6.36668 18.9349L5.12048 20.4992C7.08488 22.0641 9.57506 23 12.2811 23V21Z" fill="white"/>
<rect x="7" y="11" width="9" height="2" rx="1" fill="white"/>
<rect x="7" y="15" width="4" height="2" rx="1" fill="white"/>
<rect x="7" y="7" width="9" height="2" rx="1" fill="white"/>
</svg>
