<svg width="28" height="28" viewBox="0 0 28 28" fill="none" xmlns="http://www.w3.org/2000/svg">
<path fill-rule="evenodd" clip-rule="evenodd" d="M11.3234 2.2137C11.4604 1.50886 12.0778 1 12.7958 1H15.2042C15.9222 1 16.5396 1.50886 16.6766 2.2137L16.8816 3.26799C16.9871 3.81056 17.3861 4.24277 17.8977 4.45185C17.93 4.46507 17.9623 4.47844 17.9945 4.49197C18.5042 4.70638 19.0922 4.68299 19.5507 4.37379L20.4416 3.77293C21.0369 3.37145 21.8333 3.44815 22.341 3.95588L24.044 5.65886C24.5517 6.16659 24.6284 6.96293 24.2269 7.55823L23.6261 8.44908C23.3169 8.90756 23.2935 9.49559 23.5079 10.0053C23.5215 10.0376 23.5349 10.0699 23.5481 10.1023C23.7572 10.6139 24.1894 11.0129 24.732 11.1184L25.7863 11.3234C26.4911 11.4604 27 12.0778 27 12.7958V15.2042C27 15.9222 26.4911 16.5396 25.7863 16.6766L24.732 16.8816C24.1894 16.9871 23.7572 17.3861 23.5481 17.8977C23.5349 17.9301 23.5215 17.9624 23.508 17.9946C23.2935 18.5044 23.3169 19.0924 23.6261 19.5509L24.2268 20.4415C24.6283 21.0368 24.5516 21.8332 24.0439 22.3409L22.3409 24.0439C21.8332 24.5516 21.0368 24.6283 20.4415 24.2268L19.5509 23.6261C19.0924 23.3169 18.5043 23.2936 17.9946 23.508C17.9624 23.5215 17.9301 23.5349 17.8977 23.5481C17.3861 23.7572 16.9871 24.1894 16.8816 24.732L16.6766 25.7863C16.5396 26.4911 15.9222 27 15.2042 27H12.7958C12.0778 27 11.4604 26.4911 11.3234 25.7863L11.1184 24.732C11.0129 24.1894 10.6139 23.7572 10.1023 23.5481C10.0699 23.5349 10.0376 23.5215 10.0054 23.508C9.49569 23.2936 8.90766 23.317 8.44918 23.6262L7.55856 24.2268C6.96326 24.6283 6.16692 24.5516 5.65919 24.0439L3.95621 22.3409C3.44848 21.8332 3.37178 21.0368 3.77326 20.4415L4.37389 19.5509C4.6831 19.0925 4.70648 18.5044 4.49206 17.9947C4.4785 17.9624 4.4651 17.9301 4.45185 17.8977C4.24277 17.3861 3.81056 16.9871 3.26799 16.8816L2.21369 16.6766C1.50886 16.5396 1 15.9222 1 15.2042V12.7958C1 12.0778 1.50886 11.4604 2.2137 11.3234L3.26799 11.1184C3.81056 11.0129 4.24277 10.6139 4.45185 10.1023C4.46508 10.0699 4.47848 10.0376 4.49202 10.0054C4.70644 9.49567 4.68305 8.90764 4.37385 8.44916L3.77315 7.55847C3.37167 6.96317 3.44837 6.16683 3.9561 5.6591L5.65908 3.95612C6.16681 3.44839 6.96315 3.37169 7.55845 3.77318L8.44913 4.37386C8.9076 4.68307 9.49564 4.70645 10.0054 4.49204C10.0376 4.47848 10.0699 4.46509 10.1023 4.45185C10.6139 4.24277 11.0129 3.81056 11.1184 3.26799L11.3234 2.2137ZM14 19.5714C17.077 19.5714 19.5714 17.077 19.5714 14C19.5714 10.923 17.077 8.42854 14 8.42854C10.923 8.42854 8.42854 10.923 8.42854 14C8.42854 17.077 10.923 19.5714 14 19.5714Z" fill="white"/>
<path d="M8.44913 4.37386L7.88999 5.20294L8.44913 4.37386ZM10.0054 4.49204L9.61764 3.57027L10.0054 4.49204ZM7.55845 3.77318L8.11759 2.94411L7.55845 3.77318ZM4.37385 8.44916L5.20292 7.89002L4.37385 8.44916ZM4.45185 10.1023L3.52616 9.72401L4.45185 10.1023ZM2.2137 11.3234L2.40457 12.305L2.2137 11.3234ZM2.21369 16.6766L2.40457 15.695L2.21369 16.6766ZM4.45185 17.8977L3.52616 18.276L4.45185 17.8977ZM3.26799 16.8816L3.07712 17.8632L3.26799 16.8816ZM4.37389 19.5509L5.20296 20.1101L4.37389 19.5509ZM3.77326 20.4415L4.60234 21.0007L3.77326 20.4415ZM10.0054 23.508L10.3932 22.5862L10.0054 23.508ZM8.44918 23.6262L7.89004 22.7971L8.44918 23.6262ZM11.1184 24.732L12.1 24.5411L11.1184 24.732ZM10.1023 23.5481L9.72401 24.4738L10.1023 23.5481ZM17.8977 23.5481L17.5194 22.6225L17.8977 23.5481ZM16.8816 24.732L17.8632 24.9229L16.8816 24.732ZM19.5509 23.6261L18.9917 24.4552L19.5509 23.6261ZM22.3409 24.0439L21.6338 23.3368L22.3409 24.0439ZM20.4415 24.2268L19.8824 25.0559L20.4415 24.2268ZM24.0439 22.3409L23.3368 21.6338L24.0439 22.3409ZM23.508 17.9946L22.5862 17.6069L23.508 17.9946ZM23.6261 19.5509L24.4552 18.9917L23.6261 19.5509ZM24.732 16.8816L24.5411 15.9L24.732 16.8816ZM25.7863 16.6766L25.5954 15.695L25.7863 16.6766ZM25.7863 11.3234L25.9772 10.3418L25.7863 11.3234ZM23.5481 10.1023L22.6225 10.4806L23.5481 10.1023ZM23.6261 8.44908L22.797 7.88994L23.6261 8.44908ZM24.044 5.65886L24.7511 4.95175L24.044 5.65886ZM24.2269 7.55823L23.3978 6.99909L24.2269 7.55823ZM20.4416 3.77293L19.8825 2.94386L20.4416 3.77293ZM22.341 3.95588L23.0481 3.24878L22.341 3.95588ZM16.8816 3.26799L17.8632 3.07712L16.8816 3.26799ZM17.8977 4.45185L17.5194 5.37755L17.8977 4.45185ZM11.3234 2.2137L12.305 2.40457L11.3234 2.2137ZM16.6766 2.2137L15.695 2.40457L16.6766 2.2137ZM15.2042 0H12.7958V2H15.2042V0ZM17.8632 3.07712L17.6582 2.02283L15.695 2.40457L15.9 3.45886L17.8632 3.07712ZM18.3822 3.5702C18.3469 3.55534 18.3115 3.54066 18.276 3.52616L17.5194 5.37755C17.5486 5.38947 17.5777 5.40154 17.6068 5.41375L18.3822 3.5702ZM19.8825 2.94386L18.9916 3.54472L20.1098 5.20286L21.0008 4.60201L19.8825 2.94386ZM24.7511 4.95175L23.0481 3.24878L21.6339 4.66299L23.3369 6.36597L24.7511 4.95175ZM24.4552 9.00822L25.056 8.11737L23.3978 6.99909L22.797 7.88994L24.4552 9.00822ZM24.4738 9.72401C24.4593 9.68845 24.4446 9.65298 24.4297 9.6176L22.5862 10.3931C22.5984 10.4222 22.6105 10.4513 22.6225 10.4806L24.4738 9.72401ZM25.9772 10.3418L24.9229 10.1368L24.5411 12.1L25.5954 12.305L25.9772 10.3418ZM28 15.2042V12.7958H26V15.2042H28ZM24.9229 17.8632L25.9772 17.6582L25.5954 15.695L24.5411 15.9L24.9229 17.8632ZM24.4297 18.3824C24.4446 18.347 24.4593 18.3115 24.4738 18.276L22.6225 17.5194C22.6105 17.5487 22.5984 17.5778 22.5862 17.6069L24.4297 18.3824ZM25.0559 19.8824L24.4552 18.9917L22.7971 20.11L23.3977 21.0007L25.0559 19.8824ZM23.048 24.751L24.751 23.048L23.3368 21.6338L21.6338 23.3368L23.048 24.751ZM18.9917 24.4552L19.8824 25.0559L21.0007 23.3978L20.11 22.7971L18.9917 24.4552ZM18.276 24.4738C18.3115 24.4593 18.347 24.4446 18.3823 24.4297L17.6069 22.5862C17.5778 22.5984 17.5487 22.6105 17.5194 22.6225L18.276 24.4738ZM17.6582 25.9772L17.8632 24.9229L15.9 24.5411L15.695 25.5954L17.6582 25.9772ZM12.7958 28H15.2042V26H12.7958V28ZM10.1368 24.9229L10.3418 25.9772L12.305 25.5954L12.1 24.5411L10.1368 24.9229ZM9.61769 24.4298C9.65304 24.4446 9.68848 24.4593 9.72401 24.4738L10.4806 22.6225C10.4513 22.6105 10.4222 22.5984 10.3932 22.5862L9.61769 24.4298ZM8.1177 25.0559L9.00832 24.4552L7.89004 22.7971L6.99942 23.3977L8.1177 25.0559ZM3.24911 23.048L4.95208 24.751L6.3663 23.3368L4.66332 21.6338L3.24911 23.048ZM3.54482 18.9918L2.94419 19.8824L4.60234 21.0007L5.20296 20.1101L3.54482 18.9918ZM3.52616 18.276C3.54069 18.3116 3.5554 18.347 3.57029 18.3824L5.41383 17.6069C5.40159 17.5778 5.3895 17.5487 5.37755 17.5194L3.52616 18.276ZM2.02282 17.6582L3.07712 17.8632L3.45886 15.9L2.40457 15.695L2.02282 17.6582ZM0 12.7958V15.2042H2V12.7958H0ZM3.07712 10.1368L2.02283 10.3418L2.40457 12.305L3.45886 12.1L3.07712 10.1368ZM3.57025 9.61767C3.55538 9.65303 3.54068 9.68848 3.52616 9.72401L5.37755 10.4806C5.38949 10.4513 5.40157 10.4222 5.4138 10.3931L3.57025 9.61767ZM2.94408 8.11762L3.54478 9.0083L5.20292 7.89002L4.60223 6.99933L2.94408 8.11762ZM4.95197 3.24902L3.249 4.95199L4.66321 6.36621L6.36619 4.66323L4.95197 3.24902ZM9.00827 3.54479L8.11759 2.94411L6.99931 4.60225L7.88999 5.20294L9.00827 3.54479ZM9.72401 3.52616C9.68846 3.54069 9.65301 3.55539 9.61764 3.57027L10.3931 5.41381C10.4222 5.40158 10.4513 5.38949 10.4806 5.37755L9.72401 3.52616ZM10.3418 2.02283L10.1368 3.07712L12.1 3.45886L12.305 2.40457L10.3418 2.02283ZM18.5714 14C18.5714 16.5247 16.5247 18.5714 14 18.5714V20.5714C17.6293 20.5714 20.5714 17.6293 20.5714 14H18.5714ZM14 9.42854C16.5247 9.42854 18.5714 11.4752 18.5714 14H20.5714C20.5714 10.3707 17.6293 7.42854 14 7.42854V9.42854ZM9.42854 14C9.42854 11.4752 11.4752 9.42854 14 9.42854V7.42854C10.3707 7.42854 7.42854 10.3707 7.42854 14H9.42854ZM14 18.5714C11.4752 18.5714 9.42854 16.5247 9.42854 14H7.42854C7.42854 17.6293 10.3707 20.5714 14 20.5714V18.5714ZM10.4806 5.37755C11.2586 5.05963 11.9212 4.37822 12.1 3.45886L10.1368 3.07712C10.1045 3.2429 9.96933 3.42592 9.72401 3.52616L10.4806 5.37755ZM7.88999 5.20294C8.66686 5.72687 9.61786 5.73991 10.3931 5.41381L9.61764 3.57027C9.37341 3.673 9.14835 3.63927 9.00827 3.54479L7.88999 5.20294ZM6.36619 4.66323C6.53543 4.49399 6.80088 4.46842 6.99931 4.60225L8.11759 2.94411C7.12542 2.27496 5.79819 2.4028 4.95197 3.24902L6.36619 4.66323ZM4.60223 6.99933C4.4684 6.8009 4.49397 6.53545 4.66321 6.36621L3.249 4.95199C2.40278 5.79821 2.27494 7.12544 2.94408 8.11762L4.60223 6.99933ZM5.4138 10.3931C5.73989 9.61789 5.72686 8.66689 5.20292 7.89002L3.54478 9.0083C3.63925 9.14838 3.67298 9.37345 3.57025 9.61767L5.4138 10.3931ZM3.45886 12.1C4.37822 11.9212 5.05963 11.2586 5.37755 10.4806L3.52616 9.72401C3.42592 9.96933 3.2429 10.1045 3.07712 10.1368L3.45886 12.1ZM2 12.7958C2 12.5565 2.16962 12.3507 2.40457 12.305L2.02283 10.3418C0.848097 10.5702 0 11.5991 0 12.7958H2ZM2.40457 15.695C2.16962 15.6493 2 15.4435 2 15.2042H0C0 16.4009 0.848096 17.4298 2.02282 17.6582L2.40457 15.695ZM5.37755 17.5194C5.05963 16.7414 4.37822 16.0788 3.45886 15.9L3.07712 17.8632C3.2429 17.8955 3.42592 18.0307 3.52616 18.276L5.37755 17.5194ZM5.20296 20.1101C5.7269 19.3332 5.73993 18.3822 5.41383 17.6069L3.57029 18.3824C3.67302 18.6266 3.63929 18.8517 3.54482 18.9918L5.20296 20.1101ZM4.66332 21.6338C4.49408 21.4645 4.46851 21.1991 4.60234 21.0007L2.94419 19.8824C2.27505 20.8745 2.40289 22.2018 3.24911 23.048L4.66332 21.6338ZM6.99942 23.3977C6.80098 23.5316 6.53554 23.506 6.3663 23.3368L4.95208 24.751C5.7983 25.5972 7.12553 25.725 8.1177 25.0559L6.99942 23.3977ZM10.3932 22.5862C9.61791 22.2601 8.66691 22.2732 7.89004 22.7971L9.00832 24.4552C9.1484 24.3608 9.37347 24.327 9.61769 24.4298L10.3932 22.5862ZM12.1 24.5411C11.9212 23.6218 11.2586 22.9404 10.4806 22.6225L9.72401 24.4738C9.96933 24.5741 10.1045 24.7571 10.1368 24.9229L12.1 24.5411ZM12.7958 26C12.5565 26 12.3507 25.8304 12.305 25.5954L10.3418 25.9772C10.5702 27.1519 11.5991 28 12.7958 28V26ZM15.695 25.5954C15.6493 25.8304 15.4435 26 15.2042 26V28C16.4009 28 17.4298 27.1519 17.6582 25.9772L15.695 25.5954ZM17.5194 22.6225C16.7414 22.9404 16.0788 23.6218 15.9 24.5411L17.8632 24.9229C17.8955 24.7571 18.0307 24.5741 18.276 24.4738L17.5194 22.6225ZM20.11 22.7971C19.3331 22.2731 18.3821 22.2601 17.6069 22.5862L18.3823 24.4297C18.6266 24.327 18.8516 24.3607 18.9917 24.4552L20.11 22.7971ZM21.6338 23.3368C21.4645 23.506 21.1991 23.5316 21.0007 23.3978L19.8824 25.0559C20.8745 25.725 22.2018 25.5972 23.048 24.751L21.6338 23.3368ZM23.3977 21.0007C23.5316 21.1991 23.506 21.4646 23.3368 21.6338L24.751 23.048C25.5972 22.2018 25.725 20.8746 25.0559 19.8824L23.3977 21.0007ZM22.5862 17.6069C22.2601 18.3821 22.2731 19.3331 22.7971 20.11L24.4552 18.9917C24.3607 18.8517 24.327 18.6266 24.4297 18.3824L22.5862 17.6069ZM24.5411 15.9C23.6218 16.0788 22.9404 16.7414 22.6225 17.5194L24.4738 18.276C24.5741 18.0307 24.7571 17.8955 24.9229 17.8632L24.5411 15.9ZM26 15.2042C26 15.4435 25.8304 15.6493 25.5954 15.695L25.9772 17.6582C27.1519 17.4298 28 16.4009 28 15.2042H26ZM25.5954 12.305C25.8304 12.3507 26 12.5565 26 12.7958H28C28 11.5991 27.1519 10.5702 25.9772 10.3418L25.5954 12.305ZM22.6225 10.4806C22.9404 11.2586 23.6218 11.9212 24.5411 12.1L24.9229 10.1368C24.7571 10.1045 24.5741 9.96933 24.4738 9.72401L22.6225 10.4806ZM22.797 7.88994C22.2731 8.66681 22.2601 9.61782 22.5862 10.3931L24.4297 9.6176C24.327 9.37337 24.3607 9.1483 24.4552 9.00822L22.797 7.88994ZM23.3369 6.36597C23.5061 6.53521 23.5317 6.80066 23.3978 6.99909L25.056 8.11737C25.7251 7.1252 25.5973 5.79797 24.7511 4.95175L23.3369 6.36597ZM21.0008 4.60201C21.1992 4.46818 21.4646 4.49375 21.6339 4.66299L23.0481 3.24878C22.2019 2.40256 20.8747 2.27472 19.8825 2.94386L21.0008 4.60201ZM17.6068 5.41375C18.382 5.73983 19.333 5.72679 20.1098 5.20286L18.9916 3.54472C18.8515 3.63919 18.6264 3.67292 18.3822 3.5702L17.6068 5.41375ZM15.9 3.45886C16.0788 4.37822 16.7414 5.05963 17.5194 5.37755L18.276 3.52616C18.0307 3.42592 17.8955 3.2429 17.8632 3.07712L15.9 3.45886ZM12.7958 0C11.5991 0 10.5702 0.848096 10.3418 2.02283L12.305 2.40457C12.3507 2.16962 12.5565 2 12.7958 2V0ZM15.2042 2C15.4435 2 15.6493 2.16962 15.695 2.40457L17.6582 2.02283C17.4298 0.848097 16.4009 0 15.2042 0V2Z" fill="#44516A"/>
</svg>
