<svg width="28" height="28" viewBox="0 0 28 28" fill="none" xmlns="http://www.w3.org/2000/svg">
<path d="M12 23H16V20.2222V19H14H12V23Z" stroke="white" stroke-width="2"/>
<path d="M6.5 26H21.5C22.3284 26 23 25.3284 23 24.5C23 23.6716 22.3284 23 21.5 23H14H6.5C5.67157 23 5 23.6716 5 24.5C5 25.3284 5.67157 26 6.5 26Z" stroke="white" stroke-width="2"/>
<path d="M4 19H24C25.1046 19 26 18.1046 26 17V7.88889V5C26 3.89543 25.1046 3 24 3H21.7143H14H4C2.89543 3 2 3.89543 2 5V17C2 18.1046 2.89543 19 4 19Z" stroke="white" stroke-width="2"/>
<path d="M7 6H13C13.5523 6 14 6.44772 14 7C14 7.55228 13.5523 8 13 8H12.5714H10H7C6.44772 8 6 7.55228 6 7C6 6.44772 6.44772 6 7 6Z" fill="white"/>
<path d="M7 10H15C15.5523 10 16 10.4477 16 11C16 11.5523 15.5523 12 15 12H14.2143H11H7C6.44772 12 6 11.5523 6 11C6 10.4477 6.44772 10 7 10Z" fill="white"/>
<path d="M7 14H11C11.5523 14 12 14.4477 12 15C12 15.5523 11.5523 16 11 16H10.9286H9H7C6.44772 16 6 15.5523 6 15C6 14.4477 6.44772 14 7 14Z" fill="white"/>
</svg>
