<svg width="28" height="28" viewBox="0 0 28 28" fill="none" xmlns="http://www.w3.org/2000/svg">
<path d="M4 26H14C15.1046 26 16 25.1046 16 24V15.0086C16 14.1156 15.408 13.3309 14.5494 13.0856L12.9983 12.6424C12.6715 12.549 12.3739 12.3739 12.1335 12.1335L10.6741 10.6741C10.5585 10.5585 10.4575 10.4291 10.3733 10.2889L9.58261 8.97101C9.22116 8.3686 8.57015 8 7.86762 8H4C2.89543 8 2 8.89543 2 10V24C2 25.1046 2.89543 26 4 26Z" fill="white" stroke="#44516A" stroke-width="2"/>
<path d="M19.6276 2.7868C22.01 5.1692 22.01 9.03183 19.6276 11.4142C17.2452 13.7966 13.3826 13.7966 11.0002 11.4142C8.61778 9.03183 8.61778 5.1692 11.0002 2.7868C13.3826 0.4044 17.2452 0.4044 19.6276 2.7868Z" stroke="#44516A" stroke-width="2"/>
<path d="M19 13.7731L20.9863 11.7869L26.339 17.1396C26.8875 17.6881 26.8875 18.5774 26.339 19.1259C25.7905 19.6744 24.9013 19.6744 24.3528 19.1259L19 13.7731Z" stroke="#44516A" stroke-width="2"/>
<rect x="5" y="11.7869" width="8" height="2" rx="1" fill="#44516A"/>
<rect x="5" y="15.7869" width="8" height="2" rx="1" fill="#44516A"/>
<rect x="5" y="19.7869" width="4" height="2" rx="1" fill="#44516A"/>
</svg>
