<svg width="24" height="24" viewBox="0 0 24 24" fill="none" xmlns="http://www.w3.org/2000/svg">
<path d="M10 8L5 5V16L10 19L15 16.5L20 19V7.5L15 5L10 8Z" fill="white"/>
<rect x="4" y="4" width="2" height="13" fill="#44516A"/>
<rect width="2" height="13" transform="matrix(-1 0 0 1 16 4)" fill="#44516A"/>
<rect x="14" y="4" width="2" height="13" fill="#44516A"/>
<rect x="9" y="7" width="2" height="13" fill="#44516A"/>
<rect width="2" height="13" transform="matrix(-1 0 0 1 11 7)" fill="#44516A"/>
<rect x="19" y="7" width="2" height="13" fill="#44516A"/>
<rect x="10.863" y="7.38501" width="2" height="6.77005" transform="rotate(120 10.863 7.38501)" fill="#44516A"/>
<rect width="2" height="6.77005" transform="matrix(0.5 0.866025 0.866025 -0.5 9.13696 7.38501)" fill="#44516A"/>
<rect x="20.863" y="7.38501" width="2" height="6.77005" transform="rotate(120 20.863 7.38501)" fill="#44516A"/>
<rect x="10.863" y="18.385" width="2" height="6.77005" transform="rotate(120 10.863 18.385)" fill="#44516A"/>
<rect width="2" height="6.77005" transform="matrix(0.5 0.866025 0.866025 -0.5 9.13696 18.385)" fill="#44516A"/>
<rect x="20.863" y="18.385" width="2" height="6.77005" transform="rotate(120 20.863 18.385)" fill="#44516A"/>
</svg>
