<svg width="24" height="24" viewBox="0 0 24 24" fill="none" xmlns="http://www.w3.org/2000/svg">
<rect x="1" y="1" width="2" height="15" fill="white"/>
<rect x="1" y="1" width="16" height="2" fill="white"/>
<rect x="1" y="14" width="11" height="2" fill="white"/>
<rect x="15" y="1" width="2" height="10" fill="white"/>
<rect x="15.8169" y="9.42578" width="2" height="8.22637" transform="rotate(45 15.8169 9.42578)" fill="white"/>
<rect x="17" y="11" width="7" height="2" transform="rotate(-180 17 11)" fill="white"/>
<rect x="12" y="16" width="2" height="7" transform="rotate(-180 12 16)" fill="white"/>
<rect x="4" y="15" width="2" height="4" fill="white"/>
<rect x="15" y="4" width="5" height="2" fill="white"/>
<rect x="4" y="17" width="16" height="2" fill="white"/>
<rect x="18" y="4" width="2" height="15" fill="white"/>
<rect x="7" y="17" width="2" height="5" fill="white"/>
<rect x="18" y="7" width="5" height="2" fill="white"/>
<rect x="7" y="20" width="16" height="2" fill="white"/>
<rect x="21" y="7" width="2" height="15" fill="white"/>
</svg>
