<?xml version="1.0" encoding="utf-8"?>
<!-- Generator: Adobe Illustrator 27.6.1, SVG Export Plug-In . SVG Version: 6.00 Build 0)  -->
<svg version="1.1" id="레이어_1" xmlns="http://www.w3.org/2000/svg" xmlns:xlink="http://www.w3.org/1999/xlink" x="0px"
	 y="0px" viewBox="0 0 35 420" style="enable-background:new 0 0 35 420;" xml:space="preserve">
<style type="text/css">
	.st0{fill:none;stroke:#FF0000;stroke-miterlimit:10;}
	.st1{fill:none;}
	.st2{fill:none;stroke:#000000;stroke-miterlimit:10;}
	.st3{opacity:0.5;fill:#FF0000;enable-background:new    ;}
	.st4{fill:none;stroke:#000000;stroke-miterlimit:10;stroke-dasharray:4,1,4,1;}
	.st5{fill:none;stroke:#000000;stroke-miterlimit:10;stroke-dasharray:4,1,4,1,4,1;}
	.st6{fill:#FFFFFF;stroke:#000000;stroke-miterlimit:10;}
	.st7{opacity:0.35;fill:#FF0000;enable-background:new    ;}
	.st8{fill:none;stroke:#04B404;stroke-miterlimit:10;}
	.st9{fill:#F9DB00;}
	.st10{fill:none;stroke:#808080;stroke-width:4;stroke-miterlimit:10;}
	.st11{fill:none;stroke:#808080;stroke-width:4;stroke-miterlimit:10;stroke-dasharray:4,1,4,1;}
	.st12{fill:none;stroke:#808080;stroke-width:4;stroke-miterlimit:10;stroke-dasharray:4,1,4,1,4,1;}
	.st13{opacity:0.65;fill:#FFFFFF;enable-background:new    ;}
	.st14{fill:none;stroke:#FF0000;stroke-width:0.3;stroke-linecap:round;stroke-linejoin:round;stroke-miterlimit:10;}
	.st15{opacity:0.65;fill:#FFFFFF;}
</style>
<g>
	<rect x="2.8" y="11.5" class="st0" width="30" height="12"/>
	<rect x="0.3" class="st1" width="35" height="35"/>
</g>
<g>
	<g>
		<line class="st2" x1="2.8" y1="116.5" x2="32.8" y2="116.5"/>
		<line class="st2" x1="32.8" y1="128.5" x2="2.8" y2="128.5"/>
	</g>
	<rect x="0.3" y="105" class="st1" width="35" height="35"/>
</g>
<g>
	<rect x="2.8" y="46.5" class="st3" width="30" height="12"/>
	<rect x="2.8" y="46.5" class="st2" width="30" height="12"/>
	<rect x="0.3" y="35" class="st1" width="35" height="35"/>
</g>
<g>
	<g>
		<g>
			<line class="st2" x1="2.8" y1="87.5" x2="4.8" y2="87.5"/>
			<line class="st4" x1="5.8" y1="87.5" x2="15.3" y2="87.5"/>
			<line class="st5" x1="15.8" y1="87.5" x2="30.3" y2="87.5"/>
			<line class="st2" x1="30.8" y1="87.5" x2="32.8" y2="87.5"/>
		</g>
	</g>
	<rect x="0.3" y="70" class="st1" width="35" height="35"/>
</g>
<g>
	<rect x="2.8" y="151.5" class="st6" width="30" height="12"/>
	<rect x="0.3" y="140" class="st1" width="35" height="35"/>
</g>
<g>
	<rect x="2.8" y="186.5" class="st0" width="30" height="12"/>
	<rect x="2.8" y="186.5" class="st7" width="30" height="12"/>
	<rect x="0.3" y="175" class="st1" width="35" height="35"/>
</g>
<g>
	<line class="st8" x1="2.8" y1="227.5" x2="32.8" y2="227.5"/>
	<rect x="0.3" y="210" class="st1" width="35" height="35"/>
</g>
<g>
	<g>
		<circle class="st9" cx="17.8" cy="297.5" r="10"/>
		<g>
			<path d="M27.8,297.5c0,5.5-4.5,10-10,10s-10-4.5-10-10s4.5-10,10-10S27.8,292,27.8,297.5z M17.8,289.2c-4.6,0-8.3,3.7-8.3,8.3
				s3.7,8.3,8.3,8.3s8.3-3.7,8.3-8.3S22.4,289.2,17.8,289.2z"/>
		</g>
		<g>
			<path d="M13.3,301.6c-0.4-0.2-0.7-0.5-1-0.9s-0.3-0.8-0.3-1.3c0-0.3,0.1-0.7,0.2-1s0.3-0.5,0.5-0.7c0.3-0.2,0.5-0.3,0.8-0.4v-0.1
				c-0.3-0.1-0.5-0.2-0.7-0.3c-0.2-0.2-0.3-0.4-0.5-0.7s-0.1-0.5-0.1-0.9c0-0.5,0.1-0.8,0.3-1.2c0.2-0.4,0.5-0.6,0.9-0.8
				c0.4-0.2,0.8-0.3,1.3-0.3c0.5,0,0.9,0.1,1.3,0.3c0.4,0.2,0.7,0.5,0.9,0.8s0.3,0.7,0.3,1.2c0,0.3-0.1,0.6-0.2,0.9
				s-0.3,0.5-0.5,0.7c-0.2,0.2-0.4,0.3-0.7,0.3v0.1c0.3,0.1,0.5,0.2,0.8,0.4s0.4,0.5,0.5,0.7c0.1,0.3,0.2,0.6,0.2,1
				c0,0.5-0.1,0.9-0.3,1.3c-0.3,0.4-0.6,0.7-1,0.9c-0.4,0.2-0.9,0.3-1.4,0.3C14.1,301.9,13.7,301.8,13.3,301.6z M15.4,300.4
				c0.2-0.1,0.3-0.3,0.5-0.5s0.1-0.4,0.1-0.7s-0.1-0.5-0.1-0.7c-0.1-0.2-0.3-0.3-0.5-0.5c-0.2-0.1-0.4-0.2-0.7-0.2S14.2,298,14,298
				c-0.2,0.1-0.3,0.3-0.5,0.5c-0.1,0.2-0.1,0.4-0.1,0.7s0.1,0.5,0.1,0.7c0.1,0.2,0.3,0.3,0.5,0.5c0.2,0.1,0.4,0.1,0.7,0.1
				S15.2,300.5,15.4,300.4z M15.3,296.6c0.1-0.1,0.3-0.3,0.4-0.4c0.1-0.2,0.1-0.4,0.1-0.6c0-0.2-0.1-0.4-0.1-0.6s-0.2-0.3-0.4-0.4
				c-0.1-0.1-0.3-0.1-0.5-0.1s-0.4,0.1-0.5,0.1c-0.1,0.1-0.3,0.2-0.4,0.4c-0.1,0.2-0.1,0.4-0.1,0.6c0,0.2,0.1,0.4,0.1,0.6
				c0.1,0.2,0.2,0.3,0.4,0.4c0.1,0.1,0.3,0.1,0.5,0.1S15.1,296.7,15.3,296.6z"/>
			<path d="M18.5,300.5l2.5-2.8c0.3-0.3,0.5-0.5,0.6-0.7c0.1-0.2,0.3-0.4,0.3-0.6c0.1-0.2,0.1-0.4,0.1-0.6c0-0.3-0.1-0.5-0.1-0.7
				c-0.1-0.2-0.2-0.3-0.4-0.4c-0.2-0.1-0.3-0.1-0.6-0.1c-0.2,0-0.4,0.1-0.6,0.1c-0.1,0.1-0.3,0.3-0.4,0.5c-0.1,0.2-0.1,0.5-0.1,0.7
				h-1.4c0-0.5,0.1-1,0.3-1.5c0.2-0.4,0.5-0.7,0.9-0.9c0.4-0.2,0.8-0.3,1.3-0.3c0.5,0,0.9,0.1,1.3,0.3c0.4,0.2,0.7,0.5,0.9,0.9
				c0.2,0.3,0.3,0.8,0.3,1.3c0,0.3-0.1,0.7-0.1,1c-0.1,0.3-0.3,0.7-0.5,1.1s-0.7,0.9-1.1,1.4l-1.1,1.3v0.1h3v1.5h-5.1L18.5,300.5z"
				/>
		</g>
	</g>
	<rect x="0.3" y="280" class="st1" width="35" height="35"/>
</g>
<g>
	<g>
		<g>
			<line class="st10" x1="2.8" y1="332.5" x2="4.8" y2="332.5"/>
			<line class="st11" x1="5.8" y1="332.5" x2="15.3" y2="332.5"/>
			<line class="st12" x1="15.8" y1="332.5" x2="30.3" y2="332.5"/>
			<line class="st10" x1="30.8" y1="332.5" x2="32.8" y2="332.5"/>
		</g>
	</g>
	<rect x="0.3" y="315" class="st1" width="35" height="35"/>
</g>
<g>
	<g>
		<rect x="3.6" y="361.5" class="st13" width="28.4" height="12"/>
		<rect x="3.6" y="361.5" class="st2" width="28.4" height="12"/>
	</g>
	<rect x="0.3" y="350" class="st1" width="35" height="35"/>
</g>
<g>
	<path class="st14" d="M28.2,396.5h4.5 M19.3,396.5h5.9 M10.4,396.5h5.9 M2.8,396.5h4.5 M28.2,408.5h4.5 M19.3,408.5h5.9
		 M10.4,408.5h5.9 M2.8,408.5h4.5"/>
	<rect x="0.3" y="385" class="st1" width="35" height="35"/>
</g>
<g>
	<text transform="matrix(1 0 0 1 60.1061 24.9558)" style="font-family:'KoPubDotumBold'; font-size:15px;">고가도로</text>
</g>
<text transform="matrix(1 0 0 1 60.1061 54.5666)" style="font-family:'KoPubDotumBold'; font-size:15px;">교량</text>
<text transform="matrix(1 0 0 1 60.1061 82.3724)" style="font-family:'KoPubDotumBold'; font-size:15px;">도로구간</text>
<text transform="matrix(1 0 0 1 60.1061 114.7613)" style="font-family:'KoPubDotumBold'; font-size:15px;">실폭도로</text>
<text transform="matrix(1 0 0 1 59.8049 146.178)" style="font-family:'KoPubDotumBold'; font-size:15px;">지방도(군도)</text>
<text transform="matrix(1 0 0 1 60.1056 177.9835)" style="font-family:'KoPubDotumBold'; font-size:15px;">지하차도</text>
<text transform="matrix(1 0 0 1 60.1056 212.7896)" style="font-family:'KoPubDotumBold'; font-size:15px;">지하철선로</text>
<text transform="matrix(1 0 0 1 60.1056 247.5951)" style="font-family:'KoPubDotumBold'; font-size:15px;">지하철역사</text>
<text transform="matrix(1 0 0 1 60.1056 303.4006)" style="font-family:'KoPubDotumBold'; font-size:15px;">지하철출입구</text>
<text transform="matrix(1 0 0 1 60.1056 338.2057)" style="font-family:'KoPubDotumBold'; font-size:15px;">철도선로</text>
<text transform="matrix(1 0 0 1 60.1056 373.0122)" style="font-family:'KoPubDotumBold'; font-size:15px;">철도역사</text>
<text transform="matrix(1 0 0 1 60.1061 407.8177)" style="font-family:'KoPubDotumBold'; font-size:15px;">터널</text>
<g>
	<g>
		<polygon class="st15" points="22.4,268.5 2.8,268.5 2.8,256.5 10.8,256.5 13.6,256.5 32.8,256.5 32.8,268.5 		"/>
		<polygon class="st2" points="22.4,268.5 2.8,268.5 2.8,256.5 10.8,256.5 13.6,256.5 32.8,256.5 32.8,268.5 		"/>
	</g>
	<rect x="0.3" y="245" class="st1" width="35" height="35"/>
</g>
</svg>
