<?xml version="1.0" encoding="utf-8"?>
<!-- Generator: Adobe Illustrator 27.6.1, SVG Export Plug-In . SVG Version: 6.00 Build 0)  -->
<svg version="1.1" id="레이어_1" xmlns="http://www.w3.org/2000/svg" xmlns:xlink="http://www.w3.org/1999/xlink" x="0px"
	 y="0px" viewBox="0 0 35 385" style="enable-background:new 0 0 35 385;" xml:space="preserve">
<style type="text/css">
	.st0{fill:#ED1C24;}
	.st1{fill:none;}
	.st2{fill:#60C670;}
	.st3{fill:none;stroke:#AD00FF;stroke-miterlimit:10;}
	.st4{fill:none;stroke:#ED1C24;stroke-miterlimit:10;}
	.st5{fill:#AD00FF;}
	.st6{fill:#990099;}
	.st7{fill:#C1272D;}
</style>
<g>
	<g>
		<rect x="2.5" y="15" class="st0" width="30" height="5"/>
		<rect class="st1" width="35" height="35"/>
	</g>
	<g>
		<g>
			<g>
				<g>
					<g>
						<path class="st2" d="M26.8,47.5v10H8.2v-10H26.8 M27.5,46.8h-20v11.3h20V46.8L27.5,46.8z"/>
					</g>
				</g>
				<g>
					<polygon class="st2" points="26.7,47.2 7.9,57.2 8.3,57.8 27.1,47.8 					"/>
				</g>
			</g>
		</g>
		<path class="st3" d="M17.5,52.5"/>
		<rect y="35" class="st1" width="35" height="35"/>
	</g>
	<g>
		<line class="st4" x1="2.5" y1="87.5" x2="32.5" y2="87.5"/>
		<rect y="70" class="st1" width="35" height="35"/>
	</g>
	<g>
		<g>
			<rect x="7.5" y="113.4" class="st5" width="20" height="2.2"/>
			<rect x="15" y="114.9" class="st5" width="1.5" height="16.7"/>
			<polyline class="st3" points="15.8,116.2 23.6,118.6 15.8,121.2 			"/>
			<polyline class="st3" points="16.2,121.3 24,123.6 16.2,126.3 			"/>
			<polyline class="st3" points="16.2,126.3 24,128.7 16.2,131.3 			"/>
		</g>
		<rect y="105" class="st1" width="35" height="35"/>
	</g>
	<g>
		<rect x="2.5" y="155" class="st6" width="30" height="5"/>
		<rect y="140" class="st1" width="35" height="35"/>
	</g>
	<g>
		<rect x="15" y="190" class="st6" width="5" height="5"/>
		<rect y="175" class="st1" width="35" height="35"/>
	</g>
	<g>
		<rect x="15" y="260" class="st6" width="5" height="5"/>
		<rect y="245" class="st1" width="35" height="35"/>
	</g>
	<g>
		<g>
			<g>
				<g>
					<path class="st5" d="M26.8,222.5v10H8.2v-10H26.8 M27.5,221.8h-20v11.3h20V221.8L27.5,221.8z"/>
				</g>
			</g>
			<g>
				<polygon class="st5" points="25.2,230.4 23.8,230.4 9.8,230.4 9.8,231.2 25.2,231.2 				"/>
			</g>
			<g>
				<polyline class="st3" points="24.8,225.1 19.5,229.9 17.5,227.9 15.5,229.9 10.2,225.1 				"/>
			</g>
		</g>
		<rect y="210" class="st1" width="35" height="35"/>
	</g>
	<g>
		<g>
			<g>
				<path class="st7" d="M27.5,332.5c0,5.5-4.5,10-10,10s-10-4.5-10-10s4.5-10,10-10S27.5,327,27.5,332.5z M17.5,324.2
					c-4.6,0-8.3,3.7-8.3,8.3s3.7,8.3,8.3,8.3s8.3-3.7,8.3-8.3S22.1,324.2,17.5,324.2z"/>
			</g>
			<g>
				<rect x="9.4" y="335.6" class="st7" width="16.7" height="1.4"/>
			</g>
			<g>
				<polyline class="st7" points="15.7,331 15,325.9 19.4,328.4 				"/>
				<path class="st7" d="M19,337c2-4.3-1.3-8.3-1.3-8.3h-1.9c0,0,3.3,3.9,1.3,8.3H19z"/>
			</g>
		</g>
		<rect y="315" class="st1" width="35" height="35"/>
	</g>
	<g>
		<g>
			<g>
				<path class="st0" d="M19.6,366.9c0.2-0.3,0.7-0.6,1.1-0.6c0.5,0,0.9,0.3,1.1,0.6l3.5-1.7v4.7l-3.5-1.7c-0.2,0.4-0.7,0.7-1.1,0.7
					c-0.5,0-0.9-0.3-1.1-0.7l-3.5,1.7v-4.7L19.6,366.9z M16.8,368.9l2.7-1.3l-2.7-1.4V368.9z M24.8,366.2l-2.7,1.4l2.7,1.3V366.2z
					 M20.8,366.7c-0.5,0-0.9,0.4-0.9,0.9c0,0.5,0.4,0.9,0.9,0.9c0.3,0,0.6-0.2,0.7-0.4c0.1-0.1,0.1-0.3,0.1-0.4
					c0-0.2-0.1-0.3-0.2-0.5C21.2,366.8,21,366.7,20.8,366.7z"/>
				<path class="st0" d="M21.4,366.4c0.3,0.2,0.6,0.7,0.6,1.1s-0.3,0.9-0.6,1.1l1.7,3.5h-4.7l1.7-3.5c-0.4-0.2-0.7-0.7-0.7-1.1
					s0.3-0.9,0.7-1.1l-1.7-3.5h4.7L21.4,366.4z M19.3,363.5l1.3,2.7l1.4-2.7H19.3z M22,371.5l-1.4-2.7l-1.3,2.7H22z M21.6,367.5
					c0-0.5-0.4-0.9-0.9-0.9s-0.9,0.4-0.9,0.9c0,0.3,0.2,0.6,0.4,0.7c0.1,0.1,0.3,0.1,0.4,0.1c0.2,0,0.3-0.1,0.5-0.2
					C21.4,368,21.6,367.8,21.6,367.5z"/>
			</g>
			<g>
				<path class="st0" d="M27.5,367.5c0,3.7-3,6.7-6.7,6.7s-6.7-3-6.7-6.7s3-6.7,6.7-6.7S27.5,363.8,27.5,367.5z M20.8,361.9
					c-3.1,0-5.6,2.5-5.6,5.6s2.5,5.6,5.6,5.6s5.6-2.5,5.6-5.6S23.8,361.9,20.8,361.9z"/>
			</g>
			<rect x="10.4" y="366.4" class="st0" width="4.1" height="1.3"/>
			
				<rect x="7.3" y="367.8" transform="matrix(0.7071 -0.7071 0.7071 0.7071 -257.7488 114.6591)" class="st0" width="4.5" height="1.3"/>
		</g>
		<rect y="350" class="st1" width="35" height="35"/>
	</g>
	<g>
		<g>
			<g>
				<path d="M13.2,294.6h5.3v1h-2v0.4c0,0.7,0.2,1.4,0.6,2c0.4,0.6,0.9,1.1,1.7,1.5l-0.9,0.9c-0.5-0.3-0.9-0.7-1.3-1.1
					c-0.3-0.4-0.6-0.8-0.8-1.2c-0.2,0.4-0.5,0.8-0.8,1.3c-0.3,0.4-0.8,0.8-1.4,1.2l-1-0.8c0.8-0.5,1.4-1,1.8-1.6
					c0.4-0.6,0.7-1.3,0.7-2.1v-0.4h-1.9L13.2,294.6L13.2,294.6z M14.4,292.8h3v1h-3C14.4,293.8,14.4,292.8,14.4,292.8z M19.7,302.3
					v-4.8h-1.8v-1h1.8v-3.8h1.2v9.6L19.7,302.3L19.7,302.3z"/>
			</g>
			<g>
				<path d="M27.5,297.5c0,5.5-4.5,10-10,10s-10-4.5-10-10s4.5-10,10-10S27.5,292,27.5,297.5z M17.5,289.2c-4.6,0-8.3,3.7-8.3,8.3
					s3.7,8.3,8.3,8.3s8.3-3.7,8.3-8.3S22.1,289.2,17.5,289.2z"/>
			</g>
		</g>
		<rect y="280" class="st1" width="35" height="35"/>
	</g>
</g>
</svg>
