<svg width="15" height="15" viewBox="0 0 15 15" fill="none" xmlns="http://www.w3.org/2000/svg">
<path fill-rule="evenodd" clip-rule="evenodd" d="M9.0416 9.48777C10.4317 7.79177 10.1838 5.28998 8.48777 3.89986C6.79178 2.50974 4.28999 2.75769 2.89986 4.45369C1.50973 6.14969 1.75769 8.65148 3.45369 10.0416C5.14968 11.4317 7.65147 11.1838 9.0416 9.48777ZM8.01798 8.64876C8.94471 7.51811 8.77942 5.85023 7.64876 4.92348C6.51809 3.99673 4.85022 4.16205 3.92348 5.2927C2.99675 6.42335 3.16204 8.09123 4.2927 9.01798C5.42336 9.94472 7.09124 9.7794 8.01798 8.64876Z" fill="white"/>
<rect x="7.59851" y="9.16052" width="1.32354" height="5.95591" transform="rotate(-50.6602 7.59851 9.16052)" fill="white"/>
</svg>
