<svg width="17" height="17" viewBox="0 0 17 17" fill="none" xmlns="http://www.w3.org/2000/svg">
<mask id="path-1-inside-1_6674_8327" fill="white">
<path fill-rule="evenodd" clip-rule="evenodd" d="M8 0C4.68629 0 2 2.70923 2 6.02294C2 7.89771 2.85985 9.579 4.20669 10.6856L7.99992 16.4003L11.7929 10.6859C13.14 9.57929 14 7.89788 14 6.02294C14 2.70923 11.3137 0 8 0Z"/>
</mask>
<path d="M4.20669 10.6856L5.03986 10.1326L4.95712 10.008L4.84154 9.913L4.20669 10.6856ZM7.99992 16.4003L7.16675 16.9534L7.99992 18.2086L8.83308 16.9534L7.99992 16.4003ZM11.7929 10.6859L11.1582 9.91324L11.0425 10.0082L10.9598 10.1329L11.7929 10.6859ZM3 6.02294C3 3.25654 5.24354 1 8 1V-1C4.12905 -1 1 2.16192 1 6.02294H3ZM4.84154 9.913C3.71579 8.98802 3 7.5857 3 6.02294H1C1 8.20972 2.00391 10.17 3.57185 11.4583L4.84154 9.913ZM8.83308 15.8473L5.03986 10.1326L3.37353 11.2387L7.16675 16.9534L8.83308 15.8473ZM10.9598 10.1329L7.16675 15.8473L8.83308 16.9534L12.6261 11.239L10.9598 10.1329ZM13 6.02294C13 7.58583 12.2841 8.98827 11.1582 9.91324L12.4277 11.4586C13.9959 10.1703 15 8.20992 15 6.02294H13ZM8 1C10.7565 1 13 3.25654 13 6.02294H15C15 2.16192 11.871 -1 8 -1V1Z" fill="#44516A" mask="url(#path-1-inside-1_6674_8327)"/>
<rect x="6" y="4" width="4" height="4" rx="2" fill="#44516A"/>
</svg>
