<svg width="17" height="17" viewBox="0 0 17 17" fill="none" xmlns="http://www.w3.org/2000/svg">
<rect x="2" y="5" width="13" height="1" fill="white"/>
<rect x="5" y="9" width="7" height="1" fill="white"/>
<rect x="7" y="11" width="3" height="1" fill="white"/>
<rect x="7" y="13" width="2" height="1" fill="white"/>
<rect x="5" y="2" width="7" height="1" fill="white"/>
<rect x="11" y="7" width="2" height="1" fill="white"/>
<rect x="5" y="15" width="7" height="1" fill="white"/>
<rect x="2" y="6" width="1" height="5" fill="white"/>
<rect x="5" y="9" width="1" height="6" fill="white"/>
<rect x="5" y="2" width="1" height="3" fill="white"/>
<rect x="11" y="9" width="1" height="6" fill="white"/>
<rect x="11" y="2" width="1" height="3" fill="white"/>
<rect x="14" y="6" width="1" height="5" fill="white"/>
<rect x="2" y="11" width="3" height="1" fill="white"/>
<rect x="12" y="11" width="3" height="1" fill="white"/>
</svg>
