<svg width="14" height="14" viewBox="0 0 14 14" fill="none" xmlns="http://www.w3.org/2000/svg">
<rect y="1" width="14" height="1" fill="#44516A"/>
<rect y="5" width="14" height="1" fill="#44516A"/>
<rect y="13" width="14" height="1" fill="#44516A"/>
<rect y="2" width="1" height="11" fill="#44516A"/>
<rect x="13" y="2" width="1" height="11" fill="#44516A"/>
<rect x="2" width="1" height="3" fill="#44516A"/>
<rect x="8" width="1" height="3" fill="#44516A"/>
<rect x="11" width="1" height="3" fill="#44516A"/>
<rect x="5" width="1" height="3" fill="#44516A"/>
<rect x="3" y="7" width="1" height="1" fill="#44516A"/>
<rect x="3" y="9" width="1" height="1" fill="#44516A"/>
<rect x="3" y="11" width="1" height="1" fill="#44516A"/>
<rect x="5" y="7" width="1" height="1" fill="#44516A"/>
<rect x="5" y="9" width="1" height="1" fill="#44516A"/>
<rect x="5" y="11" width="1" height="1" fill="#44516A"/>
<rect x="7" y="7" width="1" height="1" fill="#44516A"/>
<rect x="7" y="9" width="1" height="1" fill="#44516A"/>
<rect x="7" y="11" width="1" height="1" fill="#44516A"/>
<rect x="9" y="7" width="1" height="1" fill="#44516A"/>
<rect x="9" y="9" width="1" height="1" fill="#44516A"/>
</svg>
