<svg width="18" height="32" viewBox="0 0 18 32" fill="none" xmlns="http://www.w3.org/2000/svg">
<path fill-rule="evenodd" clip-rule="evenodd" d="M-5.91278e-05 1.39939L1.43995 0L16.4643 14.6006L16.56 14.5076L18 15.907L17.9043 16L18 16.093L16.56 17.4924L16.4643 17.3994L1.43995 32L-5.91278e-05 30.6006L15.0243 16L-5.91278e-05 1.39939Z" fill="#44516A"/>
<path fill-rule="evenodd" clip-rule="evenodd" d="M-5.91278e-05 1.39939L1.43995 0L16.4643 14.6006L16.56 14.5076L18 15.907L17.9043 16L18 16.093L16.56 17.4924L16.4643 17.3994L1.43995 32L-5.91278e-05 30.6006L15.0243 16L-5.91278e-05 1.39939Z" fill="#44516A"/>
</svg>
