<svg width="17" height="17" viewBox="0 0 17 17" fill="none" xmlns="http://www.w3.org/2000/svg">
<rect x="3" y="11" width="8" height="1" fill="#44516A"/>
<rect x="3" y="1" width="8" height="1" fill="#44516A"/>
<rect x="5" y="3" width="4" height="1" fill="#44516A"/>
<rect x="5" y="5" width="4" height="1" fill="#44516A"/>
<rect x="5" y="7" width="2" height="1" fill="#44516A"/>
<rect x="3" y="1" width="1" height="11" fill="#44516A"/>
<rect x="10" y="1" width="1" height="11" fill="#44516A"/>
<rect x="5" y="13" width="8" height="1" fill="#44516A"/>
<rect x="10" y="3" width="3" height="1" fill="#44516A"/>
<rect x="5" y="11" width="1" height="3" fill="#44516A"/>
<rect x="12" y="3" width="1" height="11" fill="#44516A"/>
<rect x="7" y="15" width="8" height="1" fill="#44516A"/>
<rect x="12" y="5" width="3" height="1" fill="#44516A"/>
<rect x="7" y="13" width="1" height="3" fill="#44516A"/>
<rect x="14" y="5" width="1" height="11" fill="#44516A"/>
</svg>
