<svg width="17" height="17" viewBox="0 0 17 17" fill="none" xmlns="http://www.w3.org/2000/svg">
<rect opacity="0.2" width="3" height="1" transform="matrix(1 0 0 -1 1 8.99978)" fill="white"/>
<rect opacity="0.8" width="3" height="1" transform="matrix(1 0 0 -1 13 8.99978)" fill="white"/>
<rect width="3" height="1" transform="matrix(-4.37114e-08 1 1 4.37114e-08 8 0.999573)" fill="white"/>
<rect opacity="0.4" width="3" height="1" transform="matrix(-4.37114e-08 1 1 4.37114e-08 8 12.9996)" fill="white"/>
<rect opacity="0.05" width="3" height="1" transform="matrix(0.5 0.866025 0.866025 -0.5 4.31699 2.25438)" fill="white"/>
<rect opacity="0.6" width="3" height="1" transform="matrix(0.5 0.866025 0.866025 -0.5 10.317 12.6467)" fill="white"/>
<rect opacity="0.05" width="3" height="1" transform="matrix(0.866025 0.5 0.5 -0.866025 1.75525 5.18172)" fill="white"/>
<rect opacity="0.6" width="3" height="1" transform="matrix(0.866025 0.5 0.5 -0.866025 12.1477 11.182)" fill="white"/>
<rect opacity="0.2" width="3" height="1" transform="matrix(0.866025 -0.5 -0.5 -0.866025 2.25452 12.6814)" fill="white"/>
<rect opacity="0.8" width="3" height="1" transform="matrix(0.866025 -0.5 -0.5 -0.866025 12.6469 6.68111)" fill="white"/>
<rect opacity="0.4" width="3" height="1" transform="matrix(0.5 -0.866025 -0.866025 -0.5 5.1828 15.2432)" fill="white"/>
<rect width="3" height="1" transform="matrix(0.5 -0.866025 -0.866025 -0.5 11 4.85114)" fill="white"/>
</svg>
