<svg width="14" height="14" viewBox="0 0 14 14" fill="none" xmlns="http://www.w3.org/2000/svg">
<mask id="path-1-inside-1_6998_83" fill="white">
<path fill-rule="evenodd" clip-rule="evenodd" d="M7 0C4.23858 0 2 2.25769 2 5.01912C2 6.58156 2.71667 7.98274 3.83921 8.90494L6.99973 13.6664L10.1596 8.90592C11.2828 7.98374 12 6.58212 12 5.01912C12 2.25769 9.76142 0 7 0Z"/>
</mask>
<path d="M3.83921 8.90494L4.67237 8.35192L4.58962 8.22724L4.47399 8.13226L3.83921 8.90494ZM6.99973 13.6664L6.16656 14.2195L6.99973 15.4747L7.83289 14.2195L6.99973 13.6664ZM10.1596 8.90592L9.52505 8.13304L9.40928 8.22809L9.32643 8.3529L10.1596 8.90592ZM3 5.01912C3 2.805 4.79582 1 7 1V-1C3.68133 -1 1 1.71038 1 5.01912H3ZM4.47399 8.13226C3.57258 7.39172 3 6.26952 3 5.01912H1C1 6.89361 1.86075 8.57377 3.20442 9.67763L4.47399 8.13226ZM7.83289 13.1134L4.67237 8.35192L3.00604 9.45797L6.16656 14.2195L7.83289 13.1134ZM9.32643 8.3529L6.16656 13.1134L7.83289 14.2195L10.9928 9.45895L9.32643 8.3529ZM11 5.01912C11 6.26996 10.427 7.39252 9.52505 8.13304L10.7941 9.67881C12.1386 8.57496 13 6.89427 13 5.01912H11ZM7 1C9.20418 1 11 2.805 11 5.01912H13C13 1.71038 10.3187 -1 7 -1V1Z" fill="#44516A" mask="url(#path-1-inside-1_6998_83)"/>
<rect x="5.33334" y="3.33331" width="3.33333" height="3.33333" rx="1.66667" fill="#44516A"/>
</svg>
