<svg width="17" height="17" viewBox="0 0 17 17" fill="none" xmlns="http://www.w3.org/2000/svg">
<mask id="path-1-inside-1_6678_3659" fill="white">
<path fill-rule="evenodd" clip-rule="evenodd" d="M7.14415 1C7.05807 1 6.98164 1.05509 6.95442 1.13675L6.35637 2.93088C6.31788 3.04635 6.18605 3.10095 6.07719 3.04652L4.38569 2.20077C4.3087 2.16227 4.2157 2.17736 4.15483 2.23824L2.23737 4.1557C2.1765 4.21657 2.16141 4.30956 2.19991 4.38656L3.04562 6.07798C3.10005 6.18684 3.04544 6.31867 2.92998 6.35716L1.13675 6.9549C1.05509 6.98213 1 7.05855 1 7.14464V9.85634C1 9.94242 1.05509 10.0189 1.13675 10.0461L2.93004 10.6438C3.04551 10.6823 3.10012 10.8142 3.04569 10.923L2.20028 12.6138C2.16179 12.6908 2.17688 12.7838 2.23775 12.8447L4.15521 14.7621C4.21608 14.823 4.30907 14.8381 4.38607 14.7996L6.07735 13.954C6.18622 13.8995 6.31805 13.9541 6.35653 14.0696L6.95442 15.8632C6.98164 15.9449 7.05807 16 7.14415 16H9.85585C9.94193 16 10.0184 15.9449 10.0456 15.8632L10.6435 14.0696C10.682 13.9541 10.8138 13.8995 10.9226 13.954L12.6139 14.7996C12.6909 14.8381 12.7839 14.823 12.8448 14.7621L14.7623 12.8447C14.8231 12.7838 14.8382 12.6908 14.7997 12.6138L13.9541 10.9226C13.8997 10.8137 13.9543 10.6819 14.0697 10.6434L15.8632 10.0456C15.9449 10.0184 16 9.94193 16 9.85585V7.14415C16 7.05807 15.9449 6.98164 15.8632 6.95442L14.0692 6.35639C13.9537 6.31791 13.8991 6.18608 13.9535 6.07722L14.7991 4.38607C14.8376 4.30907 14.8225 4.21608 14.7617 4.15521L12.8442 2.23775C12.7833 2.17688 12.6903 2.16179 12.6133 2.20028L10.9225 3.04569C10.8137 3.10012 10.6818 3.04551 10.6433 2.93005L10.0456 1.13675C10.0184 1.05509 9.94193 1 9.85585 1H7.14415ZM8.5 11C9.88071 11 11 9.88071 11 8.5C11 7.11929 9.88071 6 8.5 6C7.11929 6 6 7.11929 6 8.5C6 9.88071 7.11929 11 8.5 11Z"/>
</mask>
<path d="M6.95442 1.13675L7.9031 1.45298L7.9031 1.45298L6.95442 1.13675ZM6.35637 2.93088L5.40769 2.61465V2.61466L6.35637 2.93088ZM6.07719 3.04652L5.62998 3.94095V3.94095L6.07719 3.04652ZM4.38569 2.20077L4.83291 1.30635L4.38569 2.20077ZM4.15483 2.23824L4.86194 2.94534L4.15483 2.23824ZM2.23737 4.1557L1.53026 3.44859L2.23737 4.1557ZM2.19991 4.38656L3.09433 3.93935L2.19991 4.38656ZM3.04562 6.07798L2.15119 6.5252L3.04562 6.07798ZM2.92998 6.35716L2.61375 5.40848L2.61375 5.40848L2.92998 6.35716ZM1.13675 6.9549L1.45298 7.90359L1.45298 7.90359L1.13675 6.9549ZM1.13675 10.0461L1.45298 9.09739L1.45298 9.09739L1.13675 10.0461ZM2.93004 10.6438L3.24627 9.69515H3.24627L2.93004 10.6438ZM3.04569 10.923L3.94011 11.3702L3.94011 11.3702L3.04569 10.923ZM2.20028 12.6138L3.09471 13.061L2.20028 12.6138ZM2.23775 12.8447L2.94486 12.1376H2.94486L2.23775 12.8447ZM4.15521 14.7621L3.4481 15.4692L4.15521 14.7621ZM4.38607 14.7996L4.83329 15.694L4.38607 14.7996ZM6.07735 13.954L5.63014 13.0595L5.63014 13.0595L6.07735 13.954ZM6.35653 14.0696L5.40785 14.3858L5.40785 14.3858L6.35653 14.0696ZM6.95442 15.8632L7.9031 15.547L7.9031 15.547L6.95442 15.8632ZM10.0456 15.8632L9.0969 15.547H9.0969L10.0456 15.8632ZM10.6435 14.0696L9.69478 13.7534V13.7534L10.6435 14.0696ZM10.9226 13.954L11.3699 13.0595L11.3699 13.0595L10.9226 13.954ZM12.6139 14.7996L12.1667 15.694H12.1667L12.6139 14.7996ZM14.7997 12.6138L15.6941 12.1666V12.1666L14.7997 12.6138ZM13.9541 10.9226L13.0597 11.3698L13.0597 11.3698L13.9541 10.9226ZM14.0697 10.6434L13.7535 9.69474H13.7535L14.0697 10.6434ZM15.8632 10.0456L15.547 9.0969L15.547 9.0969L15.8632 10.0456ZM14.0692 6.35639L14.3854 5.40771L14.3854 5.40771L14.0692 6.35639ZM13.9535 6.07722L13.0591 5.63L13.0591 5.63L13.9535 6.07722ZM14.7991 4.38607L15.6935 4.83329V4.83329L14.7991 4.38607ZM14.7617 4.15521L15.4688 3.4481V3.4481L14.7617 4.15521ZM12.8442 2.23775L12.1371 2.94486V2.94486L12.8442 2.23775ZM12.6133 2.20028L12.1661 1.30586L12.1661 1.30586L12.6133 2.20028ZM10.9225 3.04569L10.4753 2.15126L10.4753 2.15126L10.9225 3.04569ZM10.6433 2.93005L9.69467 3.24627V3.24628L10.6433 2.93005ZM10.0456 1.13675L9.0969 1.45298L9.0969 1.45298L10.0456 1.13675ZM7.9031 1.45298C7.79421 1.77966 7.4885 2 7.14415 2V0C6.62764 0 6.16907 0.330516 6.00573 0.820529L7.9031 1.45298ZM7.30506 3.24711L7.9031 1.45298L6.00573 0.820527L5.40769 2.61465L7.30506 3.24711ZM5.62998 3.94095C6.28314 4.26753 7.07413 3.93989 7.30506 3.24711L5.40769 2.61466C5.56164 2.1528 6.08896 1.93437 6.52441 2.1521L5.62998 3.94095ZM3.93848 3.0952L5.62998 3.94095L6.52441 2.1521L4.83291 1.30635L3.93848 3.0952ZM4.86194 2.94534C4.61845 3.18883 4.24647 3.2492 3.93848 3.0952L4.83291 1.30635C4.37092 1.07535 3.81296 1.1659 3.44772 1.53113L4.86194 2.94534ZM2.94448 4.8628L4.86194 2.94534L3.44772 1.53113L1.53026 3.44859L2.94448 4.8628ZM3.09433 3.93935C3.24833 4.24734 3.18797 4.61931 2.94448 4.8628L1.53026 3.44859C1.16503 3.81382 1.07449 4.37179 1.30548 4.83377L3.09433 3.93935ZM3.94005 5.63077L3.09433 3.93935L1.30548 4.83377L2.15119 6.5252L3.94005 5.63077ZM3.2462 7.30585C3.93899 7.07492 4.26663 6.28393 3.94005 5.63077L2.15119 6.5252C1.93347 6.08975 2.15189 5.56243 2.61375 5.40848L3.2462 7.30585ZM1.45298 7.90359L3.24621 7.30585L2.61375 5.40848L0.820527 6.00622L1.45298 7.90359ZM2 7.14464C2 7.48899 1.77966 7.7947 1.45298 7.90359L0.820529 6.00622C0.330517 6.16956 0 6.62812 0 7.14464H2ZM2 9.85634V7.14464H0V9.85634H2ZM1.45298 9.09739C1.77965 9.20628 2 9.51199 2 9.85634H0C0 10.3729 0.330517 10.8314 0.820528 10.9948L1.45298 9.09739ZM3.24627 9.69515L1.45298 9.09739L0.820526 10.9948L2.61382 11.5925L3.24627 9.69515ZM3.94011 11.3702C4.26669 10.7171 3.93905 9.92608 3.24627 9.69515L2.61381 11.5925C2.15196 11.4386 1.93354 10.9112 2.15126 10.4758L3.94011 11.3702ZM3.09471 13.061L3.94011 11.3702L2.15126 10.4758L1.30586 12.1666L3.09471 13.061ZM2.94486 12.1376C3.18834 12.3811 3.24871 12.753 3.09471 13.061L1.30586 12.1666C1.07486 12.6286 1.16541 13.1866 1.53064 13.5518L2.94486 12.1376ZM4.86231 14.055L2.94486 12.1376L1.53064 13.5518L3.4481 15.4692L4.86231 14.055ZM3.93886 13.9052C4.24685 13.7512 4.61883 13.8115 4.86231 14.055L3.4481 15.4692C3.81333 15.8345 4.3713 15.925 4.83329 15.694L3.93886 13.9052ZM5.63014 13.0595L3.93886 13.9052L4.83329 15.694L6.52457 14.8484L5.63014 13.0595ZM7.30522 13.7534C7.07429 13.0606 6.2833 12.733 5.63014 13.0595L6.52457 14.8484C6.08913 15.0661 5.5618 14.8477 5.40785 14.3858L7.30522 13.7534ZM7.9031 15.547L7.30522 13.7534L5.40785 14.3858L6.00573 16.1795L7.9031 15.547ZM7.14415 15C7.4885 15 7.79421 15.2203 7.9031 15.547L6.00573 16.1795C6.16907 16.6695 6.62763 17 7.14415 17V15ZM9.85585 15H7.14415V17H9.85585V15ZM9.0969 15.547C9.20579 15.2203 9.5115 15 9.85585 15V17C10.3724 17 10.8309 16.6695 10.9943 16.1795L9.0969 15.547ZM9.69478 13.7534L9.0969 15.547L10.9943 16.1795L11.5921 14.3858L9.69478 13.7534ZM11.3699 13.0595C10.7167 12.733 9.92571 13.0606 9.69478 13.7534L11.5921 14.3858C11.4382 14.8477 10.9109 15.0661 10.4754 14.8484L11.3699 13.0595ZM13.0611 13.9052L11.3699 13.0595L10.4754 14.8484L12.1667 15.694L13.0611 13.9052ZM12.1377 14.055C12.3812 13.8115 12.7532 13.7512 13.0611 13.9052L12.1667 15.694C12.6287 15.925 13.1867 15.8345 13.5519 15.4692L12.1377 14.055ZM14.0551 12.1376L12.1377 14.055L13.5519 15.4692L15.4694 13.5518L14.0551 12.1376ZM13.9053 13.061C13.7513 12.753 13.8117 12.3811 14.0551 12.1376L15.4694 13.5518C15.8346 13.1866 15.9251 12.6286 15.6941 12.1666L13.9053 13.061ZM13.0597 11.3698L13.9053 13.061L15.6941 12.1666L14.8485 10.4754L13.0597 11.3698ZM13.7535 9.69474C13.0607 9.92567 12.7331 10.7166 13.0597 11.3698L14.8485 10.4754C15.0663 10.9108 14.8478 11.4381 14.386 11.5921L13.7535 9.69474ZM15.547 9.0969L13.7535 9.69474L14.386 11.5921L16.1795 10.9943L15.547 9.0969ZM15 9.85585C15 9.5115 15.2203 9.20579 15.547 9.0969L16.1795 10.9943C16.6695 10.8309 17 10.3724 17 9.85585H15ZM15 7.14415V9.85585H17V7.14415H15ZM15.547 7.9031C15.2203 7.79421 15 7.4885 15 7.14415H17C17 6.62764 16.6695 6.16907 16.1795 6.00573L15.547 7.9031ZM13.753 7.30508L15.547 7.9031L16.1795 6.00573L14.3854 5.40771L13.753 7.30508ZM13.0591 5.63C12.7325 6.28316 13.0602 7.07415 13.753 7.30508L14.3854 5.40771C14.8473 5.56167 15.0657 6.08899 14.848 6.52443L13.0591 5.63ZM13.9047 3.93886L13.0591 5.63L14.848 6.52443L15.6935 4.83329L13.9047 3.93886ZM14.0545 4.86231C13.8111 4.61883 13.7507 4.24685 13.9047 3.93886L15.6935 4.83329C15.9245 4.3713 15.834 3.81333 15.4688 3.4481L14.0545 4.86231ZM12.1371 2.94486L14.0545 4.86231L15.4688 3.4481L13.5513 1.53064L12.1371 2.94486ZM13.0605 3.09471C12.7526 3.24871 12.3806 3.18834 12.1371 2.94486L13.5513 1.53064C13.1861 1.16541 12.6281 1.07486 12.1661 1.30586L13.0605 3.09471ZM11.3697 3.94011L13.0605 3.09471L12.1661 1.30586L10.4753 2.15126L11.3697 3.94011ZM9.69467 3.24628C9.92559 3.93905 10.7166 4.2667 11.3697 3.94011L10.4753 2.15126C10.9108 1.93353 11.4381 2.15197 11.592 2.61381L9.69467 3.24628ZM9.0969 1.45298L9.69467 3.24627L11.592 2.61382L10.9943 0.820527L9.0969 1.45298ZM9.85585 2C9.5115 2 9.20579 1.77965 9.0969 1.45298L10.9943 0.820529C10.8309 0.330519 10.3724 0 9.85585 0V2ZM7.14415 2H9.85585V0H7.14415V2ZM10 8.5C10 9.32843 9.32843 10 8.5 10V12C10.433 12 12 10.433 12 8.5H10ZM8.5 7C9.32843 7 10 7.67157 10 8.5H12C12 6.567 10.433 5 8.5 5V7ZM7 8.5C7 7.67157 7.67157 7 8.5 7V5C6.567 5 5 6.567 5 8.5H7ZM8.5 10C7.67157 10 7 9.32843 7 8.5H5C5 10.433 6.567 12 8.5 12V10Z" fill="white" mask="url(#path-1-inside-1_6678_3659)"/>
</svg>
