<svg width="9" height="11" viewBox="0 0 9 11" fill="none" xmlns="http://www.w3.org/2000/svg">
<path fill-rule="evenodd" clip-rule="evenodd" d="M5.84932 6.68304C6.5097 5.34532 6.19317 3.66583 5.01665 2.69617C3.6775 1.59247 1.73127 1.82636 0.66964 3.21858C-0.391995 4.6108 -0.16702 6.63414 1.17213 7.73784C2.43795 8.7811 4.24617 8.62925 5.33702 7.43371L8.45078 10L9 9.27976L5.84932 6.68304ZM4.4924 3.38367C5.46633 4.18636 5.62995 5.65789 4.85785 6.67041C4.08576 7.68293 2.67032 7.85303 1.69639 7.05034C0.722459 6.24765 0.558842 4.77612 1.33094 3.7636C2.10304 2.75108 3.51847 2.58098 4.4924 3.38367Z" fill="white"/>
</svg>
