<?xml version="1.0" encoding="utf-8"?>
<!-- Generator: Adobe Illustrator 27.5.0, SVG Export Plug-In . SVG Version: 6.00 Build 0)  -->
<svg version="1.1" id="레이어_1" xmlns="http://www.w3.org/2000/svg" xmlns:xlink="http://www.w3.org/1999/xlink" x="0px"
	 y="0px" viewBox="0 0 25 25" style="enable-background:new 0 0 25 25;" xml:space="preserve">
<style type="text/css">
	.st0{fill:#A88870;}
	.st1{fill:#FFFFFF;}
</style>
<g>
	<circle class="st0" cx="12.5" cy="12.5" r="11.5"/>
	<g>
		
			<image style="overflow:visible;opacity:0.35;" width="21" height="22" xlink:href="C29A1A68.png"  transform="matrix(1 0 0 1 3 2)">
		</image>
		<g>
			<path class="st1" d="M9.7,18.2v1C9.7,19.6,9.4,20,9,20H7.6c-0.4,0-0.7-0.3-0.7-0.7v-1c-0.5-0.1-1-0.5-1-1.1v-4.7l0,0
				C5.4,12.4,5,12,5,11.6v-2c0-0.5,0.4-0.9,0.9-0.9l0,0V7.1c0.2-0.6,1.1-1,1.1-1C8.6,5.4,10.4,5,12.5,5s3.9,0.4,5.5,1.1
				c0,0,0.9,0.4,1.1,1v1.7l0,0c0.5,0,0.9,0.4,0.9,0.9v2c0,0.5-0.4,0.9-0.9,0.9l0,0v4.7c0,0.6-0.4,1-1,1.1v1c0,0.4-0.3,0.7-0.7,0.7
				H16c-0.4,0-0.7-0.3-0.7-0.7v-1h-2.8C12.5,18.2,9.7,18.2,9.7,18.2z M8.3,14.5c-0.6,0-1.1,0.5-1.1,1.1s0.5,1.1,1.1,1.1
				c0.6,0,1.1-0.5,1.1-1.1S8.9,14.5,8.3,14.5z M16.7,14.5c-0.6,0-1.1,0.5-1.1,1.1s0.5,1.1,1.1,1.1s1.1-0.5,1.1-1.1
				S17.3,14.5,16.7,14.5z M17.6,10.6L17.6,10.6c0-1.5-1.2-2.8-2.8-2.8h-4.7c-1.5,0-2.8,1.2-2.8,2.8v0c0,1.5,1.2,2.8,2.8,2.8h4.7
				C16.4,13.4,17.6,12.2,17.6,10.6z"/>
		</g>
	</g>
</g>
</svg>
