<?xml version="1.0" encoding="utf-8"?>
<!-- Generator: Adobe Illustrator 27.5.0, SVG Export Plug-In . SVG Version: 6.00 Build 0)  -->
<svg version="1.1" id="레이어_1" xmlns="http://www.w3.org/2000/svg" xmlns:xlink="http://www.w3.org/1999/xlink" x="0px"
	 y="0px" viewBox="0 0 34 40" style="enable-background:new 0 0 34 40;" xml:space="preserve">
<style type="text/css">
	.st0{fill:#FFFFFF;}
	.st1{fill:#44516A;}
</style>
<g>
	<g>
		<g>
			<ellipse class="st0" cx="17" cy="16.8" rx="11.5" ry="11.8"/>
			<g>
				<g>
					
						<image style="overflow:visible;" width="429" height="512" xlink:href="845C92C5.png"  transform="matrix(7.226562e-02 0 0 7.226562e-02 1.499 1.5)">
					</image>
				</g>
			</g>
		</g>
	</g>
	<path class="st1" d="M14.2,22.1v1c0,0.4-0.3,0.7-0.7,0.7h-1.4c-0.4,0-0.7-0.3-0.7-0.7v-1c-0.5-0.1-1-0.5-1-1.1v-4.7l0,0
		c-0.5,0-0.9-0.4-0.9-0.9v-2c0-0.5,0.4-0.9,0.9-0.9l0,0V11c0.2-0.6,1.1-1,1.1-1c1.5-0.7,3.4-1.1,5.5-1.1s3.9,0.4,5.5,1.1
		c0,0,0.9,0.4,1.1,1v1.7l0,0c0.5,0,0.9,0.4,0.9,0.9v2c0,0.5-0.4,0.9-0.9,0.9l0,0V21c0,0.6-0.4,1-1,1.1v1c0,0.4-0.3,0.7-0.7,0.7h-1.4
		c-0.4,0-0.7-0.3-0.7-0.7v-1H17C17,22.1,14.2,22.1,14.2,22.1z M12.8,18.4c-0.6,0-1.1,0.5-1.1,1.1s0.5,1.1,1.1,1.1
		c0.6,0,1.1-0.5,1.1-1.1S13.4,18.4,12.8,18.4z M21.2,18.4c-0.6,0-1.1,0.5-1.1,1.1s0.5,1.1,1.1,1.1s1.1-0.5,1.1-1.1
		S21.8,18.4,21.2,18.4z M22.1,15.8v-2.6c0-0.8-0.7-1.5-1.5-1.5h-7.3c-0.8,0-1.5,0.7-1.5,1.5v2.6c0,0.8,0.7,1.5,1.5,1.5h7.3
		C21.4,17.3,22.1,16.7,22.1,15.8z"/>
</g>
</svg>
