<?xml version="1.0" encoding="utf-8"?>
<!-- Generator: Adobe Illustrator 27.5.0, SVG Export Plug-In . SVG Version: 6.00 Build 0)  -->
<svg version="1.1" id="레이어_1" xmlns="http://www.w3.org/2000/svg" xmlns:xlink="http://www.w3.org/1999/xlink" x="0px"
	 y="0px" viewBox="0 0 25 25" style="enable-background:new 0 0 25 25;" xml:space="preserve">
<style type="text/css">
	.st0{fill:#44516A;}
	.st1{fill:#FFFFFF;}
	.st2{fill:#A8020E;}
	.st3{fill:#3CC344;}
	.st4{fill:#386DE8;}
</style>
<g>
	<circle class="st0" cx="12.5" cy="12.5" r="11.5"/>
	<g>
		
			<image style="overflow:visible;opacity:0.35;enable-background:new    ;" width="21" height="21" xlink:href="9B755EF3.png"  transform="matrix(1 0 0 1 3 3)">
		</image>
		<g>
			<path class="st1" d="M9.7,18.2v1C9.7,19.7,9.4,20,9,20H7.6c-0.4,0-0.7-0.3-0.7-0.7v-1c-0.5-0.1-1-0.5-1-1.1v-4.7l0,0
				c-0.5,0-0.9-0.4-0.9-0.9v-2c0-0.5,0.4-0.9,0.9-0.9l0,0V7.1c0.2-0.6,1.1-1,1.1-1C8.6,5.4,10.4,5,12.5,5s3.9,0.4,5.5,1.1
				c0,0,0.9,0.4,1.1,1v1.7l0,0c0.5,0,0.9,0.4,0.9,0.9v2c0,0.5-0.4,0.9-0.9,0.9l0,0v4.7c0,0.6-0.4,1-1,1.1v1c0,0.4-0.3,0.7-0.7,0.7
				H16c-0.4,0-0.7-0.3-0.7-0.7v-1h-2.8C12.5,18.2,9.7,18.2,9.7,18.2z M8.3,14.5c-0.6,0-1.1,0.5-1.1,1.1s0.5,1.1,1.1,1.1
				s1.1-0.5,1.1-1.1S8.9,14.5,8.3,14.5z M16.7,14.5c-0.6,0-1.1,0.5-1.1,1.1s0.5,1.1,1.1,1.1s1.1-0.5,1.1-1.1S17.3,14.5,16.7,14.5z
				 M17.6,10.7L17.6,10.7c0-1.5-1.2-2.8-2.8-2.8h-4.7c-1.5,0-2.8,1.2-2.8,2.8l0,0c0,1.5,1.2,2.8,2.8,2.8h4.7
				C16.4,13.4,17.6,12.2,17.6,10.7z"/>
		</g>
	</g>
</g>
<g>
	<circle class="st2" cx="-21.8" cy="31.6" r="11.5"/>
	<g>
		
			<image style="overflow:visible;opacity:0.35;" width="22" height="22" xlink:href="74CF454.png"  transform="matrix(1 0 0 1 -32.0986 21.1588)">
		</image>
		<g>
			<path class="st1" d="M-24.6,37.3v1c0,0.4-0.3,0.7-0.7,0.7h-1.4c-0.4,0-0.7-0.3-0.7-0.7v-1c-0.5-0.1-1-0.5-1-1.1v-4.7l0,0
				c-0.5,0-0.9-0.4-0.9-0.9v-2c0-0.5,0.4-0.9,0.9-0.9l0,0v-1.7c0.2-0.6,1.1-1,1.1-1c1.5-0.7,3.4-1.1,5.5-1.1s3.9,0.4,5.5,1.1
				c0,0,0.9,0.4,1.1,1v1.7l0,0c0.5,0,0.9,0.4,0.9,0.9v2c0,0.5-0.4,0.9-0.9,0.9l0,0v4.7c0,0.6-0.4,1-1,1.1v1c0,0.4-0.3,0.7-0.7,0.7
				h-1.4c-0.4,0-0.7-0.3-0.7-0.7v-1h-2.8C-21.8,37.3-24.6,37.3-24.6,37.3z M-26,33.6c-0.6,0-1.1,0.5-1.1,1.1c0,0.6,0.5,1.1,1.1,1.1
				s1.1-0.5,1.1-1.1C-24.8,34.1-25.4,33.6-26,33.6z M-17.6,33.6c-0.6,0-1.1,0.5-1.1,1.1c0,0.6,0.5,1.1,1.1,1.1
				c0.6,0,1.1-0.5,1.1-1.1C-16.4,34.1-16.9,33.6-17.6,33.6z M-16.7,29.8L-16.7,29.8c0-1.5-1.2-2.8-2.8-2.8h-4.7
				c-1.5,0-2.8,1.2-2.8,2.8v0c0,1.5,1.2,2.8,2.8,2.8h4.7C-17.9,32.5-16.7,31.3-16.7,29.8z"/>
		</g>
	</g>
</g>
<g>
	<circle class="st3" cx="12.5" cy="12.5" r="11.5"/>
	<g>
		
			<image style="overflow:visible;opacity:0.35;" width="21" height="21" xlink:href="74CF453.png"  transform="matrix(1 0 0 1 3 3)">
		</image>
		<g>
			<path class="st1" d="M9.7,18.2v1C9.7,19.7,9.4,20,9,20H7.6c-0.4,0-0.7-0.3-0.7-0.7v-1c-0.5-0.1-1-0.5-1-1.1v-4.7l0,0
				c-0.5,0-0.9-0.4-0.9-0.9v-2c0-0.5,0.4-0.9,0.9-0.9l0,0V7.1c0.2-0.6,1.1-1,1.1-1C8.6,5.4,10.4,5,12.5,5s3.9,0.4,5.5,1.1
				c0,0,0.9,0.4,1.1,1v1.7l0,0c0.5,0,0.9,0.4,0.9,0.9v2c0,0.5-0.4,0.9-0.9,0.9l0,0v4.7c0,0.6-0.4,1-1,1.1v1c0,0.4-0.3,0.7-0.7,0.7
				H16c-0.4,0-0.7-0.3-0.7-0.7v-1h-2.8C12.5,18.2,9.7,18.2,9.7,18.2z M8.3,14.5c-0.6,0-1.1,0.5-1.1,1.1s0.5,1.1,1.1,1.1
				c0.6,0,1.1-0.5,1.1-1.1S8.9,14.5,8.3,14.5z M16.7,14.5c-0.6,0-1.1,0.5-1.1,1.1s0.5,1.1,1.1,1.1s1.1-0.5,1.1-1.1
				S17.3,14.5,16.7,14.5z M17.6,10.7L17.6,10.7c0-1.5-1.2-2.8-2.8-2.8h-4.7c-1.5,0-2.8,1.2-2.8,2.8v0c0,1.5,1.2,2.8,2.8,2.8h4.7
				C16.4,13.4,17.6,12.2,17.6,10.7z"/>
		</g>
	</g>
</g>
<g>
	<circle class="st4" cx="40.6" cy="63.4" r="11.5"/>
	<g>
		
			<image style="overflow:visible;opacity:0.35;" width="22" height="22" xlink:href="74CF45C.png"  transform="matrix(1 0 0 1 30.2697 52.9949)">
		</image>
		<g>
			<path class="st1" d="M37.8,69.2v1c0,0.4-0.3,0.7-0.7,0.7h-1.4c-0.4,0-0.7-0.3-0.7-0.7v-1c-0.5-0.1-1-0.5-1-1.1v-4.7l0,0
				c-0.5,0-0.9-0.4-0.9-0.9v-2c0-0.5,0.4-0.9,0.9-0.9l0,0V58c0.2-0.6,1.1-1,1.1-1c1.5-0.7,3.4-1.1,5.5-1.1c2.1,0,3.9,0.4,5.5,1.1
				c0,0,0.9,0.4,1.1,1v1.7l0,0c0.5,0,0.9,0.4,0.9,0.9v2c0,0.5-0.4,0.9-0.9,0.9l0,0v4.7c0,0.6-0.4,1-1,1.1v1c0,0.4-0.3,0.7-0.7,0.7
				h-1.4c-0.4,0-0.7-0.3-0.7-0.7v-1h-2.8C40.6,69.2,37.8,69.2,37.8,69.2z M36.4,65.5c-0.6,0-1.1,0.5-1.1,1.1s0.5,1.1,1.1,1.1
				s1.1-0.5,1.1-1.1S37,65.5,36.4,65.5z M44.8,65.5c-0.6,0-1.1,0.5-1.1,1.1s0.5,1.1,1.1,1.1c0.6,0,1.1-0.5,1.1-1.1
				S45.4,65.5,44.8,65.5z M45.7,61.6L45.7,61.6c0-1.5-1.2-2.8-2.8-2.8h-4.7c-1.5,0-2.8,1.2-2.8,2.8v0c0,1.5,1.2,2.8,2.8,2.8h4.7
				C44.5,64.4,45.7,63.1,45.7,61.6z"/>
		</g>
	</g>
</g>
<rect x="199.8" y="109.5" class="st3" width="44.2" height="56"/>
<rect x="-258" y="-116" class="st4" width="41.2" height="57"/>
</svg>
