<svg width="24" height="24" viewBox="0 0 24 24" fill="none" xmlns="http://www.w3.org/2000/svg">
<path d="M9.41176 18.5412C9.41176 18.8264 9.6 19 10.1765 19C10.4941 19 10.7765 18.9504 11.2706 18.8884C11.7059 18.8264 12.0588 18.814 12.6353 18.814C12.9176 18.814 13.4118 18.8264 13.8941 18.9132C14.1882 18.9628 14.4824 19 14.8 19C15.3647 19 15.5529 18.8264 15.5529 18.5412C15.5529 18.318 15.3882 18.1816 15.1294 18.1816C15 18.1816 14.9059 18.2064 14.8235 18.2188C14.7647 18.2312 14.6941 18.2436 14.5647 18.2436C13.5529 18.2436 13.4118 17.1524 13.4118 14.8833V6.28957H15.9412C17.1647 6.28957 17.7059 6.56236 17.8588 7.61634C17.9412 8.19912 17.9882 8.33552 18.1765 8.33552C18.4588 8.33552 18.5647 8.08753 18.7059 6.89716C18.7647 6.43837 18.8353 6.15317 18.8941 5.92998C18.9529 5.71918 19 5.55799 19 5.38439C19 5.1736 18.9176 5 18.6118 5C18.4 5 18.2706 5.0372 18.0588 5.0868C17.8118 5.1364 17.4588 5.1984 16.7765 5.1984H9.31765C8.43529 5.1984 7.61176 5.0992 7.4 5.062C7.2 5.0248 7.01176 5 6.87059 5C6.55294 5 6.47059 5.2108 6.4 6.09117C6.36471 6.58716 6.28235 6.87236 6.21176 7.14515C6.10588 7.50474 6 7.82713 6 7.98833C6 8.22392 6.10588 8.40992 6.34118 8.40992C6.52941 8.40992 6.64706 8.27352 6.81176 7.83953C6.96471 7.43034 7.27059 7.10795 7.51765 6.94675C7.89412 6.68636 9.23529 6.28957 11.2471 6.28957H11.5647V14.8833C11.5647 17.1524 11.4118 18.2436 10.4118 18.2436C10.2824 18.2436 10.2 18.2312 10.1412 18.2188C10.0588 18.2064 9.97647 18.1816 9.83529 18.1816C9.57647 18.1816 9.41176 18.318 9.41176 18.5412Z" fill="white"/>
</svg>
