<svg width="15" height="15" viewBox="0 0 15 15" fill="none" xmlns="http://www.w3.org/2000/svg">
<path d="M4 12.672H7.653C9.759 12.672 11.436 11.788 11.436 9.812C11.436 8.525 10.695 7.797 9.72 7.537V7.485C10.5 7.186 10.981 6.25 10.981 5.392C10.981 3.533 9.382 3 7.38 3H4V12.672ZM6.327 6.835V4.768H7.289C8.264 4.768 8.719 5.054 8.719 5.743C8.719 6.406 8.277 6.835 7.289 6.835H6.327ZM6.327 10.891V8.551H7.484C8.615 8.551 9.174 8.863 9.174 9.656C9.174 10.488 8.602 10.891 7.484 10.891H6.327Z" fill="white"/>
</svg>
