<svg width="15" height="15" viewBox="0 0 15 15" fill="none" xmlns="http://www.w3.org/2000/svg">
<path d="M5 12.7743C5 12.7085 5.03497 12.6615 5.1049 12.6333C5.17483 12.6051 5.25058 12.591 5.33217 12.591C5.42541 12.5816 5.5303 12.5534 5.64685 12.5063C5.7634 12.4593 5.86247 12.3888 5.94406 12.2948C6.09557 12.1161 6.18298 11.9563 6.20629 11.8152C6.2296 11.6366 6.34615 10.8843 6.55594 9.55853C6.77739 8.23272 6.97552 7.01504 7.15035 5.9055C7.32517 4.78655 7.41259 4.21768 7.41259 4.19887C7.41259 3.9544 7.31352 3.77574 7.11538 3.66291C6.91725 3.54067 6.66667 3.46544 6.36364 3.43724C6.07226 3.40903 5.92075 3.39022 5.90909 3.38082C5.81585 3.35261 5.76923 3.29619 5.76923 3.21157C5.76923 3.07052 5.92657 3 6.24126 3C6.36946 3 6.60839 3.01881 6.95804 3.05642C7.30769 3.09403 7.669 3.11284 8.04196 3.11284C8.32168 3.11284 8.64219 3.09873 9.0035 3.07052C9.37646 3.04231 9.60373 3.02821 9.68531 3.02821C9.8951 3.02821 10 3.09403 10 3.22567C10 3.29149 9.94172 3.33851 9.82517 3.36671C9.72028 3.38552 9.58625 3.41373 9.42308 3.45134C9.27156 3.47955 9.16084 3.52656 9.09091 3.59238C8.85781 3.80865 8.68881 4.35872 8.58392 5.2426C8.44406 6.30512 8.28671 7.33474 8.11189 8.33145C7.93706 9.32816 7.80303 10.0804 7.70979 10.5882C7.61655 11.0865 7.56993 11.4015 7.56993 11.5331C7.56993 11.74 7.58741 11.914 7.62238 12.055C7.65734 12.1961 7.71562 12.2995 7.7972 12.3653C7.89044 12.4311 7.96037 12.4781 8.00699 12.5063C8.06527 12.5346 8.16434 12.5581 8.3042 12.5769C8.44406 12.5957 8.53147 12.6098 8.56643 12.6192C8.61305 12.6286 8.6655 12.638 8.72378 12.6474C8.78205 12.6568 8.82867 12.6662 8.86364 12.6756C8.91026 12.6756 8.95105 12.6803 8.98601 12.6897C9.02098 12.6991 9.04429 12.7132 9.05594 12.732C9.07925 12.7508 9.09091 12.7743 9.09091 12.8025C9.09091 12.8684 9.07343 12.9154 9.03846 12.9436C9.0035 12.9718 8.96853 12.9859 8.93357 12.9859C8.8986 12.9953 8.82867 13 8.72378 13C8.67716 13 8.43823 12.9859 8.00699 12.9577C7.58741 12.9295 7.23776 12.9154 6.95804 12.9154C6.78322 12.9154 6.54429 12.9295 6.24126 12.9577C5.93823 12.9859 5.72844 13 5.61189 13C5.20396 13 5 12.9248 5 12.7743Z" fill="#44516A"/>
</svg>
