<svg width="20" height="20" viewBox="0 0 20 20" fill="none" xmlns="http://www.w3.org/2000/svg">
<path fill-rule="evenodd" clip-rule="evenodd" d="M12.7489 11.6099C13.8495 9.43615 13.322 6.70698 11.3611 5.13128C9.12916 3.33777 5.88546 3.71784 4.11607 5.98019C2.34668 8.24254 2.72163 11.5305 4.95356 13.324C7.06325 15.0193 10.077 14.7725 11.895 12.8298L17.0846 17L18 15.8296L12.7489 11.6099ZM10.4873 6.24847C12.1106 7.55284 12.3833 9.94406 11.0964 11.5894C9.80959 13.2348 7.45053 13.5112 5.82732 12.2068C4.2041 10.9024 3.9314 8.5112 5.21823 6.86586C6.50506 5.22051 8.86412 4.9441 10.4873 6.24847Z" fill="white"/>
</svg>
