<svg width="22" height="22" viewBox="0 0 22 22" fill="none" xmlns="http://www.w3.org/2000/svg">
<path d="M12.4999 13.8042L9.39877 16.9054C8.54241 17.7617 8.54241 19.1502 9.39877 20.0065V20.0065V20.0065C10.2551 20.8629 11.6435 20.8629 12.4999 20.0065L18.0819 14.4245C19.2808 13.2256 19.2808 11.2818 18.0819 10.0829V10.0829C16.883 8.884 14.9392 8.88401 13.7403 10.0829L10.6082 13.215" stroke="#44516A"/>
<path d="M12.19 14.1137L13.7406 12.5632C14.2544 12.0493 15.0874 12.0493 15.6012 12.5632V12.5632C16.115 13.077 16.115 13.91 15.6012 14.4238L14.0507 15.9744" stroke="#44516A"/>
<rect x="1" y="1" width="1" height="17" fill="#44516A"/>
<rect x="1" y="1" width="10" height="1" fill="#44516A"/>
<rect x="10.707" y="1" width="4.21175" height="1" transform="rotate(45 10.707 1)" fill="#44516A"/>
<rect x="1" y="18" width="5" height="1" fill="#44516A"/>
<rect x="13" y="4" width="1" height="3" fill="#44516A"/>
</svg>
